<svg width="60" height="24" viewBox="0 0 60 24" fill="none" xmlns="http://www.w3.org/2000/svg">
  <path d="M8.5 4v16h-3V7H2V4h6.5zM15.5 20h-3V4h3v6c.8-1.2 2-2 3.8-2 3.2 0 5.2 2.5 5.2 6s-2 6-5.2 6c-1.8 0-3-.8-3.8-2v2zm5.7-6c0-2-1.2-3.3-3-3.3s-3 1.3-3 3.3 1.2 3.3 3 3.3 3-1.3 3-3.3zM32 8c3.5 0 5.8 2.5 5.8 6.3v.7h-8.6c.3 1.6 1.5 2.5 3.2 2.5 1.2 0 2.2-.5 2.8-1.3l1.8 1.8c-1 1.3-2.8 2.2-4.8 2.2-3.8 0-6.2-2.5-6.2-6.2 0-3.5 2.5-6 6-6zm2.8 5c-.2-1.5-1.3-2.4-2.8-2.4-1.5 0-2.6.9-2.9 2.4h5.7zM44 8c3.5 0 5.8 2.5 5.8 6.3v.7h-8.6c.3 1.6 1.5 2.5 3.2 2.5 1.2 0 2.2-.5 2.8-1.3l1.8 1.8c-1 1.3-2.8 2.2-4.8 2.2-3.8 0-6.2-2.5-6.2-6.2 0-3.5 2.5-6 6-6zm2.8 5c-.2-1.5-1.3-2.4-2.8-2.4-1.5 0-2.6.9-2.9 2.4h5.7zM56 20h-3V4h3v16z" fill="currentColor"/>
</svg>
