<svg width="188" height="209" viewBox="0 0 188 209" fill="none" xmlns="http://www.w3.org/2000/svg">
<rect y="14" width="188" height="21" rx="10.5" fill="#666666"/>
<g clip-path="url(#clip0_8121_14500)">
<path d="M7.16636 28.8542C6.09907 28.8542 5.14971 28.1708 4.80497 27.1535L4.78165 27.0768C4.70035 26.8074 4.66629 26.5808 4.66629 26.3541V21.8086L3.04895 27.2074C2.84093 28.0015 3.31494 28.8248 4.11025 29.0441L14.4192 31.8049C14.5479 31.8383 14.6766 31.8542 14.8033 31.8542C15.4672 31.8542 16.0739 31.4136 16.244 30.7641L16.8446 28.8542H7.16636Z" fill="#ECEFF1"/>
<path d="M19.0002 18.6875V26.3545C19.0002 27.1812 18.3268 27.8545 17.5002 27.8545H7.16654C7.09989 27.8545 7.03324 27.8478 6.97318 27.8411C6.27321 27.7545 5.72656 27.1812 5.67322 26.4745C5.6665 26.4344 5.6665 26.3944 5.6665 26.3545V18.6875C5.6665 17.8609 6.33986 17.1875 7.16654 17.1875H17.5002C18.3268 17.1875 19.0002 17.8609 19.0002 18.6875Z" fill="#ECEFF1"/>
<path d="M10.3332 20.5209C10.3332 21.2573 9.73626 21.8543 8.99991 21.8543C8.26344 21.8543 7.6665 21.2573 7.6665 20.5209C7.6665 19.7846 8.26344 19.1875 8.99991 19.1875C9.73626 19.1875 10.3332 19.7846 10.3332 20.5209Z" fill="#666666"/>
<path d="M19.0002 24.4805V26.354C19.0002 27.1806 18.3268 27.854 17.5001 27.854H7.16651C7.09986 27.854 7.0332 27.8473 6.97314 27.8406L13.84 20.9738C14.2934 20.5204 15.04 20.5204 15.4934 20.9738L19.0002 24.4805Z" fill="#131313"/>
<path d="M15.0397 27.8536H7.16617C7.09952 27.8536 7.03287 27.8469 6.97281 27.8402C6.27284 27.7536 5.7262 27.1802 5.67285 26.4736L8.83956 23.3067C9.29294 22.8535 10.0395 22.8535 10.4929 23.3067L15.0397 27.8536Z" fill="#1D1D1D"/>
</g>
<path d="M28.0391 30V18.7266H32.4141C34.7188 18.7266 36.1719 20.0625 36.1719 22.1797V22.1953C36.1719 23.7266 35.3359 24.9453 33.9844 25.4062L36.5078 30H34.4922L32.1953 25.6719H29.7891V30H28.0391ZM29.7891 24.2344H32.2422C33.5938 24.2344 34.3672 23.4922 34.3672 22.2109V22.1953C34.3672 20.9453 33.5391 20.1953 32.1953 20.1953H29.7891V24.2344ZM41.1406 30.1641C38.7266 30.1641 37.2656 28.5156 37.2656 25.9219V25.9141C37.2656 23.3438 38.75 21.625 41.0547 21.625C43.3594 21.625 44.7734 23.2812 44.7734 25.75V26.3203H38.9531C38.9844 27.875 39.8359 28.7812 41.1797 28.7812C42.1797 28.7812 42.8438 28.2656 43.0547 27.6484L43.0781 27.5859H44.6797L44.6641 27.6719C44.3984 28.9766 43.1328 30.1641 41.1406 30.1641ZM41.0625 23.0078C39.9688 23.0078 39.125 23.75 38.9766 25.125H43.1016C42.9609 23.7031 42.1641 23.0078 41.0625 23.0078ZM49.6172 30.1641C47.2188 30.1641 45.7188 28.5156 45.7188 25.8828V25.875C45.7188 23.2734 47.25 21.625 49.5938 21.625C51.7109 21.625 52.9922 22.9844 53.1328 24.5312L53.1406 24.5859H51.5312L51.5156 24.5234C51.3359 23.7188 50.7109 23.0391 49.6094 23.0391C48.2969 23.0391 47.4453 24.1328 47.4453 25.8906V25.8984C47.4453 27.6953 48.3125 28.75 49.6172 28.75C50.6562 28.75 51.3203 28.1484 51.5234 27.2578L51.5312 27.1953H53.1562L53.1484 27.25C52.9688 28.8984 51.5938 30.1641 49.6172 30.1641ZM57.8594 30.1641C55.4453 30.1641 53.9844 28.5156 53.9844 25.9219V25.9141C53.9844 23.3438 55.4688 21.625 57.7734 21.625C60.0781 21.625 61.4922 23.2812 61.4922 25.75V26.3203H55.6719C55.7031 27.875 56.5547 28.7812 57.8984 28.7812C58.8984 28.7812 59.5625 28.2656 59.7734 27.6484L59.7969 27.5859H61.3984L61.3828 27.6719C61.1172 28.9766 59.8516 30.1641 57.8594 30.1641ZM57.7812 23.0078C56.6875 23.0078 55.8438 23.75 55.6953 25.125H59.8203C59.6797 23.7031 58.8828 23.0078 57.7812 23.0078ZM63.7188 20.5156C63.1719 20.5156 62.7344 20.0781 62.7344 19.5469C62.7344 19.0078 63.1719 18.5703 63.7188 18.5703C64.2734 18.5703 64.7031 19.0078 64.7031 19.5469C64.7031 20.0781 64.2734 20.5156 63.7188 20.5156ZM62.875 30V21.7812H64.5625V30H62.875ZM66.3047 32.7344V21.7812H67.9922V23.1953H68.0312C68.5234 22.2188 69.4297 21.625 70.6016 21.625C72.6953 21.625 74.0391 23.2656 74.0391 25.8906V25.8984C74.0391 28.5156 72.6875 30.1641 70.625 30.1641C69.4609 30.1641 68.5156 29.5703 68.0312 28.6172H67.9922V32.7344H66.3047ZM70.1641 28.7109C71.4922 28.7109 72.3203 27.6328 72.3203 25.8984V25.8906C72.3203 24.1406 71.4844 23.0703 70.1641 23.0703C68.8828 23.0703 67.9844 24.1797 67.9844 25.8906V25.8984C67.9844 27.6016 68.8906 28.7109 70.1641 28.7109ZM78.2344 30.1641C76.6094 30.1641 75.8281 29.4766 75.8281 27.8359V23.125H74.6484V21.7812H75.8281V19.6406H77.5547V21.7812H79.0938V23.125H77.5547V27.7344C77.5547 28.5703 77.9297 28.8203 78.6406 28.8203C78.8203 28.8203 78.9688 28.8047 79.0938 28.7891V30.0938C78.8984 30.125 78.5781 30.1641 78.2344 30.1641ZM79.6562 32.3047V30.7812H88.3672V32.3047H79.6562ZM91.8984 30V20.4609H91.8594L88.9141 22.4922V20.8359L91.8828 18.7266H93.6094V30H91.8984ZM96.3594 30V28.7969L100.328 24.8047C101.828 23.3047 102.164 22.7109 102.164 21.8359V21.8203C102.156 20.75 101.344 19.9844 100.203 19.9844C98.8828 19.9844 97.9375 20.875 97.9219 22.0156V22.0625H96.2656V22.0156C96.2656 20 97.9766 18.5391 100.18 18.5391C102.344 18.5391 103.891 19.8984 103.891 21.7188V21.7344C103.891 23.0234 103.289 23.9375 101.266 25.9375L98.7031 28.4531V28.5234H104.07V30H96.3594ZM109.727 30.1875C107.031 30.1875 105.422 27.9453 105.422 24.3672V24.3516C105.422 20.7734 107.031 18.5391 109.727 18.5391C112.414 18.5391 114.031 20.7734 114.031 24.3516V24.3672C114.031 27.9453 112.414 30.1875 109.727 30.1875ZM109.727 28.7266C111.328 28.7266 112.266 27.0703 112.266 24.3672V24.3516C112.266 21.6484 111.328 20.0078 109.727 20.0078C108.117 20.0078 107.188 21.6484 107.188 24.3516V24.3672C107.188 27.0703 108.117 28.7266 109.727 28.7266ZM120.953 30V27.7578H115.312V26.2344L120.102 18.7266H122.633V26.2891H124.188V27.7578H122.633V30H120.953ZM116.938 26.3125H120.969V20.1094H120.922L116.938 26.2656V26.3125ZM126.438 30.1172C125.859 30.1172 125.406 29.6641 125.406 29.0938C125.406 28.5156 125.859 28.0703 126.438 28.0703C127.008 28.0703 127.461 28.5156 127.461 29.0938C127.461 29.6641 127.008 30.1172 126.438 30.1172ZM129.07 32.7344V21.7812H130.758V23.1953H130.797C131.289 22.2188 132.195 21.625 133.367 21.625C135.461 21.625 136.805 23.2656 136.805 25.8906V25.8984C136.805 28.5156 135.453 30.1641 133.391 30.1641C132.227 30.1641 131.281 29.5703 130.797 28.6172H130.758V32.7344H129.07ZM132.93 28.7109C134.258 28.7109 135.086 27.6328 135.086 25.8984V25.8906C135.086 24.1406 134.25 23.0703 132.93 23.0703C131.648 23.0703 130.75 24.1797 130.75 25.8906V25.8984C130.75 27.6016 131.656 28.7109 132.93 28.7109ZM141.188 30.1641C139.094 30.1641 137.75 28.5078 137.75 25.8906V25.8828C137.75 23.2656 139.109 21.625 141.172 21.625C142.336 21.625 143.273 22.2109 143.766 23.1797H143.797V18.7266H145.492V30H143.797V28.6094H143.766C143.273 29.5703 142.367 30.1641 141.188 30.1641ZM141.633 28.7109C142.906 28.7109 143.805 27.6016 143.805 25.8906V25.8828C143.805 24.1797 142.898 23.0703 141.633 23.0703C140.305 23.0703 139.477 24.1484 139.477 25.8828V25.8906C139.477 27.6406 140.297 28.7109 141.633 28.7109ZM147.719 30V23.125H146.586V21.7812H147.719V20.9062C147.719 19.3125 148.469 18.5625 150.141 18.5625C150.484 18.5625 150.859 18.5938 151.086 18.6328V19.8828C150.922 19.8594 150.711 19.8438 150.5 19.8438C149.742 19.8438 149.383 20.2109 149.383 20.9375V21.7812H151.055V23.125H149.414V30H147.719Z" fill="white"/>
<rect y="43" width="188" height="21" rx="10.5" fill="#666666"/>
<g clip-path="url(#clip1_8121_14500)">
<path d="M7.16636 57.8542C6.09907 57.8542 5.14971 57.1708 4.80497 56.1535L4.78165 56.0768C4.70035 55.8074 4.66629 55.5808 4.66629 55.3541V50.8086L3.04895 56.2074C2.84093 57.0015 3.31494 57.8248 4.11025 58.0441L14.4192 60.8049C14.5479 60.8383 14.6766 60.8542 14.8033 60.8542C15.4672 60.8542 16.0739 60.4136 16.244 59.7641L16.8446 57.8542H7.16636Z" fill="#ECEFF1"/>
<path d="M19.0002 47.6875V55.3545C19.0002 56.1812 18.3268 56.8545 17.5002 56.8545H7.16654C7.09989 56.8545 7.03324 56.8478 6.97318 56.8411C6.27321 56.7545 5.72656 56.1812 5.67322 55.4745C5.6665 55.4344 5.6665 55.3944 5.6665 55.3545V47.6875C5.6665 46.8609 6.33986 46.1875 7.16654 46.1875H17.5002C18.3268 46.1875 19.0002 46.8609 19.0002 47.6875Z" fill="#ECEFF1"/>
<path d="M10.3332 49.5209C10.3332 50.2573 9.73626 50.8543 8.99991 50.8543C8.26344 50.8543 7.6665 50.2573 7.6665 49.5209C7.6665 48.7846 8.26344 48.1875 8.99991 48.1875C9.73626 48.1875 10.3332 48.7846 10.3332 49.5209Z" fill="#666666"/>
<path d="M19.0002 53.4805V55.354C19.0002 56.1806 18.3268 56.854 17.5001 56.854H7.16651C7.09986 56.854 7.0332 56.8473 6.97314 56.8406L13.84 49.9738C14.2934 49.5204 15.04 49.5204 15.4934 49.9738L19.0002 53.4805Z" fill="#131313"/>
<path d="M15.0397 56.8536H7.16617C7.09952 56.8536 7.03287 56.8469 6.97281 56.8402C6.27284 56.7536 5.7262 56.1802 5.67285 55.4736L8.83956 52.3067C9.29294 51.8535 10.0395 51.8535 10.4929 52.3067L15.0397 56.8536Z" fill="#1D1D1D"/>
</g>
<path d="M28.0391 59V47.7266H32.2344C34.4453 47.7266 35.9766 49.2109 35.9766 51.4219V51.4375C35.9766 53.6406 34.4453 55.1484 32.2344 55.1484H29.7891V59H28.0391ZM31.7969 49.2031H29.7891V53.6797H31.7969C33.3203 53.6797 34.1953 52.8594 34.1953 51.4453V51.4297C34.1953 50.0234 33.3203 49.2031 31.7969 49.2031ZM40.1016 59.1641C38.2969 59.1641 37.2656 58 37.2656 56.1094V50.7812H38.9531V55.7812C38.9531 57.0234 39.5312 57.7109 40.7031 57.7109C41.8906 57.7109 42.6562 56.8594 42.6562 55.5781V50.7812H44.3516V59H42.6562V57.7656H42.6172C42.1875 58.5938 41.3516 59.1641 40.1016 59.1641ZM46.0234 59V50.7812H47.7109V52.1875H47.75C48.0156 51.2266 48.7031 50.625 49.6406 50.625C49.8828 50.625 50.0938 50.6641 50.2266 50.6875V52.2578C50.0938 52.2031 49.7969 52.1641 49.4688 52.1641C48.3828 52.1641 47.7109 52.875 47.7109 54.1016V59H46.0234ZM54.4453 59.1641C52.0469 59.1641 50.5469 57.5156 50.5469 54.8828V54.875C50.5469 52.2734 52.0781 50.625 54.4219 50.625C56.5391 50.625 57.8203 51.9844 57.9609 53.5312L57.9688 53.5859H56.3594L56.3438 53.5234C56.1641 52.7188 55.5391 52.0391 54.4375 52.0391C53.125 52.0391 52.2734 53.1328 52.2734 54.8906V54.8984C52.2734 56.6953 53.1406 57.75 54.4453 57.75C55.4844 57.75 56.1484 57.1484 56.3516 56.2578L56.3594 56.1953H57.9844L57.9766 56.25C57.7969 57.8984 56.4219 59.1641 54.4453 59.1641ZM59.2422 59V47.7266H60.9297V52.1328H60.9688C61.4062 51.1797 62.2891 50.625 63.5156 50.625C65.2734 50.625 66.4297 51.9375 66.4297 53.9219V59H64.7422V54.2422C64.7422 52.8828 64.0547 52.0703 62.8672 52.0703C61.7031 52.0703 60.9297 52.9609 60.9297 54.2422V59H59.2422ZM70.4844 59.1484C68.8438 59.1484 67.7422 58.1406 67.7422 56.6641V56.6484C67.7422 55.2188 68.8516 54.3438 70.7969 54.2266L73.0312 54.0938V53.4766C73.0312 52.5703 72.4453 52.0234 71.3984 52.0234C70.4219 52.0234 69.8203 52.4844 69.6797 53.1406L69.6641 53.2109H68.0703L68.0781 53.125C68.1953 51.7109 69.4219 50.625 71.4453 50.625C73.4531 50.625 74.7266 51.6875 74.7266 53.3359V59H73.0312V57.7031H73C72.5234 58.5859 71.5703 59.1484 70.4844 59.1484ZM69.4453 56.625C69.4453 57.3438 70.0391 57.7969 70.9453 57.7969C72.1328 57.7969 73.0312 56.9922 73.0312 55.9219V55.2812L71.0234 55.4062C70.0078 55.4688 69.4453 55.9141 69.4453 56.6094V56.625ZM79.4453 59.1641C77.3906 59.1641 76.1875 58.1484 76.0156 56.6484L76.0078 56.5781H77.6797L77.6953 56.6562C77.8516 57.4141 78.4141 57.8594 79.4531 57.8594C80.4688 57.8594 81.0781 57.4375 81.0781 56.7734V56.7656C81.0781 56.2344 80.7812 55.9297 79.8984 55.7188L78.5547 55.4141C76.9922 55.0547 76.2188 54.3047 76.2188 53.1094V53.1016C76.2188 51.6328 77.5 50.625 79.3906 50.625C81.3359 50.625 82.5078 51.7109 82.5938 53.1094L82.6016 53.2031H81.0156L81.0078 53.1484C80.9062 52.4297 80.3438 51.9297 79.3906 51.9297C78.4844 51.9297 77.9141 52.3594 77.9141 53.0156V53.0234C77.9141 53.5312 78.25 53.875 79.1328 54.0859L80.4688 54.3906C82.1484 54.7812 82.7891 55.4453 82.7891 56.625V56.6328C82.7891 58.1328 81.3828 59.1641 79.4453 59.1641ZM87.6094 59.1641C85.1953 59.1641 83.7344 57.5156 83.7344 54.9219V54.9141C83.7344 52.3438 85.2188 50.625 87.5234 50.625C89.8281 50.625 91.2422 52.2812 91.2422 54.75V55.3203H85.4219C85.4531 56.875 86.3047 57.7812 87.6484 57.7812C88.6484 57.7812 89.3125 57.2656 89.5234 56.6484L89.5469 56.5859H91.1484L91.1328 56.6719C90.8672 57.9766 89.6016 59.1641 87.6094 59.1641ZM87.5312 52.0078C86.4375 52.0078 85.5938 52.75 85.4453 54.125H89.5703C89.4297 52.7031 88.6328 52.0078 87.5312 52.0078ZM91.4062 61.3047V59.7812H100.117V61.3047H91.4062ZM100.961 59V50.7812H102.648V52.1875H102.688C102.953 51.2266 103.641 50.625 104.578 50.625C104.82 50.625 105.031 50.6641 105.164 50.6875V52.2578C105.031 52.2031 104.734 52.1641 104.406 52.1641C103.32 52.1641 102.648 52.875 102.648 54.1016V59H100.961ZM109.359 59.1641C106.945 59.1641 105.484 57.5156 105.484 54.9219V54.9141C105.484 52.3438 106.969 50.625 109.273 50.625C111.578 50.625 112.992 52.2812 112.992 54.75V55.3203H107.172C107.203 56.875 108.055 57.7812 109.398 57.7812C110.398 57.7812 111.062 57.2656 111.273 56.6484L111.297 56.5859H112.898L112.883 56.6719C112.617 57.9766 111.352 59.1641 109.359 59.1641ZM109.281 52.0078C108.188 52.0078 107.344 52.75 107.195 54.125H111.32C111.18 52.7031 110.383 52.0078 109.281 52.0078ZM117.836 59.1641C115.438 59.1641 113.938 57.5156 113.938 54.8828V54.875C113.938 52.2734 115.469 50.625 117.812 50.625C119.93 50.625 121.211 51.9844 121.352 53.5312L121.359 53.5859H119.75L119.734 53.5234C119.555 52.7188 118.93 52.0391 117.828 52.0391C116.516 52.0391 115.664 53.1328 115.664 54.8906V54.8984C115.664 56.6953 116.531 57.75 117.836 57.75C118.875 57.75 119.539 57.1484 119.742 56.2578L119.75 56.1953H121.375L121.367 56.25C121.188 57.8984 119.812 59.1641 117.836 59.1641ZM126.078 59.1641C123.664 59.1641 122.203 57.5156 122.203 54.9219V54.9141C122.203 52.3438 123.688 50.625 125.992 50.625C128.297 50.625 129.711 52.2812 129.711 54.75V55.3203H123.891C123.922 56.875 124.773 57.7812 126.117 57.7812C127.117 57.7812 127.781 57.2656 127.992 56.6484L128.016 56.5859H129.617L129.602 56.6719C129.336 57.9766 128.07 59.1641 126.078 59.1641ZM126 52.0078C124.906 52.0078 124.062 52.75 123.914 54.125H128.039C127.898 52.7031 127.102 52.0078 126 52.0078ZM131.938 49.5156C131.391 49.5156 130.953 49.0781 130.953 48.5469C130.953 48.0078 131.391 47.5703 131.938 47.5703C132.492 47.5703 132.922 48.0078 132.922 48.5469C132.922 49.0781 132.492 49.5156 131.938 49.5156ZM131.094 59V50.7812H132.781V59H131.094ZM134.523 61.7344V50.7812H136.211V52.1953H136.25C136.742 51.2188 137.648 50.625 138.82 50.625C140.914 50.625 142.258 52.2656 142.258 54.8906V54.8984C142.258 57.5156 140.906 59.1641 138.844 59.1641C137.68 59.1641 136.734 58.5703 136.25 57.6172H136.211V61.7344H134.523ZM138.383 57.7109C139.711 57.7109 140.539 56.6328 140.539 54.8984V54.8906C140.539 53.1406 139.703 52.0703 138.383 52.0703C137.102 52.0703 136.203 53.1797 136.203 54.8906V54.8984C136.203 56.6016 137.109 57.7109 138.383 57.7109ZM146.453 59.1641C144.828 59.1641 144.047 58.4766 144.047 56.8359V52.125H142.867V50.7812H144.047V48.6406H145.773V50.7812H147.312V52.125H145.773V56.7344C145.773 57.5703 146.148 57.8203 146.859 57.8203C147.039 57.8203 147.188 57.8047 147.312 57.7891V59.0938C147.117 59.125 146.797 59.1641 146.453 59.1641ZM149.672 59.1172C149.094 59.1172 148.641 58.6641 148.641 58.0938C148.641 57.5156 149.094 57.0703 149.672 57.0703C150.242 57.0703 150.695 57.5156 150.695 58.0938C150.695 58.6641 150.242 59.1172 149.672 59.1172ZM152.305 61.7344V50.7812H153.992V52.1953H154.031C154.523 51.2188 155.43 50.625 156.602 50.625C158.695 50.625 160.039 52.2656 160.039 54.8906V54.8984C160.039 57.5156 158.688 59.1641 156.625 59.1641C155.461 59.1641 154.516 58.5703 154.031 57.6172H153.992V61.7344H152.305ZM156.164 57.7109C157.492 57.7109 158.32 56.6328 158.32 54.8984V54.8906C158.32 53.1406 157.484 52.0703 156.164 52.0703C154.883 52.0703 153.984 53.1797 153.984 54.8906V54.8984C153.984 56.6016 154.891 57.7109 156.164 57.7109ZM164.422 59.1641C162.328 59.1641 160.984 57.5078 160.984 54.8906V54.8828C160.984 52.2656 162.344 50.625 164.406 50.625C165.57 50.625 166.508 51.2109 167 52.1797H167.031V47.7266H168.727V59H167.031V57.6094H167C166.508 58.5703 165.602 59.1641 164.422 59.1641ZM164.867 57.7109C166.141 57.7109 167.039 56.6016 167.039 54.8906V54.8828C167.039 53.1797 166.133 52.0703 164.867 52.0703C163.539 52.0703 162.711 53.1484 162.711 54.8828V54.8906C162.711 56.6406 163.531 57.7109 164.867 57.7109ZM170.953 59V52.125H169.82V50.7812H170.953V49.9062C170.953 48.3125 171.703 47.5625 173.375 47.5625C173.719 47.5625 174.094 47.5938 174.32 47.6328V48.8828C174.156 48.8594 173.945 48.8438 173.734 48.8438C172.977 48.8438 172.617 49.2109 172.617 49.9375V50.7812H174.289V52.125H172.648V59H170.953Z" fill="white"/>
<rect y="72" width="188" height="21" rx="10.5" fill="#666666"/>
<g clip-path="url(#clip2_8121_14500)">
<path d="M7.16636 86.8542C6.09907 86.8542 5.14971 86.1708 4.80497 85.1535L4.78165 85.0768C4.70035 84.8074 4.66629 84.5808 4.66629 84.3541V79.8086L3.04895 85.2074C2.84093 86.0015 3.31494 86.8248 4.11025 87.0441L14.4192 89.8049C14.5479 89.8383 14.6766 89.8542 14.8033 89.8542C15.4672 89.8542 16.0739 89.4136 16.244 88.7641L16.8446 86.8542H7.16636Z" fill="#ECEFF1"/>
<path d="M19.0002 76.6875V84.3545C19.0002 85.1812 18.3268 85.8545 17.5002 85.8545H7.16654C7.09989 85.8545 7.03324 85.8478 6.97318 85.8411C6.27321 85.7545 5.72656 85.1812 5.67322 84.4745C5.6665 84.4344 5.6665 84.3944 5.6665 84.3545V76.6875C5.6665 75.8609 6.33986 75.1875 7.16654 75.1875H17.5002C18.3268 75.1875 19.0002 75.8609 19.0002 76.6875Z" fill="#ECEFF1"/>
<path d="M10.3332 78.5209C10.3332 79.2573 9.73626 79.8543 8.99991 79.8543C8.26344 79.8543 7.6665 79.2573 7.6665 78.5209C7.6665 77.7846 8.26344 77.1875 8.99991 77.1875C9.73626 77.1875 10.3332 77.7846 10.3332 78.5209Z" fill="#666666"/>
<path d="M19.0002 82.4805V84.354C19.0002 85.1806 18.3268 85.854 17.5001 85.854H7.16651C7.09986 85.854 7.0332 85.8473 6.97314 85.8406L13.84 78.9738C14.2934 78.5204 15.04 78.5204 15.4934 78.9738L19.0002 82.4805Z" fill="#131313"/>
<path d="M15.0397 85.8536H7.16617C7.09952 85.8536 7.03287 85.8469 6.97281 85.8402C6.27284 85.7536 5.7262 85.1802 5.67285 84.4736L8.83956 81.3067C9.29294 80.8535 10.0395 80.8535 10.4929 81.3067L15.0397 85.8536Z" fill="#1D1D1D"/>
</g>
<path d="M28.0391 88V76.7266H29.7891V88H28.0391ZM31.6641 88V79.7812H33.3516V81.0234H33.3906C33.8203 80.1875 34.6641 79.625 35.9062 79.625C37.7109 79.625 38.75 80.7891 38.75 82.6797V88H37.0547V83C37.0547 81.7656 36.4766 81.0703 35.3047 81.0703C34.1172 81.0703 33.3516 81.9297 33.3516 83.2109V88H31.6641ZM42.625 88L39.6641 79.7812H41.4609L43.5234 86.3516H43.5625L45.625 79.7812H47.3828L44.4375 88H42.625ZM51.5703 88.1641C49.2109 88.1641 47.6719 86.5312 47.6719 83.8906V83.875C47.6719 81.25 49.2266 79.625 51.5625 79.625C53.9062 79.625 55.4688 81.2422 55.4688 83.875V83.8906C55.4688 86.5391 53.9219 88.1641 51.5703 88.1641ZM51.5781 86.75C52.8984 86.75 53.7422 85.7031 53.7422 83.8906V83.875C53.7422 82.0781 52.8828 81.0391 51.5625 81.0391C50.2656 81.0391 49.3984 82.0781 49.3984 83.875V83.8906C49.3984 85.7109 50.2578 86.75 51.5781 86.75ZM57.6875 78.5156C57.1406 78.5156 56.7031 78.0781 56.7031 77.5469C56.7031 77.0078 57.1406 76.5703 57.6875 76.5703C58.2422 76.5703 58.6719 77.0078 58.6719 77.5469C58.6719 78.0781 58.2422 78.5156 57.6875 78.5156ZM56.8438 88V79.7812H58.5312V88H56.8438ZM63.8047 88.1641C61.4062 88.1641 59.9062 86.5156 59.9062 83.8828V83.875C59.9062 81.2734 61.4375 79.625 63.7812 79.625C65.8984 79.625 67.1797 80.9844 67.3203 82.5312L67.3281 82.5859H65.7188L65.7031 82.5234C65.5234 81.7188 64.8984 81.0391 63.7969 81.0391C62.4844 81.0391 61.6328 82.1328 61.6328 83.8906V83.8984C61.6328 85.6953 62.5 86.75 63.8047 86.75C64.8438 86.75 65.5078 86.1484 65.7109 85.2578L65.7188 85.1953H67.3438L67.3359 85.25C67.1562 86.8984 65.7812 88.1641 63.8047 88.1641ZM72.0469 88.1641C69.6328 88.1641 68.1719 86.5156 68.1719 83.9219V83.9141C68.1719 81.3438 69.6562 79.625 71.9609 79.625C74.2656 79.625 75.6797 81.2812 75.6797 83.75V84.3203H69.8594C69.8906 85.875 70.7422 86.7812 72.0859 86.7812C73.0859 86.7812 73.75 86.2656 73.9609 85.6484L73.9844 85.5859H75.5859L75.5703 85.6719C75.3047 86.9766 74.0391 88.1641 72.0469 88.1641ZM71.9688 81.0078C70.875 81.0078 70.0312 81.75 69.8828 83.125H74.0078C73.8672 81.7031 73.0703 81.0078 71.9688 81.0078ZM75.8438 90.3047V88.7812H84.5547V90.3047H75.8438ZM88.0859 88V78.4609H88.0469L85.1016 80.4922V78.8359L88.0703 76.7266H89.7969V88H88.0859ZM92.5469 88V86.7969L96.5156 82.8047C98.0156 81.3047 98.3516 80.7109 98.3516 79.8359V79.8203C98.3438 78.75 97.5312 77.9844 96.3906 77.9844C95.0703 77.9844 94.125 78.875 94.1094 80.0156V80.0625H92.4531V80.0156C92.4531 78 94.1641 76.5391 96.3672 76.5391C98.5312 76.5391 100.078 77.8984 100.078 79.7188V79.7344C100.078 81.0234 99.4766 81.9375 97.4531 83.9375L94.8906 86.4531V86.5234H100.258V88H92.5469ZM105.844 88.1875C103.586 88.1875 102.016 86.8203 101.859 84.9609L101.852 84.8672H103.523L103.531 84.9297C103.68 85.9453 104.602 86.7266 105.859 86.7266C107.281 86.7266 108.273 85.7422 108.273 84.3438V84.3281C108.266 82.9453 107.273 81.9688 105.875 81.9688C105.18 81.9688 104.578 82.1719 104.125 82.5781C103.914 82.7578 103.734 82.9766 103.586 83.2266H102.055L102.609 76.7266H109.328V78.2031H104.023L103.68 81.7734H103.719C104.227 81.0156 105.164 80.5859 106.273 80.5859C108.43 80.5859 109.984 82.1406 109.984 84.2969V84.3125C109.984 86.6016 108.273 88.1875 105.844 88.1875ZM115.438 88.1875C113.18 88.1875 111.609 86.8203 111.453 84.9609L111.445 84.8672H113.117L113.125 84.9297C113.273 85.9453 114.195 86.7266 115.453 86.7266C116.875 86.7266 117.867 85.7422 117.867 84.3438V84.3281C117.859 82.9453 116.867 81.9688 115.469 81.9688C114.773 81.9688 114.172 82.1719 113.719 82.5781C113.508 82.7578 113.328 82.9766 113.18 83.2266H111.648L112.203 76.7266H118.922V78.2031H113.617L113.273 81.7734H113.312C113.82 81.0156 114.758 80.5859 115.867 80.5859C118.023 80.5859 119.578 82.1406 119.578 84.2969V84.3125C119.578 86.6016 117.867 88.1875 115.438 88.1875ZM121.891 88.1172C121.312 88.1172 120.859 87.6641 120.859 87.0938C120.859 86.5156 121.312 86.0703 121.891 86.0703C122.461 86.0703 122.914 86.5156 122.914 87.0938C122.914 87.6641 122.461 88.1172 121.891 88.1172ZM124.523 90.7344V79.7812H126.211V81.1953H126.25C126.742 80.2188 127.648 79.625 128.82 79.625C130.914 79.625 132.258 81.2656 132.258 83.8906V83.8984C132.258 86.5156 130.906 88.1641 128.844 88.1641C127.68 88.1641 126.734 87.5703 126.25 86.6172H126.211V90.7344H124.523ZM128.383 86.7109C129.711 86.7109 130.539 85.6328 130.539 83.8984V83.8906C130.539 82.1406 129.703 81.0703 128.383 81.0703C127.102 81.0703 126.203 82.1797 126.203 83.8906V83.8984C126.203 85.6016 127.109 86.7109 128.383 86.7109ZM136.641 88.1641C134.547 88.1641 133.203 86.5078 133.203 83.8906V83.8828C133.203 81.2656 134.562 79.625 136.625 79.625C137.789 79.625 138.727 80.2109 139.219 81.1797H139.25V76.7266H140.945V88H139.25V86.6094H139.219C138.727 87.5703 137.82 88.1641 136.641 88.1641ZM137.086 86.7109C138.359 86.7109 139.258 85.6016 139.258 83.8906V83.8828C139.258 82.1797 138.352 81.0703 137.086 81.0703C135.758 81.0703 134.93 82.1484 134.93 83.8828V83.8906C134.93 85.6406 135.75 86.7109 137.086 86.7109ZM143.172 88V81.125H142.039V79.7812H143.172V78.9062C143.172 77.3125 143.922 76.5625 145.594 76.5625C145.938 76.5625 146.312 76.5938 146.539 76.6328V77.8828C146.375 77.8594 146.164 77.8438 145.953 77.8438C145.195 77.8438 144.836 78.2109 144.836 78.9375V79.7812H146.508V81.125H144.867V88H143.172Z" fill="white"/>
<rect y="101" width="188" height="21" rx="10.5" fill="#666666"/>
<g clip-path="url(#clip3_8121_14500)">
<path d="M7.16636 115.854C6.09907 115.854 5.14971 115.171 4.80497 114.153L4.78165 114.077C4.70035 113.807 4.66629 113.581 4.66629 113.354V108.809L3.04895 114.207C2.84093 115.001 3.31494 115.825 4.11025 116.044L14.4192 118.805C14.5479 118.838 14.6766 118.854 14.8033 118.854C15.4672 118.854 16.0739 118.414 16.244 117.764L16.8446 115.854H7.16636Z" fill="#ECEFF1"/>
<path d="M19.0002 105.688V113.354C19.0002 114.181 18.3268 114.855 17.5002 114.855H7.16654C7.09989 114.855 7.03324 114.848 6.97318 114.841C6.27321 114.755 5.72656 114.181 5.67322 113.474C5.6665 113.434 5.6665 113.394 5.6665 113.354V105.688C5.6665 104.861 6.33986 104.188 7.16654 104.188H17.5002C18.3268 104.188 19.0002 104.861 19.0002 105.688Z" fill="#ECEFF1"/>
<path d="M10.3332 107.521C10.3332 108.257 9.73626 108.854 8.99991 108.854C8.26344 108.854 7.6665 108.257 7.6665 107.521C7.6665 106.785 8.26344 106.188 8.99991 106.188C9.73626 106.188 10.3332 106.785 10.3332 107.521Z" fill="#666666"/>
<path d="M19.0002 111.481V113.354C19.0002 114.181 18.3268 114.854 17.5001 114.854H7.16651C7.09986 114.854 7.0332 114.847 6.97314 114.841L13.84 107.974C14.2934 107.52 15.04 107.52 15.4934 107.974L19.0002 111.481Z" fill="#131313"/>
<path d="M15.0397 114.854H7.16617C7.09952 114.854 7.03287 114.847 6.97281 114.84C6.27284 114.754 5.7262 114.18 5.67285 113.474L8.83956 110.307C9.29294 109.853 10.0395 109.853 10.4929 110.307L15.0397 114.854Z" fill="#1D1D1D"/>
</g>
<path d="M28.0391 117V105.727H29.7891V117H28.0391ZM31.6641 117V108.781H33.3516V110.023H33.3906C33.8203 109.188 34.6641 108.625 35.9062 108.625C37.7109 108.625 38.75 109.789 38.75 111.68V117H37.0547V112C37.0547 110.766 36.4766 110.07 35.3047 110.07C34.1172 110.07 33.3516 110.93 33.3516 112.211V117H31.6641ZM42.625 117L39.6641 108.781H41.4609L43.5234 115.352H43.5625L45.625 108.781H47.3828L44.4375 117H42.625ZM51.5703 117.164C49.2109 117.164 47.6719 115.531 47.6719 112.891V112.875C47.6719 110.25 49.2266 108.625 51.5625 108.625C53.9062 108.625 55.4688 110.242 55.4688 112.875V112.891C55.4688 115.539 53.9219 117.164 51.5703 117.164ZM51.5781 115.75C52.8984 115.75 53.7422 114.703 53.7422 112.891V112.875C53.7422 111.078 52.8828 110.039 51.5625 110.039C50.2656 110.039 49.3984 111.078 49.3984 112.875V112.891C49.3984 114.711 50.2578 115.75 51.5781 115.75ZM57.6875 107.516C57.1406 107.516 56.7031 107.078 56.7031 106.547C56.7031 106.008 57.1406 105.57 57.6875 105.57C58.2422 105.57 58.6719 106.008 58.6719 106.547C58.6719 107.078 58.2422 107.516 57.6875 107.516ZM56.8438 117V108.781H58.5312V117H56.8438ZM63.8047 117.164C61.4062 117.164 59.9062 115.516 59.9062 112.883V112.875C59.9062 110.273 61.4375 108.625 63.7812 108.625C65.8984 108.625 67.1797 109.984 67.3203 111.531L67.3281 111.586H65.7188L65.7031 111.523C65.5234 110.719 64.8984 110.039 63.7969 110.039C62.4844 110.039 61.6328 111.133 61.6328 112.891V112.898C61.6328 114.695 62.5 115.75 63.8047 115.75C64.8438 115.75 65.5078 115.148 65.7109 114.258L65.7188 114.195H67.3438L67.3359 114.25C67.1562 115.898 65.7812 117.164 63.8047 117.164ZM72.0469 117.164C69.6328 117.164 68.1719 115.516 68.1719 112.922V112.914C68.1719 110.344 69.6562 108.625 71.9609 108.625C74.2656 108.625 75.6797 110.281 75.6797 112.75V113.32H69.8594C69.8906 114.875 70.7422 115.781 72.0859 115.781C73.0859 115.781 73.75 115.266 73.9609 114.648L73.9844 114.586H75.5859L75.5703 114.672C75.3047 115.977 74.0391 117.164 72.0469 117.164ZM71.9688 110.008C70.875 110.008 70.0312 110.75 69.8828 112.125H74.0078C73.8672 110.703 73.0703 110.008 71.9688 110.008ZM75.8438 119.305V117.781H84.5547V119.305H75.8438ZM88.0859 117V107.461H88.0469L85.1016 109.492V107.836L88.0703 105.727H89.7969V117H88.0859ZM92.5469 117V115.797L96.5156 111.805C98.0156 110.305 98.3516 109.711 98.3516 108.836V108.82C98.3438 107.75 97.5312 106.984 96.3906 106.984C95.0703 106.984 94.125 107.875 94.1094 109.016V109.062H92.4531V109.016C92.4531 107 94.1641 105.539 96.3672 105.539C98.5312 105.539 100.078 106.898 100.078 108.719V108.734C100.078 110.023 99.4766 110.938 97.4531 112.938L94.8906 115.453V115.523H100.258V117H92.5469ZM104.664 117V107.461H104.625L101.68 109.492V107.836L104.648 105.727H106.375V117H104.664ZM109.125 117V115.797L113.094 111.805C114.594 110.305 114.93 109.711 114.93 108.836V108.82C114.922 107.75 114.109 106.984 112.969 106.984C111.648 106.984 110.703 107.875 110.688 109.016V109.062H109.031V109.016C109.031 107 110.742 105.539 112.945 105.539C115.109 105.539 116.656 106.898 116.656 108.719V108.734C116.656 110.023 116.055 110.938 114.031 112.938L111.469 115.453V115.523H116.836V117H109.125ZM119.312 117.117C118.734 117.117 118.281 116.664 118.281 116.094C118.281 115.516 118.734 115.07 119.312 115.07C119.883 115.07 120.336 115.516 120.336 116.094C120.336 116.664 119.883 117.117 119.312 117.117ZM121.945 119.734V108.781H123.633V110.195H123.672C124.164 109.219 125.07 108.625 126.242 108.625C128.336 108.625 129.68 110.266 129.68 112.891V112.898C129.68 115.516 128.328 117.164 126.266 117.164C125.102 117.164 124.156 116.57 123.672 115.617H123.633V119.734H121.945ZM125.805 115.711C127.133 115.711 127.961 114.633 127.961 112.898V112.891C127.961 111.141 127.125 110.07 125.805 110.07C124.523 110.07 123.625 111.18 123.625 112.891V112.898C123.625 114.602 124.531 115.711 125.805 115.711ZM134.062 117.164C131.969 117.164 130.625 115.508 130.625 112.891V112.883C130.625 110.266 131.984 108.625 134.047 108.625C135.211 108.625 136.148 109.211 136.641 110.18H136.672V105.727H138.367V117H136.672V115.609H136.641C136.148 116.57 135.242 117.164 134.062 117.164ZM134.508 115.711C135.781 115.711 136.68 114.602 136.68 112.891V112.883C136.68 111.18 135.773 110.07 134.508 110.07C133.18 110.07 132.352 111.148 132.352 112.883V112.891C132.352 114.641 133.172 115.711 134.508 115.711ZM140.594 117V110.125H139.461V108.781H140.594V107.906C140.594 106.312 141.344 105.562 143.016 105.562C143.359 105.562 143.734 105.594 143.961 105.633V106.883C143.797 106.859 143.586 106.844 143.375 106.844C142.617 106.844 142.258 107.211 142.258 107.938V108.781H143.93V110.125H142.289V117H140.594Z" fill="white"/>
<rect y="130" width="188" height="21" rx="10.5" fill="#666666"/>
<g clip-path="url(#clip4_8121_14500)">
<path d="M7.16636 144.854C6.09907 144.854 5.14971 144.171 4.80497 143.153L4.78165 143.077C4.70035 142.807 4.66629 142.581 4.66629 142.354V137.809L3.04895 143.207C2.84093 144.001 3.31494 144.825 4.11025 145.044L14.4192 147.805C14.5479 147.838 14.6766 147.854 14.8033 147.854C15.4672 147.854 16.0739 147.414 16.244 146.764L16.8446 144.854H7.16636Z" fill="#ECEFF1"/>
<path d="M19.0002 134.688V142.354C19.0002 143.181 18.3268 143.855 17.5002 143.855H7.16654C7.09989 143.855 7.03324 143.848 6.97318 143.841C6.27321 143.755 5.72656 143.181 5.67322 142.474C5.6665 142.434 5.6665 142.394 5.6665 142.354V134.688C5.6665 133.861 6.33986 133.188 7.16654 133.188H17.5002C18.3268 133.188 19.0002 133.861 19.0002 134.688Z" fill="#ECEFF1"/>
<path d="M10.3332 136.521C10.3332 137.257 9.73626 137.854 8.99991 137.854C8.26344 137.854 7.6665 137.257 7.6665 136.521C7.6665 135.785 8.26344 135.188 8.99991 135.188C9.73626 135.188 10.3332 135.785 10.3332 136.521Z" fill="#666666"/>
<path d="M19.0002 140.481V142.354C19.0002 143.181 18.3268 143.854 17.5001 143.854H7.16651C7.09986 143.854 7.0332 143.847 6.97314 143.841L13.84 136.974C14.2934 136.52 15.04 136.52 15.4934 136.974L19.0002 140.481Z" fill="#131313"/>
<path d="M15.0397 143.854H7.16617C7.09952 143.854 7.03287 143.847 6.97281 143.84C6.27284 143.754 5.7262 143.18 5.67285 142.474L8.83956 139.307C9.29294 138.853 10.0395 138.853 10.4929 139.307L15.0397 143.854Z" fill="#1D1D1D"/>
</g>
<path d="M28.0391 146V134.727H29.7891V146H28.0391ZM31.6641 146V137.781H33.3516V139.023H33.3906C33.8203 138.188 34.6641 137.625 35.9062 137.625C37.7109 137.625 38.75 138.789 38.75 140.68V146H37.0547V141C37.0547 139.766 36.4766 139.07 35.3047 139.07C34.1172 139.07 33.3516 139.93 33.3516 141.211V146H31.6641ZM42.625 146L39.6641 137.781H41.4609L43.5234 144.352H43.5625L45.625 137.781H47.3828L44.4375 146H42.625ZM51.5703 146.164C49.2109 146.164 47.6719 144.531 47.6719 141.891V141.875C47.6719 139.25 49.2266 137.625 51.5625 137.625C53.9062 137.625 55.4688 139.242 55.4688 141.875V141.891C55.4688 144.539 53.9219 146.164 51.5703 146.164ZM51.5781 144.75C52.8984 144.75 53.7422 143.703 53.7422 141.891V141.875C53.7422 140.078 52.8828 139.039 51.5625 139.039C50.2656 139.039 49.3984 140.078 49.3984 141.875V141.891C49.3984 143.711 50.2578 144.75 51.5781 144.75ZM57.6875 136.516C57.1406 136.516 56.7031 136.078 56.7031 135.547C56.7031 135.008 57.1406 134.57 57.6875 134.57C58.2422 134.57 58.6719 135.008 58.6719 135.547C58.6719 136.078 58.2422 136.516 57.6875 136.516ZM56.8438 146V137.781H58.5312V146H56.8438ZM63.8047 146.164C61.4062 146.164 59.9062 144.516 59.9062 141.883V141.875C59.9062 139.273 61.4375 137.625 63.7812 137.625C65.8984 137.625 67.1797 138.984 67.3203 140.531L67.3281 140.586H65.7188L65.7031 140.523C65.5234 139.719 64.8984 139.039 63.7969 139.039C62.4844 139.039 61.6328 140.133 61.6328 141.891V141.898C61.6328 143.695 62.5 144.75 63.8047 144.75C64.8438 144.75 65.5078 144.148 65.7109 143.258L65.7188 143.195H67.3438L67.3359 143.25C67.1562 144.898 65.7812 146.164 63.8047 146.164ZM72.0469 146.164C69.6328 146.164 68.1719 144.516 68.1719 141.922V141.914C68.1719 139.344 69.6562 137.625 71.9609 137.625C74.2656 137.625 75.6797 139.281 75.6797 141.75V142.32H69.8594C69.8906 143.875 70.7422 144.781 72.0859 144.781C73.0859 144.781 73.75 144.266 73.9609 143.648L73.9844 143.586H75.5859L75.5703 143.672C75.3047 144.977 74.0391 146.164 72.0469 146.164ZM71.9688 139.008C70.875 139.008 70.0312 139.75 69.8828 141.125H74.0078C73.8672 139.703 73.0703 139.008 71.9688 139.008ZM75.8438 148.305V146.781H84.5547V148.305H75.8438ZM88.0859 146V136.461H88.0469L85.1016 138.492V136.836L88.0703 134.727H89.7969V146H88.0859ZM92.5469 146V144.797L96.5156 140.805C98.0156 139.305 98.3516 138.711 98.3516 137.836V137.82C98.3438 136.75 97.5312 135.984 96.3906 135.984C95.0703 135.984 94.125 136.875 94.1094 138.016V138.062H92.4531V138.016C92.4531 136 94.1641 134.539 96.3672 134.539C98.5312 134.539 100.078 135.898 100.078 137.719V137.734C100.078 139.023 99.4766 139.938 97.4531 141.938L94.8906 144.453V144.523H100.258V146H92.5469ZM105.875 146.188C103.383 146.188 101.617 144.852 101.617 142.945V142.93C101.617 141.508 102.641 140.383 104.109 140.062V140.023C102.852 139.664 102.031 138.727 102.031 137.531V137.516C102.031 135.797 103.633 134.539 105.875 134.539C108.117 134.539 109.727 135.797 109.727 137.516V137.531C109.727 138.727 108.906 139.664 107.648 140.023V140.062C109.117 140.383 110.133 141.508 110.133 142.93V142.945C110.133 144.852 108.375 146.188 105.875 146.188ZM105.875 139.438C107.133 139.438 107.992 138.711 107.992 137.688V137.672C107.992 136.641 107.125 135.922 105.875 135.922C104.625 135.922 103.766 136.641 103.766 137.672V137.688C103.766 138.711 104.625 139.438 105.875 139.438ZM105.875 144.789C107.312 144.789 108.336 143.969 108.336 142.828V142.812C108.336 141.664 107.32 140.836 105.875 140.836C104.43 140.836 103.414 141.664 103.414 142.812V142.828C103.414 143.969 104.438 144.789 105.875 144.789ZM115.789 146.188C113.094 146.188 111.484 143.945 111.484 140.367V140.352C111.484 136.773 113.094 134.539 115.789 134.539C118.477 134.539 120.094 136.773 120.094 140.352V140.367C120.094 143.945 118.477 146.188 115.789 146.188ZM115.789 144.727C117.391 144.727 118.328 143.07 118.328 140.367V140.352C118.328 137.648 117.391 136.008 115.789 136.008C114.18 136.008 113.25 137.648 113.25 140.352V140.367C113.25 143.07 114.18 144.727 115.789 144.727ZM122.234 146.117C121.656 146.117 121.203 145.664 121.203 145.094C121.203 144.516 121.656 144.07 122.234 144.07C122.805 144.07 123.258 144.516 123.258 145.094C123.258 145.664 122.805 146.117 122.234 146.117ZM124.867 148.734V137.781H126.555V139.195H126.594C127.086 138.219 127.992 137.625 129.164 137.625C131.258 137.625 132.602 139.266 132.602 141.891V141.898C132.602 144.516 131.25 146.164 129.188 146.164C128.023 146.164 127.078 145.57 126.594 144.617H126.555V148.734H124.867ZM128.727 144.711C130.055 144.711 130.883 143.633 130.883 141.898V141.891C130.883 140.141 130.047 139.07 128.727 139.07C127.445 139.07 126.547 140.18 126.547 141.891V141.898C126.547 143.602 127.453 144.711 128.727 144.711ZM136.984 146.164C134.891 146.164 133.547 144.508 133.547 141.891V141.883C133.547 139.266 134.906 137.625 136.969 137.625C138.133 137.625 139.07 138.211 139.562 139.18H139.594V134.727H141.289V146H139.594V144.609H139.562C139.07 145.57 138.164 146.164 136.984 146.164ZM137.43 144.711C138.703 144.711 139.602 143.602 139.602 141.891V141.883C139.602 140.18 138.695 139.07 137.43 139.07C136.102 139.07 135.273 140.148 135.273 141.883V141.891C135.273 143.641 136.094 144.711 137.43 144.711ZM143.516 146V139.125H142.383V137.781H143.516V136.906C143.516 135.312 144.266 134.562 145.938 134.562C146.281 134.562 146.656 134.594 146.883 134.633V135.883C146.719 135.859 146.508 135.844 146.297 135.844C145.539 135.844 145.18 136.211 145.18 136.938V137.781H146.852V139.125H145.211V146H143.516Z" fill="white"/>
<rect y="159" width="188" height="21" rx="10.5" fill="#666666"/>
<g clip-path="url(#clip5_8121_14500)">
<path d="M7.16636 173.854C6.09907 173.854 5.14971 173.171 4.80497 172.153L4.78165 172.077C4.70035 171.807 4.66629 171.581 4.66629 171.354V166.809L3.04895 172.207C2.84093 173.001 3.31494 173.825 4.11025 174.044L14.4192 176.805C14.5479 176.838 14.6766 176.854 14.8033 176.854C15.4672 176.854 16.0739 176.414 16.244 175.764L16.8446 173.854H7.16636Z" fill="#ECEFF1"/>
<path d="M19.0002 163.688V171.354C19.0002 172.181 18.3268 172.855 17.5002 172.855H7.16654C7.09989 172.855 7.03324 172.848 6.97318 172.841C6.27321 172.755 5.72656 172.181 5.67322 171.474C5.6665 171.434 5.6665 171.394 5.6665 171.354V163.688C5.6665 162.861 6.33986 162.188 7.16654 162.188H17.5002C18.3268 162.188 19.0002 162.861 19.0002 163.688Z" fill="#ECEFF1"/>
<path d="M10.3332 165.521C10.3332 166.257 9.73626 166.854 8.99991 166.854C8.26344 166.854 7.6665 166.257 7.6665 165.521C7.6665 164.785 8.26344 164.188 8.99991 164.188C9.73626 164.188 10.3332 164.785 10.3332 165.521Z" fill="#666666"/>
<path d="M19.0002 169.481V171.354C19.0002 172.181 18.3268 172.854 17.5001 172.854H7.16651C7.09986 172.854 7.0332 172.847 6.97314 172.841L13.84 165.974C14.2934 165.52 15.04 165.52 15.4934 165.974L19.0002 169.481Z" fill="#131313"/>
<path d="M15.0397 172.854H7.16617C7.09952 172.854 7.03287 172.847 6.97281 172.84C6.27284 172.754 5.7262 172.18 5.67285 171.474L8.83956 168.307C9.29294 167.853 10.0395 167.853 10.4929 168.307L15.0397 172.854Z" fill="#1D1D1D"/>
</g>
<path d="M28.0391 175V163.727H29.7891V175H28.0391ZM31.6641 175V166.781H33.3516V168.023H33.3906C33.8203 167.188 34.6641 166.625 35.9062 166.625C37.7109 166.625 38.75 167.789 38.75 169.68V175H37.0547V170C37.0547 168.766 36.4766 168.07 35.3047 168.07C34.1172 168.07 33.3516 168.93 33.3516 170.211V175H31.6641ZM42.625 175L39.6641 166.781H41.4609L43.5234 173.352H43.5625L45.625 166.781H47.3828L44.4375 175H42.625ZM51.5703 175.164C49.2109 175.164 47.6719 173.531 47.6719 170.891V170.875C47.6719 168.25 49.2266 166.625 51.5625 166.625C53.9062 166.625 55.4688 168.242 55.4688 170.875V170.891C55.4688 173.539 53.9219 175.164 51.5703 175.164ZM51.5781 173.75C52.8984 173.75 53.7422 172.703 53.7422 170.891V170.875C53.7422 169.078 52.8828 168.039 51.5625 168.039C50.2656 168.039 49.3984 169.078 49.3984 170.875V170.891C49.3984 172.711 50.2578 173.75 51.5781 173.75ZM57.6875 165.516C57.1406 165.516 56.7031 165.078 56.7031 164.547C56.7031 164.008 57.1406 163.57 57.6875 163.57C58.2422 163.57 58.6719 164.008 58.6719 164.547C58.6719 165.078 58.2422 165.516 57.6875 165.516ZM56.8438 175V166.781H58.5312V175H56.8438ZM63.8047 175.164C61.4062 175.164 59.9062 173.516 59.9062 170.883V170.875C59.9062 168.273 61.4375 166.625 63.7812 166.625C65.8984 166.625 67.1797 167.984 67.3203 169.531L67.3281 169.586H65.7188L65.7031 169.523C65.5234 168.719 64.8984 168.039 63.7969 168.039C62.4844 168.039 61.6328 169.133 61.6328 170.891V170.898C61.6328 172.695 62.5 173.75 63.8047 173.75C64.8438 173.75 65.5078 173.148 65.7109 172.258L65.7188 172.195H67.3438L67.3359 172.25C67.1562 173.898 65.7812 175.164 63.8047 175.164ZM72.0469 175.164C69.6328 175.164 68.1719 173.516 68.1719 170.922V170.914C68.1719 168.344 69.6562 166.625 71.9609 166.625C74.2656 166.625 75.6797 168.281 75.6797 170.75V171.32H69.8594C69.8906 172.875 70.7422 173.781 72.0859 173.781C73.0859 173.781 73.75 173.266 73.9609 172.648L73.9844 172.586H75.5859L75.5703 172.672C75.3047 173.977 74.0391 175.164 72.0469 175.164ZM71.9688 168.008C70.875 168.008 70.0312 168.75 69.8828 170.125H74.0078C73.8672 168.703 73.0703 168.008 71.9688 168.008ZM75.8438 177.305V175.781H84.5547V177.305H75.8438ZM88.0859 175V165.461H88.0469L85.1016 167.492V165.836L88.0703 163.727H89.7969V175H88.0859ZM92.5469 175V173.797L96.5156 169.805C98.0156 168.305 98.3516 167.711 98.3516 166.836V166.82C98.3438 165.75 97.5312 164.984 96.3906 164.984C95.0703 164.984 94.125 165.875 94.1094 167.016V167.062H92.4531V167.016C92.4531 165 94.1641 163.539 96.3672 163.539C98.5312 163.539 100.078 164.898 100.078 166.719V166.734C100.078 168.023 99.4766 168.938 97.4531 170.938L94.8906 173.453V173.523H100.258V175H92.5469ZM106.039 175.188C103.734 175.188 101.609 173.586 101.609 169.531V169.516C101.609 165.758 103.289 163.539 106.109 163.539C108.117 163.539 109.625 164.688 109.984 166.367L110.008 166.461H108.25L108.227 166.383C107.906 165.539 107.172 165.008 106.094 165.008C104.156 165.008 103.367 166.875 103.297 169.109C103.289 169.211 103.289 169.312 103.289 169.414H103.328C103.773 168.398 104.914 167.602 106.445 167.602C108.602 167.602 110.156 169.172 110.156 171.305V171.32C110.156 173.57 108.414 175.188 106.039 175.188ZM103.633 171.328C103.633 172.664 104.68 173.719 106.016 173.719C107.352 173.719 108.414 172.68 108.414 171.367V171.352C108.414 169.992 107.414 169.023 106.039 169.023C104.672 169.023 103.633 169.984 103.633 171.32V171.328ZM115.961 163.539C118.266 163.539 120.391 165.141 120.391 169.195V169.211C120.391 172.969 118.711 175.188 115.891 175.188C113.883 175.188 112.375 174.039 112.016 172.359L111.992 172.266H113.742L113.773 172.344C114.094 173.188 114.828 173.719 115.906 173.719C117.844 173.719 118.633 171.852 118.703 169.617C118.711 169.516 118.711 169.414 118.711 169.312H118.672C118.227 170.328 117.086 171.125 115.555 171.125C113.398 171.125 111.836 169.555 111.836 167.422V167.406C111.836 165.156 113.578 163.539 115.961 163.539ZM115.953 169.703C117.328 169.703 118.367 168.742 118.367 167.406V167.398C118.367 166.062 117.32 165.008 115.977 165.008C114.648 165.008 113.578 166.047 113.578 167.359V167.375C113.578 168.734 114.586 169.703 115.953 169.703ZM122.531 175.117C121.953 175.117 121.5 174.664 121.5 174.094C121.5 173.516 121.953 173.07 122.531 173.07C123.102 173.07 123.555 173.516 123.555 174.094C123.555 174.664 123.102 175.117 122.531 175.117ZM125.164 177.734V166.781H126.852V168.195H126.891C127.383 167.219 128.289 166.625 129.461 166.625C131.555 166.625 132.898 168.266 132.898 170.891V170.898C132.898 173.516 131.547 175.164 129.484 175.164C128.32 175.164 127.375 174.57 126.891 173.617H126.852V177.734H125.164ZM129.023 173.711C130.352 173.711 131.18 172.633 131.18 170.898V170.891C131.18 169.141 130.344 168.07 129.023 168.07C127.742 168.07 126.844 169.18 126.844 170.891V170.898C126.844 172.602 127.75 173.711 129.023 173.711ZM137.281 175.164C135.188 175.164 133.844 173.508 133.844 170.891V170.883C133.844 168.266 135.203 166.625 137.266 166.625C138.43 166.625 139.367 167.211 139.859 168.18H139.891V163.727H141.586V175H139.891V173.609H139.859C139.367 174.57 138.461 175.164 137.281 175.164ZM137.727 173.711C139 173.711 139.898 172.602 139.898 170.891V170.883C139.898 169.18 138.992 168.07 137.727 168.07C136.398 168.07 135.57 169.148 135.57 170.883V170.891C135.57 172.641 136.391 173.711 137.727 173.711ZM143.812 175V168.125H142.68V166.781H143.812V165.906C143.812 164.312 144.562 163.562 146.234 163.562C146.578 163.562 146.953 163.594 147.18 163.633V164.883C147.016 164.859 146.805 164.844 146.594 164.844C145.836 164.844 145.477 165.211 145.477 165.938V166.781H147.148V168.125H145.508V175H143.812Z" fill="white"/>
<rect y="188" width="188" height="21" rx="10.5" fill="#666666"/>
<g clip-path="url(#clip6_8121_14500)">
<path d="M7.16636 202.854C6.09907 202.854 5.14971 202.171 4.80497 201.153L4.78165 201.077C4.70035 200.807 4.66629 200.581 4.66629 200.354V195.809L3.04895 201.207C2.84093 202.001 3.31494 202.825 4.11025 203.044L14.4192 205.805C14.5479 205.838 14.6766 205.854 14.8033 205.854C15.4672 205.854 16.0739 205.414 16.244 204.764L16.8446 202.854H7.16636Z" fill="#ECEFF1"/>
<path d="M19.0002 192.688V200.354C19.0002 201.181 18.3268 201.855 17.5002 201.855H7.16654C7.09989 201.855 7.03324 201.848 6.97318 201.841C6.27321 201.755 5.72656 201.181 5.67322 200.474C5.6665 200.434 5.6665 200.394 5.6665 200.354V192.688C5.6665 191.861 6.33986 191.188 7.16654 191.188H17.5002C18.3268 191.188 19.0002 191.861 19.0002 192.688Z" fill="#ECEFF1"/>
<path d="M10.3332 194.521C10.3332 195.257 9.73626 195.854 8.99991 195.854C8.26344 195.854 7.6665 195.257 7.6665 194.521C7.6665 193.785 8.26344 193.188 8.99991 193.188C9.73626 193.188 10.3332 193.785 10.3332 194.521Z" fill="#666666"/>
<path d="M19.0002 198.481V200.354C19.0002 201.181 18.3268 201.854 17.5001 201.854H7.16651C7.09986 201.854 7.0332 201.847 6.97314 201.841L13.84 194.974C14.2934 194.52 15.04 194.52 15.4934 194.974L19.0002 198.481Z" fill="#131313"/>
<path d="M15.0397 201.854H7.16617C7.09952 201.854 7.03287 201.847 6.97281 201.84C6.27284 201.754 5.7262 201.18 5.67285 200.474L8.83956 197.307C9.29294 196.853 10.0395 196.853 10.4929 197.307L15.0397 201.854Z" fill="#1D1D1D"/>
</g>
<path d="M28.0391 204V192.727H29.7891V204H28.0391ZM31.6641 204V195.781H33.3516V197.023H33.3906C33.8203 196.188 34.6641 195.625 35.9062 195.625C37.7109 195.625 38.75 196.789 38.75 198.68V204H37.0547V199C37.0547 197.766 36.4766 197.07 35.3047 197.07C34.1172 197.07 33.3516 197.93 33.3516 199.211V204H31.6641ZM42.625 204L39.6641 195.781H41.4609L43.5234 202.352H43.5625L45.625 195.781H47.3828L44.4375 204H42.625ZM51.5703 204.164C49.2109 204.164 47.6719 202.531 47.6719 199.891V199.875C47.6719 197.25 49.2266 195.625 51.5625 195.625C53.9062 195.625 55.4688 197.242 55.4688 199.875V199.891C55.4688 202.539 53.9219 204.164 51.5703 204.164ZM51.5781 202.75C52.8984 202.75 53.7422 201.703 53.7422 199.891V199.875C53.7422 198.078 52.8828 197.039 51.5625 197.039C50.2656 197.039 49.3984 198.078 49.3984 199.875V199.891C49.3984 201.711 50.2578 202.75 51.5781 202.75ZM57.6875 194.516C57.1406 194.516 56.7031 194.078 56.7031 193.547C56.7031 193.008 57.1406 192.57 57.6875 192.57C58.2422 192.57 58.6719 193.008 58.6719 193.547C58.6719 194.078 58.2422 194.516 57.6875 194.516ZM56.8438 204V195.781H58.5312V204H56.8438ZM63.8047 204.164C61.4062 204.164 59.9062 202.516 59.9062 199.883V199.875C59.9062 197.273 61.4375 195.625 63.7812 195.625C65.8984 195.625 67.1797 196.984 67.3203 198.531L67.3281 198.586H65.7188L65.7031 198.523C65.5234 197.719 64.8984 197.039 63.7969 197.039C62.4844 197.039 61.6328 198.133 61.6328 199.891V199.898C61.6328 201.695 62.5 202.75 63.8047 202.75C64.8438 202.75 65.5078 202.148 65.7109 201.258L65.7188 201.195H67.3438L67.3359 201.25C67.1562 202.898 65.7812 204.164 63.8047 204.164ZM72.0469 204.164C69.6328 204.164 68.1719 202.516 68.1719 199.922V199.914C68.1719 197.344 69.6562 195.625 71.9609 195.625C74.2656 195.625 75.6797 197.281 75.6797 199.75V200.32H69.8594C69.8906 201.875 70.7422 202.781 72.0859 202.781C73.0859 202.781 73.75 202.266 73.9609 201.648L73.9844 201.586H75.5859L75.5703 201.672C75.3047 202.977 74.0391 204.164 72.0469 204.164ZM71.9688 197.008C70.875 197.008 70.0312 197.75 69.8828 199.125H74.0078C73.8672 197.703 73.0703 197.008 71.9688 197.008ZM75.8438 206.305V204.781H84.5547V206.305H75.8438ZM88.0859 204V194.461H88.0469L85.1016 196.492V194.836L88.0703 192.727H89.7969V204H88.0859ZM92.5469 204V202.797L96.5156 198.805C98.0156 197.305 98.3516 196.711 98.3516 195.836V195.82C98.3438 194.75 97.5312 193.984 96.3906 193.984C95.0703 193.984 94.125 194.875 94.1094 196.016V196.062H92.4531V196.016C92.4531 194 94.1641 192.539 96.3672 192.539C98.5312 192.539 100.078 193.898 100.078 195.719V195.734C100.078 197.023 99.4766 197.938 97.4531 199.938L94.8906 202.453V202.523H100.258V204H92.5469ZM106.039 204.188C103.734 204.188 101.609 202.586 101.609 198.531V198.516C101.609 194.758 103.289 192.539 106.109 192.539C108.117 192.539 109.625 193.688 109.984 195.367L110.008 195.461H108.25L108.227 195.383C107.906 194.539 107.172 194.008 106.094 194.008C104.156 194.008 103.367 195.875 103.297 198.109C103.289 198.211 103.289 198.312 103.289 198.414H103.328C103.773 197.398 104.914 196.602 106.445 196.602C108.602 196.602 110.156 198.172 110.156 200.305V200.32C110.156 202.57 108.414 204.188 106.039 204.188ZM103.633 200.328C103.633 201.664 104.68 202.719 106.016 202.719C107.352 202.719 108.414 201.68 108.414 200.367V200.352C108.414 198.992 107.414 198.023 106.039 198.023C104.672 198.023 103.633 198.984 103.633 200.32V200.328ZM115.992 204.188C113.297 204.188 111.688 201.945 111.688 198.367V198.352C111.688 194.773 113.297 192.539 115.992 192.539C118.68 192.539 120.297 194.773 120.297 198.352V198.367C120.297 201.945 118.68 204.188 115.992 204.188ZM115.992 202.727C117.594 202.727 118.531 201.07 118.531 198.367V198.352C118.531 195.648 117.594 194.008 115.992 194.008C114.383 194.008 113.453 195.648 113.453 198.352V198.367C113.453 201.07 114.383 202.727 115.992 202.727ZM122.438 204.117C121.859 204.117 121.406 203.664 121.406 203.094C121.406 202.516 121.859 202.07 122.438 202.07C123.008 202.07 123.461 202.516 123.461 203.094C123.461 203.664 123.008 204.117 122.438 204.117ZM125.07 206.734V195.781H126.758V197.195H126.797C127.289 196.219 128.195 195.625 129.367 195.625C131.461 195.625 132.805 197.266 132.805 199.891V199.898C132.805 202.516 131.453 204.164 129.391 204.164C128.227 204.164 127.281 203.57 126.797 202.617H126.758V206.734H125.07ZM128.93 202.711C130.258 202.711 131.086 201.633 131.086 199.898V199.891C131.086 198.141 130.25 197.07 128.93 197.07C127.648 197.07 126.75 198.18 126.75 199.891V199.898C126.75 201.602 127.656 202.711 128.93 202.711ZM137.188 204.164C135.094 204.164 133.75 202.508 133.75 199.891V199.883C133.75 197.266 135.109 195.625 137.172 195.625C138.336 195.625 139.273 196.211 139.766 197.18H139.797V192.727H141.492V204H139.797V202.609H139.766C139.273 203.57 138.367 204.164 137.188 204.164ZM137.633 202.711C138.906 202.711 139.805 201.602 139.805 199.891V199.883C139.805 198.18 138.898 197.07 137.633 197.07C136.305 197.07 135.477 198.148 135.477 199.883V199.891C135.477 201.641 136.297 202.711 137.633 202.711ZM143.719 204V197.125H142.586V195.781H143.719V194.906C143.719 193.312 144.469 192.562 146.141 192.562C146.484 192.562 146.859 192.594 147.086 192.633V193.883C146.922 193.859 146.711 193.844 146.5 193.844C145.742 193.844 145.383 194.211 145.383 194.938V195.781H147.055V197.125H145.414V204H143.719Z" fill="white"/>
<g filter="url(#filter0_d_8121_14500)">
<path d="M23.9998 9.15093C24.4798 8.97093 25.4298 9.08093 25.6798 9.62093C25.9298 10.1609 26.0798 10.8609 26.0898 10.6909C26.0706 10.1742 26.1143 9.65711 26.2198 9.15093C26.3309 8.82674 26.5856 8.57208 26.9098 8.46093C27.2071 8.3669 27.5228 8.34631 27.8298 8.40093C28.1402 8.46483 28.4151 8.64335 28.5998 8.90093C28.8337 9.48406 28.9657 10.1031 28.9898 10.7309C29.0147 10.1952 29.1053 9.66453 29.2598 9.15093C29.4269 8.91548 29.6709 8.74572 29.9498 8.67093C30.2804 8.61048 30.6192 8.61048 30.9498 8.67093C31.2212 8.76099 31.4585 8.93198 31.6298 9.16093C31.8422 9.69108 31.9704 10.2512 32.0098 10.8209C32.0098 10.9609 32.0798 10.4309 32.2998 10.0809C32.4765 9.55626 33.0451 9.2742 33.5698 9.45093C34.0945 9.62766 34.3765 10.1963 34.1998 10.7209C34.1998 11.3709 34.1998 11.3409 34.1998 11.7809C34.1998 12.2209 34.1998 12.6109 34.1998 12.9809C34.1638 13.5661 34.0835 14.1478 33.9598 14.7209C33.7862 15.2282 33.544 15.7094 33.2398 16.1509C32.7544 16.691 32.3532 17.3012 32.0498 17.9609C31.9758 18.2889 31.9422 18.6248 31.9498 18.9609C31.9488 19.2716 31.9891 19.5809 32.0698 19.8809C31.6609 19.9246 31.2486 19.9246 30.8398 19.8809C30.4498 19.8209 29.9698 19.0409 29.8398 18.8009C29.7755 18.6721 29.6438 18.5906 29.4998 18.5906C29.3558 18.5906 29.2241 18.6721 29.1598 18.8009C28.9398 19.1809 28.4498 19.8709 28.1598 19.9109C27.4898 19.9909 26.0998 19.9109 25.0198 19.9109C25.0198 19.9109 25.2098 18.9109 24.7898 18.5509C24.3698 18.1909 23.9598 17.7709 23.6498 17.4909L22.8198 16.5709C22.2345 16.0276 21.8062 15.3368 21.5798 14.5709C21.3698 13.6309 21.3898 13.1809 21.5798 12.8009C21.7736 12.4871 22.0762 12.2557 22.4298 12.1509C22.7236 12.0976 23.026 12.1183 23.3098 12.2109C23.506 12.2931 23.6757 12.4281 23.7998 12.6009C24.0298 12.9109 24.1098 13.0609 24.0098 12.7209C23.9098 12.3809 23.6898 12.1309 23.5798 11.7209C23.3656 11.2367 23.2371 10.7191 23.1998 10.1909C23.2408 9.71709 23.5716 9.31849 24.0298 9.19093" fill="white"/>
<path d="M26.7969 8.10254C27.1518 7.99029 27.5288 7.96614 27.9053 8.0332C28.3081 8.11612 28.6654 8.34765 28.9482 8.76074C28.9641 8.80015 28.9792 8.84018 28.9941 8.87988C29.21 8.60119 29.5133 8.39965 29.8828 8.30176C30.2579 8.2332 30.6426 8.2329 31.0684 8.31445C31.4123 8.42864 31.7135 8.64519 31.9785 9.02051C32.0485 9.19529 32.1093 9.37369 32.1621 9.55469C32.5115 9.10534 33.1195 8.90289 33.6895 9.09473C34.3894 9.3305 34.7756 10.0745 34.5752 10.7773V11.7803C34.5752 12.4153 34.5749 12.4159 34.5742 13.0039C34.537 13.6079 34.4539 14.2081 34.3145 14.8418C34.1298 15.3815 33.8721 15.8937 33.5186 16.4014C33.0585 16.9133 32.6785 17.4918 32.416 18.043C32.3487 18.3411 32.3182 18.6467 32.3252 18.9619C32.3243 19.2392 32.3597 19.5154 32.4316 19.7832C32.4915 20.0057 32.3384 20.2285 32.1094 20.2529C31.6743 20.2994 31.2355 20.2997 30.7832 20.251C30.3027 20.1771 29.8542 19.6131 29.5049 18.9678C29.1026 19.6487 28.625 20.2252 28.2041 20.2832C27.806 20.3307 27.3524 20.3299 26.1562 20.3027C26.0998 20.3015 26.0996 20.3021 26.043 20.3008C25.5718 20.2902 25.294 20.2852 25.0195 20.2852C24.7847 20.2849 24.6078 20.0716 24.6514 19.8408C24.6552 19.8209 24.662 19.7783 24.6689 19.7197C24.6893 19.5472 24.695 19.3675 24.6777 19.207C24.6572 19.0169 24.607 18.8873 24.5459 18.835C24.425 18.7313 24.2992 18.6188 24.1611 18.4902C24.0551 18.3914 23.5212 17.8794 23.3711 17.7412L22.5645 16.8457C21.9298 16.2566 21.4657 15.5072 21.2139 14.6523C20.9945 13.6704 20.9994 13.1229 21.2607 12.6035C21.503 12.2113 21.8816 11.9217 22.3633 11.7812C22.638 11.7315 22.919 11.7349 23.2041 11.7959C22.9922 11.2941 22.8642 10.7587 22.8252 10.1748C22.8522 9.5396 23.273 8.98912 23.8779 8.7959C24.4984 8.56832 25.3872 8.71289 25.833 9.18848C25.8431 9.13581 25.8539 9.0825 25.8652 9.0293C26.0139 8.59559 26.3546 8.25405 26.7969 8.10254ZM27.7646 8.76953C27.5173 8.72553 27.2623 8.74249 27.0312 8.81543C26.8169 8.88906 26.6482 9.05722 26.5869 9.22656C26.4876 9.70304 26.4462 10.1906 26.4639 10.7129C26.4616 10.7497 26.4622 10.7501 26.4463 10.8193C26.4148 10.9531 26.4142 10.9532 26.0605 11.0908C25.838 11.078 25.7204 10.902 25.7227 10.8438C25.702 10.7973 25.684 10.7438 25.6484 10.6318C25.5276 10.2514 25.508 10.1923 25.4395 10.0146C25.4063 9.92879 25.373 9.84999 25.3398 9.77832C25.2119 9.50197 24.5317 9.35203 24.1318 9.50195C23.8034 9.60488 23.5885 9.88378 23.5742 10.1641C23.6084 10.6489 23.7266 11.124 23.9424 11.623C23.9789 11.759 24.0276 11.873 24.1211 12.0537C24.1597 12.1277 24.1599 12.128 24.2002 12.2061C24.2788 12.3604 24.3307 12.4802 24.3701 12.6143C24.4026 12.7247 24.4187 12.7911 24.4248 12.8506C24.4608 13.2028 24.0624 13.4475 23.7734 13.1787C23.7323 13.1404 23.7019 13.102 23.6416 13.0195C23.5778 12.9314 23.5366 12.8753 23.4951 12.8193C23.4115 12.7029 23.2972 12.6122 23.1934 12.5674C22.9687 12.494 22.7291 12.477 22.5361 12.5098C22.2711 12.5884 22.044 12.7619 21.915 12.9678C21.7639 13.2701 21.7606 13.6593 21.9395 14.4639C22.1468 15.1652 22.5393 15.7982 23.0986 16.3193L23.9014 17.2119C24.0343 17.332 24.5744 17.8498 24.6729 17.9414C24.8039 18.0634 24.9219 18.1694 25.0342 18.2656C25.2689 18.4668 25.3848 18.7651 25.4238 19.127C25.4384 19.2624 25.4412 19.4013 25.4355 19.5391C25.608 19.5415 25.8062 19.5451 26.0596 19.5508C26.1166 19.5521 26.1169 19.5524 26.1738 19.5537C27.3212 19.5798 27.769 19.5795 28.1084 19.5391C28.1826 19.5288 28.5888 19.0381 28.8242 18.6328C28.952 18.3768 29.2139 18.2148 29.5 18.2148C29.7862 18.2149 30.0479 18.3772 30.1699 18.6221C30.3863 19.0214 30.7579 19.4886 30.8799 19.5078C31.1245 19.5339 31.3706 19.5434 31.6162 19.5361C31.5882 19.3468 31.5745 19.1562 31.5752 18.9688C31.5669 18.602 31.6032 18.2356 31.709 17.8037C32.0281 17.1097 32.4509 16.4677 32.9316 15.9375C33.2162 15.5243 33.4431 15.0741 33.5938 14.6416C33.7135 14.087 33.791 13.5238 33.8252 12.9805V10.7207L33.8447 10.6006C33.9552 10.2722 33.7785 9.91626 33.4502 9.80566C33.1218 9.69513 32.7657 9.87207 32.6172 10.2803C32.5859 10.3301 32.5554 10.3914 32.5264 10.4619C32.4818 10.5699 32.4475 10.68 32.4102 10.8213C32.3932 10.8872 32.3832 10.9239 32.374 10.9512C32.3667 10.9736 32.3666 10.9738 32.3408 11.0264C32.2802 11.1883 32.2803 11.1887 31.7334 11.0938C31.6218 10.8428 31.6214 10.8429 31.6357 10.8467C31.599 10.3159 31.4801 9.79343 31.3301 9.38477C31.2047 9.21723 31.0308 9.09206 30.8828 9.03906C30.5968 8.98677 30.3032 8.98662 30.0469 9.03223C29.8708 9.07947 29.7151 9.18164 29.6006 9.32227C29.4664 9.78653 29.3867 10.2652 29.3643 10.748C29.3418 11.2264 28.6339 11.2237 28.6152 10.7451C28.5928 10.1603 28.4696 9.58349 28.2949 9.11914C28.1653 8.93832 27.9726 8.81257 27.7646 8.76953Z" fill="black"/>
<path d="M31.75 16.8259V13.3741C31.75 13.1675 31.5821 13 31.375 13C31.1679 13 31 13.1675 31 13.3741V16.8259C31 17.0325 31.1679 17.2 31.375 17.2C31.5821 17.2 31.75 17.0325 31.75 16.8259Z" fill="black"/>
<path d="M29.77 16.8246L29.75 13.3711C29.7488 13.1649 29.5799 12.9988 29.3728 13C29.1657 13.0012 28.9988 13.1693 29 13.3754L29.02 16.8289C29.0212 17.035 29.1901 17.2012 29.3972 17.2C29.6043 17.1988 29.7712 17.0307 29.77 16.8246Z" fill="black"/>
<path d="M27 13.3799L27.02 16.8245C27.0212 17.0331 27.1901 17.2012 27.3972 17.2C27.6043 17.1988 27.7712 17.0287 27.77 16.8201L27.75 13.3755C27.7488 13.1669 27.5799 12.9988 27.3728 13C27.1657 13.0012 26.9988 13.1713 27 13.3799Z" fill="black"/>
</g>
<defs>
<filter id="filter0_d_8121_14500" x="20.2566" y="7.99609" width="15.1713" height="14.1252" filterUnits="userSpaceOnUse" color-interpolation-filters="sRGB">
<feFlood flood-opacity="0" result="BackgroundImageFix"/>
<feColorMatrix in="SourceAlpha" type="matrix" values="0 0 0 0 0 0 0 0 0 0 0 0 0 0 0 0 0 0 127 0" result="hardAlpha"/>
<feOffset dy="1"/>
<feGaussianBlur stdDeviation="0.4"/>
<feColorMatrix type="matrix" values="0 0 0 0 0 0 0 0 0 0 0 0 0 0 0 0 0 0 0.5 0"/>
<feBlend mode="normal" in2="BackgroundImageFix" result="effect1_dropShadow_8121_14500"/>
<feBlend mode="normal" in="SourceGraphic" in2="effect1_dropShadow_8121_14500" result="shape"/>
</filter>
<clipPath id="clip0_8121_14500">
<rect width="16" height="16" fill="white" transform="translate(3 16.5)"/>
</clipPath>
<clipPath id="clip1_8121_14500">
<rect width="16" height="16" fill="white" transform="translate(3 45.5)"/>
</clipPath>
<clipPath id="clip2_8121_14500">
<rect width="16" height="16" fill="white" transform="translate(3 74.5)"/>
</clipPath>
<clipPath id="clip3_8121_14500">
<rect width="16" height="16" fill="white" transform="translate(3 103.5)"/>
</clipPath>
<clipPath id="clip4_8121_14500">
<rect width="16" height="16" fill="white" transform="translate(3 132.5)"/>
</clipPath>
<clipPath id="clip5_8121_14500">
<rect width="16" height="16" fill="white" transform="translate(3 161.5)"/>
</clipPath>
<clipPath id="clip6_8121_14500">
<rect width="16" height="16" fill="white" transform="translate(3 190.5)"/>
</clipPath>
</defs>
</svg>
