<svg width="178" height="40" viewBox="0 0 178 40" fill="none" xmlns="http://www.w3.org/2000/svg">
<path d="M21.596 2.95947H12.453C6.08756 2.95947 1.78223 7.26005 1.78223 13.6184V36.4624C1.78223 37.1098 2.15258 37.4797 2.80069 37.4797H7.86987C8.51799 37.4797 8.88834 37.1098 8.88834 36.4624V26.9595H21.596C22.2441 26.9595 22.6145 26.5895 22.6145 25.9421V21.0866C22.6145 20.4392 22.2441 20.0693 21.596 20.0693H8.86519V13.4566C8.86519 11.3294 10.3003 9.91901 12.4067 9.91901H21.5729C22.221 9.91901 22.5913 9.54907 22.5913 8.90167V3.99993C22.6145 3.32941 22.2441 2.95947 21.596 2.95947Z" fill="white"/>
<path d="M39.0951 9.06348C30.6927 9.06348 24.6514 15.4219 24.6514 23.5606C24.6514 31.6993 30.7159 38.0577 39.0951 38.0577C47.4743 38.0577 53.5388 31.6993 53.5388 23.5606C53.5388 15.4219 47.4974 9.06348 39.0951 9.06348ZM39.0951 31.2369C34.7897 31.2369 31.5955 28.023 31.5955 23.5606C31.5955 19.0982 34.7434 15.8843 39.0951 15.8843C43.4467 15.8843 46.5947 19.0982 46.5947 23.5606C46.5947 28.023 43.4467 31.2369 39.0951 31.2369Z" fill="white"/>
<path d="M88.1434 9.5722H79.4865V2.95948C79.4865 2.31208 79.1161 1.94214 78.468 1.94214H73.3757C72.7276 1.94214 72.3572 2.31208 72.3572 2.95948V9.5722H66.2464C59.9273 9.5722 55.5757 13.8728 55.5757 20.2312V36.4855C55.5757 37.1329 55.946 37.5028 56.5941 37.5028H61.6633C62.3114 37.5028 62.6818 37.1329 62.6818 36.4855V20.0231C62.6818 17.8959 64.1169 16.4855 66.2233 16.4855H72.3341V26.8439C72.3341 33.2023 76.6394 37.5028 83.0048 37.5028H88.074C88.7221 37.5028 89.0925 37.1329 89.0925 36.4855V31.63C89.0925 30.9826 88.7221 30.6127 88.074 30.6127H83.028C80.8984 30.6127 79.4865 29.1791 79.4865 27.0751V16.4855H88.1434C88.7915 16.4855 89.1619 16.1155 89.1619 15.4681V10.6127C89.1619 9.8959 88.7915 9.5722 88.1434 9.5722Z" fill="white"/>
<path d="M103.93 9.06348C96.2451 9.06348 91.2222 13.9883 91.2222 21.5028V36.5317C91.2222 37.1791 91.5925 37.549 92.2406 37.549H97.3098C97.9579 37.549 98.3283 37.1791 98.3283 36.5317V21.5259C98.3283 18.1271 100.55 15.9305 103.93 15.9768C107.286 15.9305 109.531 18.1039 109.531 21.5259V36.5317C109.531 37.1791 109.902 37.549 110.55 37.549H115.619C116.267 37.549 116.638 37.1791 116.638 36.5317V21.5259C116.661 13.9883 111.615 9.06348 103.93 9.06348Z" fill="white"/>
<path d="M133.141 9.06348C124.739 9.06348 118.697 15.4219 118.697 23.5606C118.697 31.6993 124.762 38.0577 133.141 38.0577C141.543 38.0577 147.585 31.6993 147.585 23.5606C147.585 15.4219 141.497 9.06348 133.141 9.06348ZM133.141 31.2369C128.836 31.2369 125.641 28.023 125.641 23.5606C125.641 19.0982 128.789 15.8843 133.141 15.8843C137.446 15.8843 140.641 19.0982 140.641 23.5606C140.641 28.023 137.446 31.2369 133.141 31.2369Z" fill="white"/>
<path d="M166.751 23.4912L175.732 14.5201C176.218 14.0345 176.218 13.5721 175.732 13.0865L172.213 9.54898C171.727 9.06343 171.264 9.06343 170.778 9.54898L161.797 18.5201L152.816 9.54898C152.33 9.06343 151.867 9.06343 151.381 9.54898L147.839 13.0865C147.353 13.5721 147.353 14.0345 147.839 14.5201L156.82 23.4912L147.747 32.4623C147.261 32.9478 147.261 33.4102 147.747 33.8958L151.288 37.4334C151.774 37.9189 152.237 37.9189 152.723 37.4334L161.704 28.4623L170.686 37.4334C171.172 37.9189 171.635 37.9189 172.121 37.4334L175.662 33.8958C176.148 33.4102 176.148 32.9478 175.662 32.4623L166.751 23.4912Z" fill="white"/>
</svg>
