<svg width="178" height="40" viewBox="0 0 178 40" fill="none" xmlns="http://www.w3.org/2000/svg">
<path d="M21.596 2.95996H12.453C6.08756 2.95996 1.78223 7.26054 1.78223 13.6189V36.4629C1.78223 37.1102 2.15258 37.4802 2.80069 37.4802H7.86987C8.51799 37.4802 8.88834 37.1102 8.88834 36.4629V26.96H21.596C22.2441 26.96 22.6145 26.59 22.6145 25.9426V21.0871C22.6145 20.4397 22.2441 20.0698 21.596 20.0698H8.86519V13.4571C8.86519 11.3299 10.3003 9.9195 12.4067 9.9195H21.5729C22.221 9.9195 22.5913 9.54956 22.5913 8.90216V4.00042C22.6145 3.3299 22.2441 2.95996 21.596 2.95996Z" fill="black"/>
<path d="M39.0951 9.06396C30.6927 9.06396 24.6514 15.4223 24.6514 23.5611C24.6514 31.6998 30.7159 38.0582 39.0951 38.0582C47.4743 38.0582 53.5388 31.6998 53.5388 23.5611C53.5388 15.4223 47.4974 9.06396 39.0951 9.06396ZM39.0951 31.2374C34.7897 31.2374 31.5955 28.0235 31.5955 23.5611C31.5955 19.0986 34.7434 15.8848 39.0951 15.8848C43.4467 15.8848 46.5947 19.0986 46.5947 23.5611C46.5947 28.0235 43.4467 31.2374 39.0951 31.2374Z" fill="black"/>
<path d="M88.1434 9.57244H79.4865V2.95972C79.4865 2.31233 79.1161 1.94238 78.468 1.94238H73.3757C72.7276 1.94238 72.3572 2.31233 72.3572 2.95972V9.57244H66.2464C59.9273 9.57244 55.5757 13.873 55.5757 20.2314V36.4857C55.5757 37.1331 55.946 37.5031 56.5941 37.5031H61.6633C62.3114 37.5031 62.6818 37.1331 62.6818 36.4857V20.0233C62.6818 17.8961 64.1169 16.4857 66.2233 16.4857H72.3341V26.8441C72.3341 33.2025 76.6394 37.5031 83.0048 37.5031H88.074C88.7221 37.5031 89.0925 37.1331 89.0925 36.4857V31.6302C89.0925 30.9828 88.7221 30.6129 88.074 30.6129H83.028C80.8984 30.6129 79.4865 29.1794 79.4865 27.0753V16.4857H88.1434C88.7915 16.4857 89.1619 16.1158 89.1619 15.4684V10.6129C89.1619 9.89614 88.7915 9.57244 88.1434 9.57244Z" fill="black"/>
<path d="M103.93 9.06396C96.2451 9.06396 91.2222 13.9888 91.2222 21.5033V36.5322C91.2222 37.1796 91.5925 37.5495 92.2406 37.5495H97.3098C97.9579 37.5495 98.3283 37.1796 98.3283 36.5322V21.5264C98.3283 18.1275 100.55 15.931 103.93 15.9773C107.286 15.931 109.531 18.1044 109.531 21.5264V36.5322C109.531 37.1796 109.902 37.5495 110.55 37.5495H115.619C116.267 37.5495 116.638 37.1796 116.638 36.5322V21.5264C116.661 13.9888 111.615 9.06396 103.93 9.06396Z" fill="black"/>
<path d="M133.141 9.06396C124.739 9.06396 118.697 15.4223 118.697 23.5611C118.697 31.6998 124.762 38.0582 133.141 38.0582C141.543 38.0582 147.585 31.6998 147.585 23.5611C147.585 15.4223 141.497 9.06396 133.141 9.06396ZM133.141 31.2374C128.836 31.2374 125.641 28.0235 125.641 23.5611C125.641 19.0986 128.789 15.8848 133.141 15.8848C137.446 15.8848 140.641 19.0986 140.641 23.5611C140.641 28.0235 137.446 31.2374 133.141 31.2374Z" fill="black"/>
<path d="M166.751 23.4914L175.732 14.5203C176.218 14.0348 176.218 13.5723 175.732 13.0868L172.213 9.54922C171.727 9.06367 171.264 9.06367 170.778 9.54922L161.797 18.5203L152.816 9.54922C152.33 9.06367 151.867 9.06367 151.381 9.54922L147.839 13.0868C147.353 13.5723 147.353 14.0348 147.839 14.5203L156.82 23.4914L147.747 32.4625C147.261 32.9481 147.261 33.4105 147.747 33.896L151.288 37.4336C151.774 37.9192 152.237 37.9192 152.723 37.4336L161.704 28.4625L170.686 37.4336C171.172 37.9192 171.635 37.9192 172.121 37.4336L175.662 33.896C176.148 33.4105 176.148 32.9481 175.662 32.4625L166.751 23.4914Z" fill="black"/>
</svg>
