<svg width="112" height="100" viewBox="0 0 112 100" fill="none" xmlns="http://www.w3.org/2000/svg">
<g clip-path="url(#clip0_7968_4475)">
<path d="M8.46735 85.7051L13.4066 94.2308C14.433 96.0257 15.9084 97.4359 17.6403 98.4616L35.2806 67.9487H0C0 69.9359 0.513173 71.9231 1.53952 73.718L8.46735 85.7051Z" fill="#0066DA"/>
<path d="M56 32.0514L38.3597 1.53857C36.6277 2.56422 35.1523 3.97447 34.126 5.76934L1.53952 62.1796C0.532049 63.9358 0.00134139 65.9246 0 67.9488H35.2806L56 32.0514Z" fill="#00AC47"/>
<path d="M94.3597 98.4616C96.0916 97.4359 97.567 96.0257 98.5934 94.2308L100.646 90.7051L110.46 73.718C111.487 71.9231 112 69.9359 112 67.9487H76.7168L84.2245 82.6923L94.3597 98.4616Z" fill="#EA4335"/>
<path d="M55.9999 32.0513L73.6403 1.53846C71.9083 0.512821 69.9198 0 67.8671 0H44.1328C42.0801 0 40.0916 0.576923 38.3596 1.53846L55.9999 32.0513Z" fill="#00832D"/>
<path d="M76.7194 67.9487H35.2807L17.6404 98.4616C19.3723 99.4872 21.3609 100 23.4136 100H88.5865C90.6392 100 92.6278 99.4231 94.3597 98.4616L76.7194 67.9487Z" fill="#2684FC"/>
<path d="M94.1672 33.9745L77.874 5.76934C76.8477 3.97447 75.3723 2.56422 73.6403 1.53857L56 32.0514L76.7194 67.9488H111.936C111.936 65.9617 111.423 63.9745 110.396 62.1796L94.1672 33.9745Z" fill="#FFBA00"/>
</g>
<defs>
<clipPath id="clip0_7968_4475">
<rect width="112" height="100" fill="white"/>
</clipPath>
</defs>
</svg>
