<svg width="210" height="78" viewBox="0 0 210 78" fill="none" xmlns="http://www.w3.org/2000/svg">
<mask id="path-1-inside-1_8180_35079" fill="white">
<path d="M93.3662 0.765625C102.971 -0.967324 112.183 0.153585 120.454 5.74316C125.872 9.29402 129.751 14.1876 132.314 20.083C132.93 20.9834 132.519 21.4764 131.289 21.7822C124.846 23.4132 120.454 24.636 114.113 26.25C112.575 26.6577 112.473 26.7595 111.14 25.2305C109.602 23.4977 108.474 22.3933 106.338 21.374C99.895 18.2309 93.6567 19.1316 87.8291 22.9033C80.8737 27.3716 77.3018 33.9808 77.4043 42.2207C77.5069 50.3586 83.1296 57.0524 91.2129 58.1738C98.1685 59.0913 103.997 56.6448 108.594 51.4629C109.517 50.3416 110.337 49.1181 111.362 47.708H91.623C89.4701 47.7079 88.9571 46.3828 89.6748 44.667C91.0078 41.5239 93.4521 36.2233 94.8877 33.5898C95.1953 32.9782 95.9131 31.959 97.4512 31.959H130.345C131.825 27.3047 134.222 22.9047 137.422 18.7393C144.89 8.98713 153.88 3.90731 166.048 1.7666C176.472 -0.0682346 186.299 0.951166 195.186 6.94824C203.269 12.4359 208.276 19.8612 209.609 29.6133C211.352 43.3409 207.353 54.5202 197.852 64.0684C191.101 70.8811 182.829 75.1452 173.311 77.082C170.542 77.5917 167.791 77.6942 165.125 78C155.828 77.7961 147.334 75.1457 140.174 69.0635C135.146 64.745 131.687 59.4348 129.961 53.252C128.766 55.6487 127.337 57.9445 125.666 60.1279C118.3 69.7779 108.696 75.7752 96.5283 77.4062C86.5137 78.7315 77.1992 76.7946 69.0303 70.6953C61.4596 65.0038 57.1699 57.4771 56.042 48.1328C54.7091 37.0556 57.9908 27.0993 64.7412 18.3496C72.0043 8.90355 81.6087 2.90637 93.3662 0.765625ZM189.153 33.5889C187.308 23.5309 178.01 17.8388 168.286 20.0645C158.784 22.2052 152.649 28.2029 150.394 37.751C148.548 45.6852 152.444 53.7048 159.793 56.9668C165.415 59.4132 171.038 59.1067 176.455 56.3545C184.556 52.175 188.948 45.6683 189.461 36.9355C189.358 35.6105 189.358 34.5912 189.153 33.5889ZM47.7705 38.5508C48.1803 38.551 48.3848 38.8571 48.3848 39.2646L48.1807 41.7109C48.1806 42.1187 47.7695 42.4248 47.4619 42.4248L25.1602 42.3223C24.75 42.3223 24.6475 42.0167 24.8525 41.7109L26.2881 39.1621C26.4932 38.8564 26.9034 38.5508 27.3135 38.5508H47.7705ZM50.0049 29.2051C50.4149 29.2051 50.6199 29.5107 50.5176 29.8164L49.6973 32.2637C49.5946 32.6711 49.1844 32.875 48.7744 32.875L0.410156 32.9766C-2.37197e-10 32.9766 -0.102539 32.7726 0.102539 32.4668L2.25586 29.7148C2.46094 29.409 2.97363 29.2051 3.38379 29.2051H50.0049ZM55.3174 19.8438C55.7274 19.8438 55.8299 20.1493 55.625 20.4551L53.8818 23.1055C53.6768 23.4113 53.1641 23.7178 52.8564 23.7178L15.8398 23.6152C15.4297 23.6152 15.3271 23.4113 15.5322 23.1055L17.6855 20.3535C17.8906 20.0477 18.4033 19.8438 18.8135 19.8438H55.3174Z"/>
</mask>
<path d="M93.3662 0.765625L93.1886 -0.218485L93.1871 -0.2182L93.3662 0.765625ZM120.454 5.74316L119.894 6.5718L119.906 6.57952L120.454 5.74316ZM132.314 20.083L131.397 20.4818L131.435 20.5688L131.489 20.6471L132.314 20.083ZM131.289 21.7822L131.048 20.8117L131.044 20.8128L131.289 21.7822ZM114.113 26.25L113.867 25.2809L113.857 25.2834L114.113 26.25ZM111.14 25.2305L111.893 24.5733L111.888 24.5667L111.14 25.2305ZM106.338 21.374L105.899 22.2728L105.907 22.2765L106.338 21.374ZM87.8291 22.9033L88.3696 23.7447L88.3724 23.7428L87.8291 22.9033ZM77.4043 42.2207L76.4044 42.2331L76.4044 42.2333L77.4043 42.2207ZM91.2129 58.1738L91.0755 59.1644L91.0821 59.1652L91.2129 58.1738ZM108.594 51.4629L109.342 52.1265L109.354 52.1127L109.366 52.0983L108.594 51.4629ZM111.362 47.708L112.171 48.2961L113.326 46.708H111.362V47.708ZM91.623 47.708L91.623 48.708H91.623V47.708ZM89.6748 44.667L88.7542 44.2765L88.7523 44.2811L89.6748 44.667ZM94.8877 33.5898L95.7657 34.0685L95.7736 34.0539L95.7811 34.0392L94.8877 33.5898ZM130.345 31.959V32.959H131.076L131.298 32.262L130.345 31.959ZM137.422 18.7393L138.215 19.3484L138.216 19.3473L137.422 18.7393ZM166.048 1.7666L166.221 2.75148L166.221 2.75146L166.048 1.7666ZM195.186 6.94824L195.747 6.12088L195.745 6.11933L195.186 6.94824ZM209.609 29.6133L210.601 29.4873L210.6 29.4779L209.609 29.6133ZM197.852 64.0684L197.143 63.363L197.141 63.3645L197.852 64.0684ZM173.311 77.082L173.492 78.0655L173.501 78.0638L173.51 78.062L173.311 77.082ZM165.125 78L165.103 78.9998L165.171 79.0013L165.239 78.9935L165.125 78ZM140.174 69.0635L139.522 69.8221L139.526 69.8256L140.174 69.0635ZM129.961 53.252L130.924 52.9831L130.225 50.4803L129.066 52.8057L129.961 53.252ZM125.666 60.1279L124.872 59.5202L124.871 59.5212L125.666 60.1279ZM96.5283 77.4062L96.6595 78.3976L96.6612 78.3974L96.5283 77.4062ZM69.0303 70.6953L68.4294 71.4946L68.432 71.4966L69.0303 70.6953ZM56.042 48.1328L55.0492 48.2523L55.0492 48.2526L56.042 48.1328ZM64.7412 18.3496L65.533 18.9605L65.534 18.9592L64.7412 18.3496ZM189.153 33.5889L188.17 33.7694L188.172 33.7793L188.174 33.7893L189.153 33.5889ZM168.286 20.0645L168.506 21.04L168.509 21.0392L168.286 20.0645ZM150.394 37.751L149.42 37.521L149.42 37.5244L150.394 37.751ZM159.793 56.9668L159.387 57.8808L159.394 57.8838L159.793 56.9668ZM176.455 56.3545L176.908 57.2461L176.914 57.2432L176.455 56.3545ZM189.461 36.9355L190.459 36.9942L190.463 36.9262L190.458 36.8584L189.461 36.9355ZM47.7705 38.5508L47.7711 37.5508H47.7705V38.5508ZM48.3848 39.2646L49.3813 39.3478L49.3848 39.3063V39.2646H48.3848ZM48.1807 41.7109L47.1841 41.6278L47.1807 41.6692L47.1807 41.7108L48.1807 41.7109ZM47.4619 42.4248L47.4573 43.4248H47.4619V42.4248ZM25.1602 42.3223L25.1648 41.3223L25.1602 41.3223L25.1602 42.3223ZM24.8525 41.7109L25.6831 42.2678L25.7048 42.2355L25.7238 42.2017L24.8525 41.7109ZM26.2881 39.1621L25.4577 38.605L25.4359 38.6374L25.4168 38.6714L26.2881 39.1621ZM50.5176 29.8164L51.4657 30.1342L51.4659 30.1338L50.5176 29.8164ZM49.6973 32.2637L48.7491 31.9459L48.737 31.9821L48.7276 32.0192L49.6973 32.2637ZM48.7744 32.875L48.7744 31.875L48.7723 31.875L48.7744 32.875ZM0.410156 32.9766L0.410156 33.9766L0.412256 33.9766L0.410156 32.9766ZM0.102539 32.4668L-0.685019 31.8506L-0.707597 31.8794L-0.728003 31.9098L0.102539 32.4668ZM2.25586 29.7148L3.04342 30.3311L3.066 30.3022L3.0864 30.2718L2.25586 29.7148ZM3.38379 29.2051L3.38379 28.2051L3.38379 28.2051L3.38379 29.2051ZM55.3174 19.8438L55.3174 18.8438H55.3174V19.8438ZM55.625 20.4551L54.7943 19.8984L54.7895 19.9056L55.625 20.4551ZM53.8818 23.1055L54.7124 23.6624L54.7173 23.655L53.8818 23.1055ZM52.8564 23.7178L52.8537 24.7178L52.8564 24.7178L52.8564 23.7178ZM15.8398 23.6152L15.8426 22.6152L15.8398 22.6152L15.8398 23.6152ZM15.5322 23.1055L14.7447 22.4892L14.7221 22.5181L14.7017 22.5485L15.5322 23.1055ZM17.6855 20.3535L18.4731 20.9698L18.4957 20.9409L18.5161 20.9105L17.6855 20.3535ZM18.8135 19.8438L18.8135 18.8438H18.8135L18.8135 19.8438ZM93.3662 0.765625L93.5438 1.74973C102.953 0.0519755 111.886 1.15988 119.894 6.57172L120.454 5.74316L121.014 4.91461C112.48 -0.852706 102.988 -1.98662 93.1886 -0.218484L93.3662 0.765625ZM120.454 5.74316L119.906 6.57952C125.144 10.0127 128.903 14.746 131.397 20.4818L132.314 20.083L133.232 19.6843C130.599 13.6291 126.599 8.57531 121.002 4.90681L120.454 5.74316ZM132.314 20.083L131.489 20.6471C131.597 20.8054 131.603 20.8661 131.6 20.8455C131.597 20.8295 131.594 20.7914 131.604 20.7398C131.615 20.6871 131.635 20.6414 131.657 20.6078C131.696 20.5483 131.712 20.5664 131.599 20.6241C131.49 20.6798 131.314 20.7455 131.048 20.8118L131.289 21.7822L131.53 22.7527C131.879 22.666 132.216 22.5554 132.51 22.4045C132.801 22.2557 133.112 22.0369 133.33 21.7034C133.849 20.9115 133.524 20.0814 133.14 19.5189L132.314 20.083ZM131.289 21.7822L131.044 20.8128C127.817 21.6297 125.104 22.3442 122.408 23.0556C119.711 23.767 117.032 24.4751 113.867 25.2809L114.113 26.25L114.36 27.2191C117.535 26.4108 120.222 25.7006 122.918 24.9894C125.614 24.2781 128.318 23.5658 131.534 22.7516L131.289 21.7822ZM114.113 26.25L113.857 25.2834C113.441 25.3936 113.207 25.4592 113.016 25.4925C112.931 25.5073 112.883 25.51 112.858 25.5098C112.846 25.5097 112.84 25.5089 112.838 25.5086C112.836 25.5084 112.836 25.5083 112.836 25.5083C112.836 25.5083 112.836 25.5083 112.835 25.5082C112.835 25.5082 112.835 25.508 112.833 25.5075C112.832 25.507 112.83 25.5061 112.827 25.5046C112.82 25.5017 112.809 25.4959 112.792 25.4852C112.756 25.4629 112.701 25.4224 112.619 25.349C112.448 25.195 112.228 24.9569 111.893 24.5733L111.14 25.2305L110.386 25.8876C110.718 26.2686 111.01 26.5911 111.281 26.8353C111.558 27.0845 111.873 27.3081 112.264 27.4248C112.662 27.5436 113.033 27.5197 113.359 27.4629C113.661 27.4102 114.017 27.3102 114.37 27.2166L114.113 26.25ZM111.14 25.2305L111.888 24.5667C110.313 22.7931 109.081 21.5748 106.769 20.4715L106.338 21.374L105.907 22.2765C107.867 23.2119 108.89 24.2023 110.392 25.8943L111.14 25.2305ZM106.338 21.374L106.776 20.4753C99.9684 17.1541 93.3577 18.134 87.2858 22.0638L87.8291 22.9033L88.3724 23.7428C93.9558 20.1292 99.8216 19.3078 105.899 22.2728L106.338 21.374ZM87.8291 22.9033L87.2886 22.062C80.0449 26.7155 76.2975 33.6464 76.4044 42.2331L77.4043 42.2207L78.4042 42.2083C78.306 34.3152 81.7026 28.0277 88.3696 23.7447L87.8291 22.9033ZM77.4043 42.2207L76.4044 42.2333C76.5129 50.8414 82.4789 57.9717 91.0755 59.1643L91.2129 58.1738L91.3503 57.1833C83.7803 56.1331 78.5009 49.8758 78.4042 42.2081L77.4043 42.2207ZM91.2129 58.1738L91.0821 59.1652C98.3946 60.1298 104.543 57.5352 109.342 52.1265L108.594 51.4629L107.846 50.7992C103.45 55.7544 97.9424 58.0528 91.3437 57.1824L91.2129 58.1738ZM108.594 51.4629L109.366 52.0983C110.314 50.9465 111.176 49.6648 112.171 48.2961L111.362 47.708L110.554 47.1199C109.498 48.5714 108.719 49.7367 107.822 50.8274L108.594 51.4629ZM111.362 47.708V46.708H91.623V47.708V48.708H111.362V47.708ZM91.623 47.708L91.6231 46.708C90.7215 46.7079 90.4984 46.4371 90.4435 46.3398C90.359 46.1898 90.2869 45.7952 90.5974 45.0529L89.6748 44.667L88.7523 44.2811C88.345 45.2547 88.1706 46.3805 88.7013 47.3219C89.2618 48.3162 90.3716 48.7079 91.623 48.708L91.623 47.708ZM89.6748 44.667L90.5954 45.0574C91.9232 41.9267 94.3529 36.6602 95.7657 34.0685L94.8877 33.5898L94.0097 33.1112C92.5514 35.7863 90.0924 41.1211 88.7542 44.2765L89.6748 44.667ZM94.8877 33.5898L95.7811 34.0392C96.0172 33.5697 96.4689 32.959 97.4512 32.959V31.959V30.959C95.3573 30.959 94.3734 32.3868 93.9943 33.1405L94.8877 33.5898ZM97.4512 31.959V32.959H130.345V31.959V30.959H97.4512V31.959ZM130.345 31.959L131.298 32.262C132.738 27.7332 135.076 23.4351 138.215 19.3484L137.422 18.7393L136.629 18.1301C133.369 22.3742 130.911 26.8763 129.392 31.656L130.345 31.959ZM137.422 18.7393L138.216 19.3473C145.519 9.81129 154.278 4.85267 166.221 2.75148L166.048 1.7666L165.875 0.781727C153.482 2.96195 144.262 8.16298 136.628 18.1313L137.422 18.7393ZM166.048 1.7666L166.221 2.75146C176.469 0.94779 186.012 1.96408 194.626 7.77715L195.186 6.94824L195.745 6.11933C186.586 -0.0617449 176.476 -1.08426 165.875 0.781741L166.048 1.7666ZM195.186 6.94824L194.624 7.7756C202.495 13.1192 207.328 20.3035 208.619 29.7487L209.609 29.6133L210.6 29.4779C209.225 19.4188 204.043 11.7526 195.747 6.12088L195.186 6.94824ZM209.609 29.6133L208.617 29.7392C210.321 43.1549 206.431 54.029 197.143 63.363L197.852 64.0684L198.56 64.7737C208.276 55.0113 212.384 43.527 210.601 29.4873L209.609 29.6133ZM197.852 64.0684L197.141 63.3645C190.54 70.0263 182.451 74.2017 173.111 76.1021L173.311 77.082L173.51 78.062C183.208 76.0887 191.662 71.7359 198.562 64.7722L197.852 64.0684ZM173.311 77.082L173.13 76.0986C170.397 76.6016 167.787 76.6881 165.011 77.0065L165.125 78L165.239 78.9935C167.795 78.7003 170.687 78.5817 173.492 78.0655L173.311 77.082ZM165.125 78L165.147 77.0002C156.036 76.8004 147.776 74.209 140.821 68.3013L140.174 69.0635L139.526 69.8256C146.893 76.0825 155.62 78.7918 165.103 78.9998L165.125 78ZM140.174 69.0635L140.825 68.3049C135.94 64.1081 132.594 58.9651 130.924 52.9831L129.961 53.252L128.998 53.5208C130.78 59.9044 134.353 65.3819 139.522 69.8221L140.174 69.0635ZM129.961 53.252L129.066 52.8057C127.899 55.1455 126.504 57.3872 124.872 59.5202L125.666 60.1279L126.46 60.7357C128.17 58.5018 129.632 56.1519 130.856 53.6982L129.961 53.252ZM125.666 60.1279L124.871 59.5212C117.653 68.9778 108.279 74.8221 96.3955 76.4151L96.5283 77.4062L96.6612 78.3974C109.113 76.7283 118.948 70.5781 126.461 60.7347L125.666 60.1279ZM96.5283 77.4062L96.3971 76.4149C86.6056 77.7106 77.5614 75.8171 69.6286 69.894L69.0303 70.6953L68.432 71.4966C76.837 77.7722 86.4217 79.7523 96.6595 78.3976L96.5283 77.4062ZM69.0303 70.6953L69.6312 69.896C62.2805 64.3698 58.1304 57.0895 57.0348 48.013L56.042 48.1328L55.0492 48.2526C56.2094 57.8646 60.6388 65.6378 68.4294 71.4946L69.0303 70.6953ZM56.042 48.1328L57.0348 48.0133C55.7373 37.23 58.9209 27.5308 65.533 18.9605L64.7412 18.3496L63.9495 17.7388C57.0607 26.6677 53.6809 36.8812 55.0492 48.2523L56.042 48.1328ZM64.7412 18.3496L65.534 18.9592C72.6503 9.7039 82.0386 3.84453 93.5453 1.74945L93.3662 0.765625L93.1871 -0.2182C81.1787 1.96822 71.3582 8.10321 63.9485 17.7401L64.7412 18.3496ZM189.153 33.5889L190.137 33.4084C188.183 22.7623 178.314 16.7434 168.063 19.0897L168.286 20.0645L168.509 21.0392C177.707 18.9341 186.432 24.2995 188.17 33.7694L189.153 33.5889ZM168.286 20.0645L168.066 19.0889C163.162 20.1939 159.076 22.3072 155.921 25.4178C152.765 28.5288 150.585 32.5912 149.42 37.521L150.394 37.751L151.367 37.9809C152.458 33.3627 154.474 29.6523 157.325 26.8422C160.176 24.0317 163.909 22.0757 168.506 21.04L168.286 20.0645ZM150.394 37.751L149.42 37.5244C147.468 45.9122 151.587 54.4185 159.387 57.8808L159.793 56.9668L160.199 56.0528C153.301 52.9911 149.627 45.4582 151.368 37.9776L150.394 37.751ZM159.793 56.9668L159.394 57.8838C165.305 60.4558 171.24 60.1257 176.908 57.246L176.455 56.3545L176.002 55.463C170.836 58.0878 165.526 58.3706 160.192 56.0498L159.793 56.9668ZM176.455 56.3545L176.914 57.2432C185.308 52.9121 189.925 46.1014 190.459 36.9942L189.461 36.9355L188.463 36.8769C187.972 45.2351 183.803 51.4379 175.997 55.4658L176.455 56.3545ZM189.461 36.9355L190.458 36.8584C190.363 35.635 190.355 34.4717 190.133 33.3885L189.153 33.5889L188.174 33.7893C188.362 34.7106 188.354 35.586 188.464 37.0127L189.461 36.9355ZM47.7705 38.5508L47.7699 39.5508C47.7465 39.5508 47.6922 39.5459 47.6238 39.5146C47.5538 39.4827 47.4945 39.4346 47.4515 39.3809C47.3708 39.2804 47.3848 39.214 47.3848 39.2646H48.3848H49.3848C49.3848 38.9077 49.2965 38.4844 49.0112 38.129C48.702 37.7439 48.2506 37.5511 47.7711 37.5508L47.7705 38.5508ZM48.3848 39.2646L47.3882 39.1815L47.1841 41.6278L48.1807 41.7109L49.1772 41.7941L49.3813 39.3478L48.3848 39.2646ZM48.1807 41.7109L47.1807 41.7108C47.1807 41.5649 47.2531 41.4906 47.2665 41.4785C47.2766 41.4694 47.2894 41.4603 47.3099 41.4515C47.3276 41.4439 47.3785 41.4248 47.4619 41.4248V42.4248V43.4248C47.9147 43.4248 48.3239 43.2184 48.6067 42.963C48.9026 42.6959 49.1806 42.2647 49.1807 41.7111L48.1807 41.7109ZM47.4619 42.4248L47.4665 41.4248L25.1648 41.3223L25.1602 42.3223L25.1556 43.3223L47.4573 43.4248L47.4619 42.4248ZM25.1602 42.3223L25.1602 41.3223C25.1888 41.3223 25.5221 41.3509 25.6885 41.7229C25.8303 42.0399 25.688 42.2605 25.6831 42.2678L24.8525 41.7109L24.022 41.154C23.812 41.4671 23.6185 41.9934 23.8628 42.5396C24.1318 43.1409 24.7214 43.3223 25.1602 43.3223L25.1602 42.3223ZM24.8525 41.7109L25.7238 42.2017L27.1594 39.6528L26.2881 39.1621L25.4168 38.6714L23.9812 41.2202L24.8525 41.7109ZM26.2881 39.1621L27.1185 39.7192C27.1279 39.7052 27.1463 39.6818 27.1742 39.6547C27.2017 39.6279 27.2322 39.6037 27.2622 39.5846C27.2925 39.5652 27.3155 39.5553 27.3281 39.5511C27.3404 39.5469 27.3349 39.5508 27.3135 39.5508V38.5508V37.5508C26.8654 37.5508 26.4753 37.714 26.1857 37.899C25.8936 38.0856 25.6391 38.3345 25.4577 38.605L26.2881 39.1621ZM27.3135 38.5508V39.5508H47.7705V38.5508V37.5508H27.3135V38.5508ZM50.0049 29.2051V30.2051C49.9569 30.2051 49.797 30.1799 49.6659 30.0124C49.5348 29.8449 49.5212 29.6428 49.5693 29.499L50.5176 29.8164L51.4659 30.1338C51.6163 29.6843 51.5514 29.1765 51.2408 28.7797C50.9304 28.3831 50.4629 28.2051 50.0049 28.2051V29.2051ZM50.5176 29.8164L49.5694 29.4986L48.7491 31.9459L49.6973 32.2637L50.6454 32.5815L51.4657 30.1342L50.5176 29.8164ZM49.6973 32.2637L48.7276 32.0192C48.7364 31.9842 48.7539 31.9483 48.7774 31.918C48.7997 31.8893 48.8203 31.8746 48.8294 31.869C48.8378 31.8639 48.8372 31.8659 48.8248 31.8691C48.8126 31.8723 48.7951 31.875 48.7744 31.875V32.875V33.875C49.438 33.875 50.409 33.5313 50.6669 32.5081L49.6973 32.2637ZM48.7744 32.875L48.7723 31.875L0.408056 31.9766L0.410156 32.9766L0.412256 33.9766L48.7765 33.875L48.7744 32.875ZM0.410156 32.9766L0.410156 31.9766C0.380792 31.9766 0.425625 31.9716 0.509624 32.0029C0.599909 32.0366 0.772142 32.1284 0.892662 32.3381C1.01597 32.5527 1.01007 32.7598 0.985782 32.8775C0.963936 32.9834 0.926071 33.0342 0.933081 33.0238L0.102539 32.4668L-0.728003 31.9098C-0.875541 32.1299 -1.1959 32.7177 -0.841392 33.3346C-0.502262 33.9247 0.141503 33.9766 0.410156 33.9766L0.410156 32.9766ZM0.102539 32.4668L0.890097 33.083L3.04342 30.3311L2.25586 29.7148L1.4683 29.0986L-0.685019 31.8506L0.102539 32.4668ZM2.25586 29.7148L3.0864 30.2718C3.06082 30.31 3.04423 30.3186 3.05872 30.3078C3.0717 30.2982 3.0991 30.2809 3.14183 30.2623C3.18382 30.244 3.23084 30.2288 3.27762 30.2185C3.32504 30.2081 3.36183 30.2051 3.38379 30.2051L3.38379 29.2051L3.38379 28.2051C3.02716 28.2051 2.66115 28.2903 2.34401 28.4283C2.0394 28.5608 1.67256 28.7892 1.42532 29.1579L2.25586 29.7148ZM3.38379 29.2051V30.2051H50.0049V29.2051V28.2051H3.38379V29.2051ZM55.3174 19.8438L55.3174 20.8437C55.2885 20.8437 54.9553 20.815 54.7889 20.443C54.6473 20.1262 54.7893 19.9058 54.7943 19.8984L55.625 20.4551L56.4557 21.0118C56.6656 20.6987 56.8589 20.1725 56.6147 19.6265C56.3458 19.0253 55.7563 18.8438 55.3174 18.8438L55.3174 19.8438ZM55.625 20.4551L54.7895 19.9056L53.0463 22.556L53.8818 23.1055L54.7173 23.655L56.4605 21.0046L55.625 20.4551ZM53.8818 23.1055L53.0513 22.5485C53.0606 22.5347 53.0542 22.5474 53.0186 22.5787C52.9857 22.6076 52.9425 22.6393 52.8948 22.6678C52.8463 22.6968 52.8067 22.7144 52.7835 22.7226C52.7726 22.7264 52.7714 22.726 52.7799 22.7243C52.7873 22.7228 52.8141 22.7178 52.8564 22.7178L52.8564 23.7178L52.8564 24.7178C53.2768 24.7178 53.6689 24.5351 53.9204 24.3848C54.1902 24.2237 54.5006 23.9783 54.7124 23.6624L53.8818 23.1055ZM52.8564 23.7178L52.8592 22.7178L15.8426 22.6152L15.8398 23.6152L15.8371 24.6152L52.8537 24.7178L52.8564 23.7178ZM15.8398 23.6152L15.8398 22.6152C15.8105 22.6152 15.8553 22.6103 15.9393 22.6416C16.0296 22.6753 16.2018 22.7671 16.3223 22.9768C16.4457 23.1913 16.4398 23.3984 16.4155 23.5162C16.3936 23.6221 16.3558 23.6729 16.3628 23.6624L15.5322 23.1055L14.7017 22.5485C14.5541 22.7685 14.2338 23.3564 14.5883 23.9733C14.9274 24.5634 15.5712 24.6152 15.8398 24.6152L15.8398 23.6152ZM15.5322 23.1055L16.3198 23.7217L18.4731 20.9698L17.6855 20.3535L16.898 19.7373L14.7447 22.4892L15.5322 23.1055ZM17.6855 20.3535L18.5161 20.9105C18.4905 20.9486 18.4739 20.9573 18.4884 20.9465C18.5014 20.9368 18.5288 20.9195 18.5715 20.9009C18.6135 20.8827 18.6605 20.8674 18.7073 20.8572C18.7547 20.8468 18.7915 20.8438 18.8135 20.8438L18.8135 19.8438L18.8135 18.8438C18.4568 18.8438 18.0908 18.929 17.7737 19.067C17.4691 19.1995 17.1022 19.4279 16.855 19.7966L17.6855 20.3535ZM18.8135 19.8438V20.8438H55.3174V19.8438V18.8438H18.8135V19.8438Z" fill="#666666" mask="url(#path-1-inside-1_8180_35079)"/>
</svg>
