<svg width="2874" height="1328" viewBox="0 0 2874 1328" fill="none" xmlns="http://www.w3.org/2000/svg">
<g opacity="0.15">
<g style="mix-blend-mode:soft-light" opacity="0.8">
<path d="M83.4395 19.7265H19V84.166M83.4395 19.7265V84.166M83.4395 19.7265H147.879M83.4395 84.166H19M83.4395 84.166V148.605M83.4395 84.166H147.879M19 84.166V148.605M83.4395 148.605H19M83.4395 148.605V213.045M83.4395 148.605H147.879M19 148.605V213.045M83.4395 213.045H19M83.4395 213.045V277.484M83.4395 213.045H147.879M19 213.045V277.484M83.4395 277.484H19M83.4395 277.484V341.924M83.4395 277.484H147.879M19 277.484V341.924M83.4395 341.924H19M83.4395 341.924V406.363M83.4395 341.924H147.879M19 341.924V406.363M83.4395 406.363H19M83.4395 406.363V470.803M83.4395 406.363H147.879M19 406.363V470.803M83.4395 470.803H19M83.4395 470.803V535.242M83.4395 470.803H147.879M19 470.803V535.242M83.4395 535.242H19M83.4395 535.242V599.682M83.4395 535.242H147.879M19 535.242V599.682M83.4395 599.682H19M83.4395 599.682V664.121M83.4395 599.682H147.879M19 599.682V664.121M83.4395 664.121H19M83.4395 664.121V728.561M83.4395 664.121H147.879M19 664.121V728.561M83.4395 728.561H19M83.4395 728.561V793M83.4395 728.561H147.879M19 728.561V793M83.4395 793H19M83.4395 793V857.44M83.4395 793H147.879M19 793V857.44M83.4395 857.44H19M83.4395 857.44V921.879M83.4395 857.44H147.879M19 857.44V921.879M83.4395 921.879H19M83.4395 921.879V986.318M83.4395 921.879H147.879M19 921.879V986.318M83.4395 986.318H19M83.4395 986.318V1050.76M83.4395 986.318H147.879M19 986.318V1050.76M83.4395 1050.76H19M83.4395 1050.76V1115.2M83.4395 1050.76H147.879M19 1050.76V1115.2M83.4395 1115.2H19M83.4395 1115.2V1179.64M83.4395 1115.2H147.879M19 1115.2V1179.64M83.4395 1179.64H19M83.4395 1179.64V1244.08M83.4395 1179.64H147.879M19 1179.64V1244.08M83.4395 1244.08H19M83.4395 1244.08V1308.52M83.4395 1244.08H147.879M19 1244.08V1308.52H83.4395M83.4395 1308.52H147.879M147.879 19.7265V84.166M147.879 19.7265H212.318M147.879 84.166V148.605M147.879 84.166H212.318M147.879 148.605V213.045M147.879 148.605H212.318M147.879 213.045V277.484M147.879 213.045H212.318M147.879 277.484V341.924M147.879 277.484H212.318M147.879 341.924V406.363M147.879 341.924H212.318M147.879 406.363V470.803M147.879 406.363H212.318M147.879 470.803V535.242M147.879 470.803H212.318M147.879 535.242V599.682M147.879 535.242H212.318M147.879 599.682V664.121M147.879 599.682H212.318M147.879 664.121V728.561M147.879 664.121H212.318M147.879 728.561V793M147.879 728.561H212.318M147.879 793V857.44M147.879 793H212.318M147.879 857.44V921.879M147.879 857.44H212.318M147.879 921.879V986.318M147.879 921.879H212.318M147.879 986.318V1050.76M147.879 986.318H212.318M147.879 1050.76V1115.2M147.879 1050.76H212.318M147.879 1115.2V1179.64M147.879 1115.2H212.318M147.879 1179.64V1244.08M147.879 1179.64H212.318M147.879 1244.08V1308.52M147.879 1244.08H212.318M147.879 1308.52H212.318M212.318 19.7265V84.166M212.318 19.7265H276.758M212.318 84.166V148.605M212.318 84.166H276.758M212.318 148.605V213.045M212.318 148.605H276.758M212.318 213.045V277.484M212.318 213.045H276.758M212.318 277.484V341.924M212.318 277.484H276.758M212.318 341.924V406.363M212.318 341.924H276.758M212.318 406.363V470.803M212.318 406.363H276.758M212.318 470.803V535.242M212.318 470.803H276.758M212.318 535.242V599.682M212.318 535.242H276.758M212.318 599.682V664.121M212.318 599.682H276.758M212.318 664.121V728.561M212.318 664.121H276.758M212.318 728.561V793M212.318 728.561H276.758M212.318 793V857.44M212.318 793H276.758M212.318 857.44V921.879M212.318 857.44H276.758M212.318 921.879V986.318M212.318 921.879H276.758M212.318 986.318V1050.76M212.318 986.318H276.758M212.318 1050.76V1115.2M212.318 1050.76H276.758M212.318 1115.2V1179.64M212.318 1115.2H276.758M212.318 1179.64V1244.08M212.318 1179.64H276.758M212.318 1244.08V1308.52M212.318 1244.08H276.758M212.318 1308.52H276.758M276.758 19.7265V84.166M276.758 19.7265H341.197M276.758 84.166V148.605M276.758 84.166H341.197M276.758 148.605V213.045M276.758 148.605H341.197M276.758 213.045V277.484M276.758 213.045H341.197M276.758 277.484V341.924M276.758 277.484H341.197M276.758 341.924V406.363M276.758 341.924H341.197M276.758 406.363V470.803M276.758 406.363H341.197M276.758 470.803V535.242M276.758 470.803H341.197M276.758 535.242V599.682M276.758 535.242H341.197M276.758 599.682V664.121M276.758 599.682H341.197M276.758 664.121V728.561M276.758 664.121H341.197M276.758 728.561V793M276.758 728.561H341.197M276.758 793V857.44M276.758 793H341.197M276.758 857.44V921.879M276.758 857.44H341.197M276.758 921.879V986.318M276.758 921.879H341.197M276.758 986.318V1050.76M276.758 986.318H341.197M276.758 1050.76V1115.2M276.758 1050.76H341.197M276.758 1115.2V1179.64M276.758 1115.2H341.197M276.758 1179.64V1244.08M276.758 1179.64H341.197M276.758 1244.08V1308.52M276.758 1244.08H341.197M276.758 1308.52H341.197M341.197 19.7265V84.166M341.197 19.7265H405.637M341.197 84.166V148.605M341.197 84.166H405.637M341.197 148.605V213.045M341.197 148.605H405.637M341.197 213.045V277.484M341.197 213.045H405.637M341.197 277.484V341.924M341.197 277.484H405.637M341.197 341.924V406.363M341.197 341.924H405.637M341.197 406.363V470.803M341.197 406.363H405.637M341.197 470.803V535.242M341.197 470.803H405.637M341.197 535.242V599.682M341.197 535.242H405.637M341.197 599.682V664.121M341.197 599.682H405.637M341.197 664.121V728.561M341.197 664.121H405.637M341.197 728.561V793M341.197 728.561H405.637M341.197 793V857.44M341.197 793H405.637M341.197 857.44V921.879M341.197 857.44H405.637M341.197 921.879V986.318M341.197 921.879H405.637M341.197 986.318V1050.76M341.197 986.318H405.637M341.197 1050.76V1115.2M341.197 1050.76H405.637M341.197 1115.2V1179.64M341.197 1115.2H405.637M341.197 1179.64V1244.08M341.197 1179.64H405.637M341.197 1244.08V1308.52M341.197 1244.08H405.637M341.197 1308.52H405.637M405.637 19.7265V84.166M405.637 19.7265H470.076M405.637 84.166V148.605M405.637 84.166H470.076M405.637 148.605V213.045M405.637 148.605H470.076M405.637 213.045V277.484M405.637 213.045H470.076M405.637 277.484V341.924M405.637 277.484H470.076M405.637 341.924V406.363M405.637 341.924H470.076M405.637 406.363V470.803M405.637 406.363H470.076M405.637 470.803V535.242M405.637 470.803H470.076M405.637 535.242V599.682M405.637 535.242H470.076M405.637 599.682V664.121M405.637 599.682H470.076M405.637 664.121V728.561M405.637 664.121H470.076M405.637 728.561V793M405.637 728.561H470.076M405.637 793V857.44M405.637 793H470.076M405.637 857.44V921.879M405.637 857.44H470.076M405.637 921.879V986.318M405.637 921.879H470.076M405.637 986.318V1050.76M405.637 986.318H470.076M405.637 1050.76V1115.2M405.637 1050.76H470.076M405.637 1115.2V1179.64M405.637 1115.2H470.076M405.637 1179.64V1244.08M405.637 1179.64H470.076M405.637 1244.08V1308.52M405.637 1244.08H470.076M405.637 1308.52H470.076M470.076 19.7265V84.166M470.076 19.7265H534.516M470.076 84.166V148.605M470.076 84.166H534.516M470.076 148.605V213.045M470.076 148.605H534.516M470.076 213.045V277.484M470.076 213.045H534.516M470.076 277.484V341.924M470.076 277.484H534.516M470.076 341.924V406.363M470.076 341.924H534.516M470.076 406.363V470.803M470.076 406.363H534.516M470.076 470.803V535.242M470.076 470.803H534.516M470.076 535.242V599.682M470.076 535.242H534.516M470.076 599.682V664.121M470.076 599.682H534.516M470.076 664.121V728.561M470.076 664.121H534.516M470.076 728.561V793M470.076 728.561H534.516M470.076 793V857.44M470.076 793H534.516M470.076 857.44V921.879M470.076 857.44H534.516M470.076 921.879V986.318M470.076 921.879H534.516M470.076 986.318V1050.76M470.076 986.318H534.516M470.076 1050.76V1115.2M470.076 1050.76H534.516M470.076 1115.2V1179.64M470.076 1115.2H534.516M470.076 1179.64V1244.08M470.076 1179.64H534.516M470.076 1244.08V1308.52M470.076 1244.08H534.516M470.076 1308.52H534.516M534.516 19.7265V84.166M534.516 19.7265H598.955M534.516 84.166V148.605M534.516 84.166H598.955M534.516 148.605V213.045M534.516 148.605H598.955M534.516 213.045V277.484M534.516 213.045H598.955M534.516 277.484V341.924M534.516 277.484H598.955M534.516 341.924V406.363M534.516 341.924H598.955M534.516 406.363V470.803M534.516 406.363H598.955M534.516 470.803V535.242M534.516 470.803H598.955M534.516 535.242V599.682M534.516 535.242H598.955M534.516 599.682V664.121M534.516 599.682H598.955M534.516 664.121V728.561M534.516 664.121H598.955M534.516 728.561V793M534.516 728.561H598.955M534.516 793V857.44M534.516 793H598.955M534.516 857.44V921.879M534.516 857.44H598.955M534.516 921.879V986.318M534.516 921.879H598.955M534.516 986.318V1050.76M534.516 986.318H598.955M534.516 1050.76V1115.2M534.516 1050.76H598.955M534.516 1115.2V1179.64M534.516 1115.2H598.955M534.516 1179.64V1244.08M534.516 1179.64H598.955M534.516 1244.08V1308.52M534.516 1244.08H598.955M534.516 1308.52H598.955M598.955 19.7265V84.166M598.955 19.7265H663.395M598.955 84.166V148.605M598.955 84.166H663.395M598.955 148.605V213.045M598.955 148.605H663.395M598.955 213.045V277.484M598.955 213.045H663.395M598.955 277.484V341.924M598.955 277.484H663.395M598.955 341.924V406.363M598.955 341.924H663.395M598.955 406.363V470.803M598.955 406.363H663.395M598.955 470.803V535.242M598.955 470.803H663.395M598.955 535.242V599.682M598.955 535.242H663.395M598.955 599.682V664.121M598.955 599.682H663.395M598.955 664.121V728.561M598.955 664.121H663.395M598.955 728.561V793M598.955 728.561H663.395M598.955 793V857.44M598.955 793H663.395M598.955 857.44V921.879M598.955 857.44H663.395M598.955 921.879V986.318M598.955 921.879H663.395M598.955 986.318V1050.76M598.955 986.318H663.395M598.955 1050.76V1115.2M598.955 1050.76H663.395M598.955 1115.2V1179.64M598.955 1115.2H663.395M598.955 1179.64V1244.08M598.955 1179.64H663.395M598.955 1244.08V1308.52M598.955 1244.08H663.395M598.955 1308.52H663.395M663.395 19.7265V84.166M663.395 19.7265H727.834M663.395 84.166V148.605M663.395 84.166H727.834M663.395 148.605V213.045M663.395 148.605H727.834M663.395 213.045V277.484M663.395 213.045H727.834M663.395 277.484V341.924M663.395 277.484H727.834M663.395 341.924V406.363M663.395 341.924H727.834M663.395 406.363V470.803M663.395 406.363H727.834M663.395 470.803V535.242M663.395 470.803H727.834M663.395 535.242V599.682M663.395 535.242H727.834M663.395 599.682V664.121M663.395 599.682H727.834M663.395 664.121V728.561M663.395 664.121H727.834M663.395 728.561V793M663.395 728.561H727.834M663.395 793V857.44M663.395 793H727.834M663.395 857.44V921.879M663.395 857.44H727.834M663.395 921.879V986.318M663.395 921.879H727.834M663.395 986.318V1050.76M663.395 986.318H727.834M663.395 1050.76V1115.2M663.395 1050.76H727.834M663.395 1115.2V1179.64M663.395 1115.2H727.834M663.395 1179.64V1244.08M663.395 1179.64H727.834M663.395 1244.08V1308.52M663.395 1244.08H727.834M663.395 1308.52H727.834M727.834 19.7265V84.166M727.834 19.7265H792.274M727.834 84.166V148.605M727.834 84.166H792.274M727.834 148.605V213.045M727.834 148.605H792.274M727.834 213.045V277.484M727.834 213.045H792.274M727.834 277.484V341.924M727.834 277.484H792.274M727.834 341.924V406.363M727.834 341.924H792.274M727.834 406.363V470.803M727.834 406.363H792.274M727.834 470.803V535.242M727.834 470.803H792.274M727.834 535.242V599.682M727.834 535.242H792.274M727.834 599.682V664.121M727.834 599.682H792.274M727.834 664.121V728.561M727.834 664.121H792.274M727.834 728.561V793M727.834 728.561H792.274M727.834 793V857.44M727.834 793H792.274M727.834 857.44V921.879M727.834 857.44H792.274M727.834 921.879V986.318M727.834 921.879H792.274M727.834 986.318V1050.76M727.834 986.318H792.274M727.834 1050.76V1115.2M727.834 1050.76H792.274M727.834 1115.2V1179.64M727.834 1115.2H792.274M727.834 1179.64V1244.08M727.834 1179.64H792.274M727.834 1244.08V1308.52M727.834 1244.08H792.274M727.834 1308.52H792.274M792.274 19.7265V84.166M792.274 19.7265H856.713M792.274 84.166V148.605M792.274 84.166H856.713M792.274 148.605V213.045M792.274 148.605H856.713M792.274 213.045V277.484M792.274 213.045H856.713M792.274 277.484V341.924M792.274 277.484H856.713M792.274 341.924V406.363M792.274 341.924H856.713M792.274 406.363V470.803M792.274 406.363H856.713M792.274 470.803V535.242M792.274 470.803H856.713M792.274 535.242V599.682M792.274 535.242H856.713M792.274 599.682V664.121M792.274 599.682H856.713M792.274 664.121V728.561M792.274 664.121H856.713M792.274 728.561V793M792.274 728.561H856.713M792.274 793V857.44M792.274 793H856.713M792.274 857.44V921.879M792.274 857.44H856.713M792.274 921.879V986.318M792.274 921.879H856.713M792.274 986.318V1050.76M792.274 986.318H856.713M792.274 1050.76V1115.2M792.274 1050.76H856.713M792.274 1115.2V1179.64M792.274 1115.2H856.713M792.274 1179.64V1244.08M792.274 1179.64H856.713M792.274 1244.08V1308.52M792.274 1244.08H856.713M792.274 1308.52H856.713M856.713 19.7265V84.166M856.713 19.7265H921.153M856.713 84.166V148.605M856.713 84.166H921.153M856.713 148.605V213.045M856.713 148.605H921.153M856.713 213.045V277.484M856.713 213.045H921.153M856.713 277.484V341.924M856.713 277.484H921.153M856.713 341.924V406.363M856.713 341.924H921.153M856.713 406.363V470.803M856.713 406.363H921.153M856.713 470.803V535.242M856.713 470.803H921.153M856.713 535.242V599.682M856.713 535.242H921.153M856.713 599.682V664.121M856.713 599.682H921.153M856.713 664.121V728.561M856.713 664.121H921.153M856.713 728.561V793M856.713 728.561H921.153M856.713 793V857.44M856.713 793H921.153M856.713 857.44V921.879M856.713 857.44H921.153M856.713 921.879V986.318M856.713 921.879H921.153M856.713 986.318V1050.76M856.713 986.318H921.153M856.713 1050.76V1115.2M856.713 1050.76H921.153M856.713 1115.2V1179.64M856.713 1115.2H921.153M856.713 1179.64V1244.08M856.713 1179.64H921.153M856.713 1244.08V1308.52M856.713 1244.08H921.153M856.713 1308.52H921.153M921.153 19.7265V84.166M921.153 19.7265H985.592M921.153 84.166V148.605M921.153 84.166H985.592M921.153 148.605V213.045M921.153 148.605H985.592M921.153 213.045V277.484M921.153 213.045H985.592M921.153 277.484V341.924M921.153 277.484H985.592M921.153 341.924V406.363M921.153 341.924H985.592M921.153 406.363V470.803M921.153 406.363H985.592M921.153 470.803V535.242M921.153 470.803H985.592M921.153 535.242V599.682M921.153 535.242H985.592M921.153 599.682V664.121M921.153 599.682H985.592M921.153 664.121V728.561M921.153 664.121H985.592M921.153 728.561V793M921.153 728.561H985.592M921.153 793V857.44M921.153 793H985.592M921.153 857.44V921.879M921.153 857.44H985.592M921.153 921.879V986.318M921.153 921.879H985.592M921.153 986.318V1050.76M921.153 986.318H985.592M921.153 1050.76V1115.2M921.153 1050.76H985.592M921.153 1115.2V1179.64M921.153 1115.2H985.592M921.153 1179.64V1244.08M921.153 1179.64H985.592M921.153 1244.08V1308.52M921.153 1244.08H985.592M921.153 1308.52H985.592M985.592 19.7265V84.166M985.592 19.7265H1050.03M985.592 84.166V148.605M985.592 84.166H1050.03M985.592 148.605V213.045M985.592 148.605H1050.03M985.592 213.045V277.484M985.592 213.045H1050.03M985.592 277.484V341.924M985.592 277.484H1050.03M985.592 341.924V406.363M985.592 341.924H1050.03M985.592 406.363V470.803M985.592 406.363H1050.03M985.592 470.803V535.242M985.592 470.803H1050.03M985.592 535.242V599.682M985.592 535.242H1050.03M985.592 599.682V664.121M985.592 599.682H1050.03M985.592 664.121V728.561M985.592 664.121H1050.03M985.592 728.561V793M985.592 728.561H1050.03M985.592 793V857.44M985.592 793H1050.03M985.592 857.44V921.879M985.592 857.44H1050.03M985.592 921.879V986.318M985.592 921.879H1050.03M985.592 986.318V1050.76M985.592 986.318H1050.03M985.592 1050.76V1115.2M985.592 1050.76H1050.03M985.592 1115.2V1179.64M985.592 1115.2H1050.03M985.592 1179.64V1244.08M985.592 1179.64H1050.03M985.592 1244.08V1308.52M985.592 1244.08H1050.03M985.592 1308.52H1050.03M1050.03 19.7265V84.166M1050.03 19.7265H1114.47M1050.03 84.166V148.605M1050.03 84.166H1114.47M1050.03 148.605V213.045M1050.03 148.605H1114.47M1050.03 213.045V277.484M1050.03 213.045H1114.47M1050.03 277.484V341.924M1050.03 277.484H1114.47M1050.03 341.924V406.363M1050.03 341.924H1114.47M1050.03 406.363V470.803M1050.03 406.363H1114.47M1050.03 470.803V535.242M1050.03 470.803H1114.47M1050.03 535.242V599.682M1050.03 535.242H1114.47M1050.03 599.682V664.121M1050.03 599.682H1114.47M1050.03 664.121V728.561M1050.03 664.121H1114.47M1050.03 728.561V793M1050.03 728.561H1114.47M1050.03 793V857.44M1050.03 793H1114.47M1050.03 857.44V921.879M1050.03 857.44H1114.47M1050.03 921.879V986.318M1050.03 921.879H1114.47M1050.03 986.318V1050.76M1050.03 986.318H1114.47M1050.03 1050.76V1115.2M1050.03 1050.76H1114.47M1050.03 1115.2V1179.64M1050.03 1115.2H1114.47M1050.03 1179.64V1244.08M1050.03 1179.64H1114.47M1050.03 1244.08V1308.52M1050.03 1244.08H1114.47M1050.03 1308.52H1114.47M1114.47 19.7265V84.166M1114.47 19.7265H1178.91M1114.47 84.166V148.605M1114.47 84.166H1178.91M1114.47 148.605V213.045M1114.47 148.605H1178.91M1114.47 213.045V277.484M1114.47 213.045H1178.91M1114.47 277.484V341.924M1114.47 277.484H1178.91M1114.47 341.924V406.363M1114.47 341.924H1178.91M1114.47 406.363V470.803M1114.47 406.363H1178.91M1114.47 470.803V535.242M1114.47 470.803H1178.91M1114.47 535.242V599.682M1114.47 535.242H1178.91M1114.47 599.682V664.121M1114.47 599.682H1178.91M1114.47 664.121V728.561M1114.47 664.121H1178.91M1114.47 728.561V793M1114.47 728.561H1178.91M1114.47 793V857.44M1114.47 793H1178.91M1114.47 857.44V921.879M1114.47 857.44H1178.91M1114.47 921.879V986.318M1114.47 921.879H1178.91M1114.47 986.318V1050.76M1114.47 986.318H1178.91M1114.47 1050.76V1115.2M1114.47 1050.76H1178.91M1114.47 1115.2V1179.64M1114.47 1115.2H1178.91M1114.47 1179.64V1244.08M1114.47 1179.64H1178.91M1114.47 1244.08V1308.52M1114.47 1244.08H1178.91M1114.47 1308.52H1178.91M1178.91 19.7265V84.166M1178.91 19.7265H1243.35M1178.91 84.166V148.605M1178.91 84.166H1243.35M1178.91 148.605V213.045M1178.91 148.605H1243.35M1178.91 213.045V277.484M1178.91 213.045H1243.35M1178.91 277.484V341.924M1178.91 277.484H1243.35M1178.91 341.924V406.363M1178.91 341.924H1243.35M1178.91 406.363V470.803M1178.91 406.363H1243.35M1178.91 470.803V535.242M1178.91 470.803H1243.35M1178.91 535.242V599.682M1178.91 535.242H1243.35M1178.91 599.682V664.121M1178.91 599.682H1243.35M1178.91 664.121V728.561M1178.91 664.121H1243.35M1178.91 728.561V793M1178.91 728.561H1243.35M1178.91 793V857.44M1178.91 793H1243.35M1178.91 857.44V921.879M1178.91 857.44H1243.35M1178.91 921.879V986.318M1178.91 921.879H1243.35M1178.91 986.318V1050.76M1178.91 986.318H1243.35M1178.91 1050.76V1115.2M1178.91 1050.76H1243.35M1178.91 1115.2V1179.64M1178.91 1115.2H1243.35M1178.91 1179.64V1244.08M1178.91 1179.64H1243.35M1178.91 1244.08V1308.52M1178.91 1244.08H1243.35M1178.91 1308.52H1243.35M1243.35 19.7265V84.166M1243.35 19.7265H1307.79M1243.35 84.166V148.605M1243.35 84.166H1307.79M1243.35 148.605V213.045M1243.35 148.605H1307.79M1243.35 213.045V277.484M1243.35 213.045H1307.79M1243.35 277.484V341.924M1243.35 277.484H1307.79M1243.35 341.924V406.363M1243.35 341.924H1307.79M1243.35 406.363V470.803M1243.35 406.363H1307.79M1243.35 470.803V535.242M1243.35 470.803H1307.79M1243.35 535.242V599.682M1243.35 535.242H1307.79M1243.35 599.682V664.121M1243.35 599.682H1307.79M1243.35 664.121V728.561M1243.35 664.121H1307.79M1243.35 728.561V793M1243.35 728.561H1307.79M1243.35 793V857.44M1243.35 793H1307.79M1243.35 857.44V921.879M1243.35 857.44H1307.79M1243.35 921.879V986.318M1243.35 921.879H1307.79M1243.35 986.318V1050.76M1243.35 986.318H1307.79M1243.35 1050.76V1115.2M1243.35 1050.76H1307.79M1243.35 1115.2V1179.64M1243.35 1115.2H1307.79M1243.35 1179.64V1244.08M1243.35 1179.64H1307.79M1243.35 1244.08V1308.52M1243.35 1244.08H1307.79M1243.35 1308.52H1307.79M1307.79 19.7265V84.166M1307.79 19.7265H1372.23M1307.79 84.166V148.605M1307.79 84.166H1372.23M1307.79 148.605V213.045M1307.79 148.605H1372.23M1307.79 213.045V277.484M1307.79 213.045H1372.23M1307.79 277.484V341.924M1307.79 277.484H1372.23M1307.79 341.924V406.363M1307.79 341.924H1372.23M1307.79 406.363V470.803M1307.79 406.363H1372.23M1307.79 470.803V535.242M1307.79 470.803H1372.23M1307.79 535.242V599.682M1307.79 535.242H1372.23M1307.79 599.682V664.121M1307.79 599.682H1372.23M1307.79 664.121V728.561M1307.79 664.121H1372.23M1307.79 728.561V793M1307.79 728.561H1372.23M1307.79 793V857.44M1307.79 793H1372.23M1307.79 857.44V921.879M1307.79 857.44H1372.23M1307.79 921.879V986.318M1307.79 921.879H1372.23M1307.79 986.318V1050.76M1307.79 986.318H1372.23M1307.79 1050.76V1115.2M1307.79 1050.76H1372.23M1307.79 1115.2V1179.64M1307.79 1115.2H1372.23M1307.79 1179.64V1244.08M1307.79 1179.64H1372.23M1307.79 1244.08V1308.52M1307.79 1244.08H1372.23M1307.79 1308.52H1372.23M1372.23 19.7265V84.166M1372.23 19.7265H1436.67M1372.23 84.166V148.605M1372.23 84.166H1436.67M1372.23 148.605V213.045M1372.23 148.605H1436.67M1372.23 213.045V277.484M1372.23 213.045H1436.67M1372.23 277.484V341.924M1372.23 277.484H1436.67M1372.23 341.924V406.363M1372.23 341.924H1436.67M1372.23 406.363V470.803M1372.23 406.363H1436.67M1372.23 470.803V535.242M1372.23 470.803H1436.67M1372.23 535.242V599.682M1372.23 535.242H1436.67M1372.23 599.682V664.121M1372.23 599.682H1436.67M1372.23 664.121V728.561M1372.23 664.121H1436.67M1372.23 728.561V793M1372.23 728.561H1436.67M1372.23 793V857.44M1372.23 793H1436.67M1372.23 857.44V921.879M1372.23 857.44H1436.67M1372.23 921.879V986.318M1372.23 921.879H1436.67M1372.23 986.318V1050.76M1372.23 986.318H1436.67M1372.23 1050.76V1115.2M1372.23 1050.76H1436.67M1372.23 1115.2V1179.64M1372.23 1115.2H1436.67M1372.23 1179.64V1244.08M1372.23 1179.64H1436.67M1372.23 1244.08V1308.52M1372.23 1244.08H1436.67M1372.23 1308.52H1436.67M1436.67 19.7265V84.166M1436.67 19.7265H1501.11M1436.67 84.166V148.605M1436.67 84.166H1501.11M1436.67 148.605V213.045M1436.67 148.605H1501.11M1436.67 213.045V277.484M1436.67 213.045H1501.11M1436.67 277.484V341.924M1436.67 277.484H1501.11M1436.67 341.924V406.363M1436.67 341.924H1501.11M1436.67 406.363V470.803M1436.67 406.363H1501.11M1436.67 470.803V535.242M1436.67 470.803H1501.11M1436.67 535.242V599.682M1436.67 535.242H1501.11M1436.67 599.682V664.121M1436.67 599.682H1501.11M1436.67 664.121V728.561M1436.67 664.121H1501.11M1436.67 728.561V793M1436.67 728.561H1501.11M1436.67 793V857.44M1436.67 793H1501.11M1436.67 857.44V921.879M1436.67 857.44H1501.11M1436.67 921.879V986.318M1436.67 921.879H1501.11M1436.67 986.318V1050.76M1436.67 986.318H1501.11M1436.67 1050.76V1115.2M1436.67 1050.76H1501.11M1436.67 1115.2V1179.64M1436.67 1115.2H1501.11M1436.67 1179.64V1244.08M1436.67 1179.64H1501.11M1436.67 1244.08V1308.52M1436.67 1244.08H1501.11M1436.67 1308.52H1501.11M1501.11 19.7265V84.166M1501.11 19.7265H1565.55M1501.11 84.166V148.605M1501.11 84.166H1565.55M1501.11 148.605V213.045M1501.11 148.605H1565.55M1501.11 213.045V277.484M1501.11 213.045H1565.55M1501.11 277.484V341.924M1501.11 277.484H1565.55M1501.11 341.924V406.363M1501.11 341.924H1565.55M1501.11 406.363V470.803M1501.11 406.363H1565.55M1501.11 470.803V535.242M1501.11 470.803H1565.55M1501.11 535.242V599.682M1501.11 535.242H1565.55M1501.11 599.682V664.121M1501.11 599.682H1565.55M1501.11 664.121V728.561M1501.11 664.121H1565.55M1501.11 728.561V793M1501.11 728.561H1565.55M1501.11 793V857.44M1501.11 793H1565.55M1501.11 857.44V921.879M1501.11 857.44H1565.55M1501.11 921.879V986.318M1501.11 921.879H1565.55M1501.11 986.318V1050.76M1501.11 986.318H1565.55M1501.11 1050.76V1115.2M1501.11 1050.76H1565.55M1501.11 1115.2V1179.64M1501.11 1115.2H1565.55M1501.11 1179.64V1244.08M1501.11 1179.64H1565.55M1501.11 1244.08V1308.52M1501.11 1244.08H1565.55M1501.11 1308.52H1565.55M1565.55 19.7265V84.166M1565.55 19.7265H1629.99M1565.55 84.166V148.605M1565.55 84.166H1629.99M1565.55 148.605V213.045M1565.55 148.605H1629.99M1565.55 213.045V277.484M1565.55 213.045H1629.99M1565.55 277.484V341.924M1565.55 277.484H1629.99M1565.55 341.924V406.363M1565.55 341.924H1629.99M1565.55 406.363V470.803M1565.55 406.363H1629.99M1565.55 470.803V535.242M1565.55 470.803H1629.99M1565.55 535.242V599.682M1565.55 535.242H1629.99M1565.55 599.682V664.121M1565.55 599.682H1629.99M1565.55 664.121V728.561M1565.55 664.121H1629.99M1565.55 728.561V793M1565.55 728.561H1629.99M1565.55 793V857.44M1565.55 793H1629.99M1565.55 857.44V921.879M1565.55 857.44H1629.99M1565.55 921.879V986.318M1565.55 921.879H1629.99M1565.55 986.318V1050.76M1565.55 986.318H1629.99M1565.55 1050.76V1115.2M1565.55 1050.76H1629.99M1565.55 1115.2V1179.64M1565.55 1115.2H1629.99M1565.55 1179.64V1244.08M1565.55 1179.64H1629.99M1565.55 1244.08V1308.52M1565.55 1244.08H1629.99M1565.55 1308.52H1629.99M1629.99 19.7265V84.166M1629.99 19.7265H1694.43M1629.99 84.166V148.605M1629.99 84.166H1694.43M1629.99 148.605V213.045M1629.99 148.605H1694.43M1629.99 213.045V277.484M1629.99 213.045H1694.43M1629.99 277.484V341.924M1629.99 277.484H1694.43M1629.99 341.924V406.363M1629.99 341.924H1694.43M1629.99 406.363V470.803M1629.99 406.363H1694.43M1629.99 470.803V535.242M1629.99 470.803H1694.43M1629.99 535.242V599.682M1629.99 535.242H1694.43M1629.99 599.682V664.121M1629.99 599.682H1694.43M1629.99 664.121V728.561M1629.99 664.121H1694.43M1629.99 728.561V793M1629.99 728.561H1694.43M1629.99 793V857.44M1629.99 793H1694.43M1629.99 857.44V921.879M1629.99 857.44H1694.43M1629.99 921.879V986.318M1629.99 921.879H1694.43M1629.99 986.318V1050.76M1629.99 986.318H1694.43M1629.99 1050.76V1115.2M1629.99 1050.76H1694.43M1629.99 1115.2V1179.64M1629.99 1115.2H1694.43M1629.99 1179.64V1244.08M1629.99 1179.64H1694.43M1629.99 1244.08V1308.52M1629.99 1244.08H1694.43M1629.99 1308.52H1694.43M1694.43 19.7265V84.166M1694.43 19.7265H1758.87M1694.43 84.166V148.605M1694.43 84.166H1758.87M1694.43 148.605V213.045M1694.43 148.605H1758.87M1694.43 213.045V277.484M1694.43 213.045H1758.87M1694.43 277.484V341.924M1694.43 277.484H1758.87M1694.43 341.924V406.363M1694.43 341.924H1758.87M1694.43 406.363V470.803M1694.43 406.363H1758.87M1694.43 470.803V535.242M1694.43 470.803H1758.87M1694.43 535.242V599.682M1694.43 535.242H1758.87M1694.43 599.682V664.121M1694.43 599.682H1758.87M1694.43 664.121V728.561M1694.43 664.121H1758.87M1694.43 728.561V793M1694.43 728.561H1758.87M1694.43 793V857.44M1694.43 793H1758.87M1694.43 857.44V921.879M1694.43 857.44H1758.87M1694.43 921.879V986.318M1694.43 921.879H1758.87M1694.43 986.318V1050.76M1694.43 986.318H1758.87M1694.43 1050.76V1115.2M1694.43 1050.76H1758.87M1694.43 1115.2V1179.64M1694.43 1115.2H1758.87M1694.43 1179.64V1244.08M1694.43 1179.64H1758.87M1694.43 1244.08V1308.52M1694.43 1244.08H1758.87M1694.43 1308.52H1758.87M1758.87 19.7265V84.166M1758.87 19.7265H1823.31M1758.87 84.166V148.605M1758.87 84.166H1823.31M1758.87 148.605V213.045M1758.87 148.605H1823.31M1758.87 213.045V277.484M1758.87 213.045H1823.31M1758.87 277.484V341.924M1758.87 277.484H1823.31M1758.87 341.924V406.363M1758.87 341.924H1823.31M1758.87 406.363V470.803M1758.87 406.363H1823.31M1758.87 470.803V535.242M1758.87 470.803H1823.31M1758.87 535.242V599.682M1758.87 535.242H1823.31M1758.87 599.682V664.121M1758.87 599.682H1823.31M1758.87 664.121V728.561M1758.87 664.121H1823.31M1758.87 728.561V793M1758.87 728.561H1823.31M1758.87 793V857.44M1758.87 793H1823.31M1758.87 857.44V921.879M1758.87 857.44H1823.31M1758.87 921.879V986.318M1758.87 921.879H1823.31M1758.87 986.318V1050.76M1758.87 986.318H1823.31M1758.87 1050.76V1115.2M1758.87 1050.76H1823.31M1758.87 1115.2V1179.64M1758.87 1115.2H1823.31M1758.87 1179.64V1244.08M1758.87 1179.64H1823.31M1758.87 1244.08V1308.52M1758.87 1244.08H1823.31M1758.87 1308.52H1823.31M1823.31 19.7265V84.166M1823.31 19.7265H1887.74M1823.31 84.166V148.605M1823.31 84.166H1887.74M1823.31 148.605V213.045M1823.31 148.605H1887.74M1823.31 213.045V277.484M1823.31 213.045H1887.74M1823.31 277.484V341.924M1823.31 277.484H1887.74M1823.31 341.924V406.363M1823.31 341.924H1887.74M1823.31 406.363V470.803M1823.31 406.363H1887.74M1823.31 470.803V535.242M1823.31 470.803H1887.74M1823.31 535.242V599.682M1823.31 535.242H1887.74M1823.31 599.682V664.121M1823.31 599.682H1887.74M1823.31 664.121V728.561M1823.31 664.121H1887.74M1823.31 728.561V793M1823.31 728.561H1887.74M1823.31 793V857.44M1823.31 793H1887.74M1823.31 857.44V921.879M1823.31 857.44H1887.74M1823.31 921.879V986.318M1823.31 921.879H1887.74M1823.31 986.318V1050.76M1823.31 986.318H1887.74M1823.31 1050.76V1115.2M1823.31 1050.76H1887.74M1823.31 1115.2V1179.64M1823.31 1115.2H1887.74M1823.31 1179.64V1244.08M1823.31 1179.64H1887.74M1823.31 1244.08V1308.52M1823.31 1244.08H1887.74M1823.31 1308.52H1887.74M1887.74 19.7265V84.166M1887.74 19.7265H1952.18M1887.74 84.166V148.605M1887.74 84.166H1952.18M1887.74 148.605V213.045M1887.74 148.605H1952.18M1887.74 213.045V277.484M1887.74 213.045H1952.18M1887.74 277.484V341.924M1887.74 277.484H1952.18M1887.74 341.924V406.363M1887.74 341.924H1952.18M1887.74 406.363V470.803M1887.74 406.363H1952.18M1887.74 470.803V535.242M1887.74 470.803H1952.18M1887.74 535.242V599.682M1887.74 535.242H1952.18M1887.74 599.682V664.121M1887.74 599.682H1952.18M1887.74 664.121V728.561M1887.74 664.121H1952.18M1887.74 728.561V793M1887.74 728.561H1952.18M1887.74 793V857.44M1887.74 793H1952.18M1887.74 857.44V921.879M1887.74 857.44H1952.18M1887.74 921.879V986.318M1887.74 921.879H1952.18M1887.74 986.318V1050.76M1887.74 986.318H1952.18M1887.74 1050.76V1115.2M1887.74 1050.76H1952.18M1887.74 1115.2V1179.64M1887.74 1115.2H1952.18M1887.74 1179.64V1244.08M1887.74 1179.64H1952.18M1887.74 1244.08V1308.52M1887.74 1244.08H1952.18M1887.74 1308.52H1952.18M1952.18 19.7265V84.166M1952.18 19.7265H2016.62M1952.18 84.166V148.605M1952.18 84.166H2016.62M1952.18 148.605V213.045M1952.18 148.605H2016.62M1952.18 213.045V277.484M1952.18 213.045H2016.62M1952.18 277.484V341.924M1952.18 277.484H2016.62M1952.18 341.924V406.363M1952.18 341.924H2016.62M1952.18 406.363V470.803M1952.18 406.363H2016.62M1952.18 470.803V535.242M1952.18 470.803H2016.62M1952.18 535.242V599.682M1952.18 535.242H2016.62M1952.18 599.682V664.121M1952.18 599.682H2016.62M1952.18 664.121V728.561M1952.18 664.121H2016.62M1952.18 728.561V793M1952.18 728.561H2016.62M1952.18 793V857.44M1952.18 793H2016.62M1952.18 857.44V921.879M1952.18 857.44H2016.62M1952.18 921.879V986.318M1952.18 921.879H2016.62M1952.18 986.318V1050.76M1952.18 986.318H2016.62M1952.18 1050.76V1115.2M1952.18 1050.76H2016.62M1952.18 1115.2V1179.64M1952.18 1115.2H2016.62M1952.18 1179.64V1244.08M1952.18 1179.64H2016.62M1952.18 1244.08V1308.52M1952.18 1244.08H2016.62M1952.18 1308.52H2016.62M2016.62 19.7265V84.166M2016.62 19.7265H2081.06M2016.62 84.166V148.605M2016.62 84.166H2081.06M2016.62 148.605V213.045M2016.62 148.605H2081.06M2016.62 213.045V277.484M2016.62 213.045H2081.06M2016.62 277.484V341.924M2016.62 277.484H2081.06M2016.62 341.924V406.363M2016.62 341.924H2081.06M2016.62 406.363V470.803M2016.62 406.363H2081.06M2016.62 470.803V535.242M2016.62 470.803H2081.06M2016.62 535.242V599.682M2016.62 535.242H2081.06M2016.62 599.682V664.121M2016.62 599.682H2081.06M2016.62 664.121V728.561M2016.62 664.121H2081.06M2016.62 728.561V793M2016.62 728.561H2081.06M2016.62 793V857.44M2016.62 793H2081.06M2016.62 857.44V921.879M2016.62 857.44H2081.06M2016.62 921.879V986.318M2016.62 921.879H2081.06M2016.62 986.318V1050.76M2016.62 986.318H2081.06M2016.62 1050.76V1115.2M2016.62 1050.76H2081.06M2016.62 1115.2V1179.64M2016.62 1115.2H2081.06M2016.62 1179.64V1244.08M2016.62 1179.64H2081.06M2016.62 1244.08V1308.52M2016.62 1244.08H2081.06M2016.62 1308.52H2081.06M2081.06 19.7265V84.166M2081.06 19.7265H2145.5M2081.06 84.166V148.605M2081.06 84.166H2145.5M2081.06 148.605V213.045M2081.06 148.605H2145.5M2081.06 213.045V277.484M2081.06 213.045H2145.5M2081.06 277.484V341.924M2081.06 277.484H2145.5M2081.06 341.924V406.363M2081.06 341.924H2145.5M2081.06 406.363V470.803M2081.06 406.363H2145.5M2081.06 470.803V535.242M2081.06 470.803H2145.5M2081.06 535.242V599.682M2081.06 535.242H2145.5M2081.06 599.682V664.121M2081.06 599.682H2145.5M2081.06 664.121V728.561M2081.06 664.121H2145.5M2081.06 728.561V793M2081.06 728.561H2145.5M2081.06 793V857.44M2081.06 793H2145.5M2081.06 857.44V921.879M2081.06 857.44H2145.5M2081.06 921.879V986.318M2081.06 921.879H2145.5M2081.06 986.318V1050.76M2081.06 986.318H2145.5M2081.06 1050.76V1115.2M2081.06 1050.76H2145.5M2081.06 1115.2V1179.64M2081.06 1115.2H2145.5M2081.06 1179.64V1244.08M2081.06 1179.64H2145.5M2081.06 1244.08V1308.52M2081.06 1244.08H2145.5M2081.06 1308.52H2145.5M2145.5 19.7265V84.166M2145.5 19.7265H2209.94M2145.5 84.166V148.605M2145.5 84.166H2209.94M2145.5 148.605V213.045M2145.5 148.605H2209.94M2145.5 213.045V277.484M2145.5 213.045H2209.94M2145.5 277.484V341.924M2145.5 277.484H2209.94M2145.5 341.924V406.363M2145.5 341.924H2209.94M2145.5 406.363V470.803M2145.5 406.363H2209.94M2145.5 470.803V535.242M2145.5 470.803H2209.94M2145.5 535.242V599.682M2145.5 535.242H2209.94M2145.5 599.682V664.121M2145.5 599.682H2209.94M2145.5 664.121V728.561M2145.5 664.121H2209.94M2145.5 728.561V793M2145.5 728.561H2209.94M2145.5 793V857.44M2145.5 793H2209.94M2145.5 857.44V921.879M2145.5 857.44H2209.94M2145.5 921.879V986.318M2145.5 921.879H2209.94M2145.5 986.318V1050.76M2145.5 986.318H2209.94M2145.5 1050.76V1115.2M2145.5 1050.76H2209.94M2145.5 1115.2V1179.64M2145.5 1115.2H2209.94M2145.5 1179.64V1244.08M2145.5 1179.64H2209.94M2145.5 1244.08V1308.52M2145.5 1244.08H2209.94M2145.5 1308.52H2209.94M2209.94 19.7265V84.166M2209.94 19.7265H2274.38M2209.94 84.166V148.605M2209.94 84.166H2274.38M2209.94 148.605V213.045M2209.94 148.605H2274.38M2209.94 213.045V277.484M2209.94 213.045H2274.38M2209.94 277.484V341.924M2209.94 277.484H2274.38M2209.94 341.924V406.363M2209.94 341.924H2274.38M2209.94 406.363V470.803M2209.94 406.363H2274.38M2209.94 470.803V535.242M2209.94 470.803H2274.38M2209.94 535.242V599.682M2209.94 535.242H2274.38M2209.94 599.682V664.121M2209.94 599.682H2274.38M2209.94 664.121V728.561M2209.94 664.121H2274.38M2209.94 728.561V793M2209.94 728.561H2274.38M2209.94 793V857.44M2209.94 793H2274.38M2209.94 857.44V921.879M2209.94 857.44H2274.38M2209.94 921.879V986.318M2209.94 921.879H2274.38M2209.94 986.318V1050.76M2209.94 986.318H2274.38M2209.94 1050.76V1115.2M2209.94 1050.76H2274.38M2209.94 1115.2V1179.64M2209.94 1115.2H2274.38M2209.94 1179.64V1244.08M2209.94 1179.64H2274.38M2209.94 1244.08V1308.52M2209.94 1244.08H2274.38M2209.94 1308.52H2274.38M2274.38 19.7265V84.166M2274.38 19.7265H2338.82M2274.38 84.166V148.605M2274.38 84.166H2338.82M2274.38 148.605V213.045M2274.38 148.605H2338.82M2274.38 213.045V277.484M2274.38 213.045H2338.82M2274.38 277.484V341.924M2274.38 277.484H2338.82M2274.38 341.924V406.363M2274.38 341.924H2338.82M2274.38 406.363V470.803M2274.38 406.363H2338.82M2274.38 470.803V535.242M2274.38 470.803H2338.82M2274.38 535.242V599.682M2274.38 535.242H2338.82M2274.38 599.682V664.121M2274.38 599.682H2338.82M2274.38 664.121V728.561M2274.38 664.121H2338.82M2274.38 728.561V793M2274.38 728.561H2338.82M2274.38 793V857.44M2274.38 793H2338.82M2274.38 857.44V921.879M2274.38 857.44H2338.82M2274.38 921.879V986.318M2274.38 921.879H2338.82M2274.38 986.318V1050.76M2274.38 986.318H2338.82M2274.38 1050.76V1115.2M2274.38 1050.76H2338.82M2274.38 1115.2V1179.64M2274.38 1115.2H2338.82M2274.38 1179.64V1244.08M2274.38 1179.64H2338.82M2274.38 1244.08V1308.52M2274.38 1244.08H2338.82M2274.38 1308.52H2338.82M2338.82 19.7265V84.166M2338.82 19.7265H2403.26M2338.82 84.166V148.605M2338.82 84.166H2403.26M2338.82 148.605V213.045M2338.82 148.605H2403.26M2338.82 213.045V277.484M2338.82 213.045H2403.26M2338.82 277.484V341.924M2338.82 277.484H2403.26M2338.82 341.924V406.363M2338.82 341.924H2403.26M2338.82 406.363V470.803M2338.82 406.363H2403.26M2338.82 470.803V535.242M2338.82 470.803H2403.26M2338.82 535.242V599.682M2338.82 535.242H2403.26M2338.82 599.682V664.121M2338.82 599.682H2403.26M2338.82 664.121V728.561M2338.82 664.121H2403.26M2338.82 728.561V793M2338.82 728.561H2403.26M2338.82 793V857.44M2338.82 793H2403.26M2338.82 857.44V921.879M2338.82 857.44H2403.26M2338.82 921.879V986.318M2338.82 921.879H2403.26M2338.82 986.318V1050.76M2338.82 986.318H2403.26M2338.82 1050.76V1115.2M2338.82 1050.76H2403.26M2338.82 1115.2V1179.64M2338.82 1115.2H2403.26M2338.82 1179.64V1244.08M2338.82 1179.64H2403.26M2338.82 1244.08V1308.52M2338.82 1244.08H2403.26M2338.82 1308.52H2403.26M2403.26 19.7265V84.166M2403.26 19.7265H2467.7M2403.26 84.166V148.605M2403.26 84.166H2467.7M2403.26 148.605V213.045M2403.26 148.605H2467.7M2403.26 213.045V277.484M2403.26 213.045H2467.7M2403.26 277.484V341.924M2403.26 277.484H2467.7M2403.26 341.924V406.363M2403.26 341.924H2467.7M2403.26 406.363V470.803M2403.26 406.363H2467.7M2403.26 470.803V535.242M2403.26 470.803H2467.7M2403.26 535.242V599.682M2403.26 535.242H2467.7M2403.26 599.682V664.121M2403.26 599.682H2467.7M2403.26 664.121V728.561M2403.26 664.121H2467.7M2403.26 728.561V793M2403.26 728.561H2467.7M2403.26 793V857.44M2403.26 793H2467.7M2403.26 857.44V921.879M2403.26 857.44H2467.7M2403.26 921.879V986.318M2403.26 921.879H2467.7M2403.26 986.318V1050.76M2403.26 986.318H2467.7M2403.26 1050.76V1115.2M2403.26 1050.76H2467.7M2403.26 1115.2V1179.64M2403.26 1115.2H2467.7M2403.26 1179.64V1244.08M2403.26 1179.64H2467.7M2403.26 1244.08V1308.52M2403.26 1244.08H2467.7M2403.26 1308.52H2467.7M2467.7 19.7265V84.166M2467.7 19.7265H2532.14M2467.7 84.166V148.605M2467.7 84.166H2532.14M2467.7 148.605V213.045M2467.7 148.605H2532.14M2467.7 213.045V277.484M2467.7 213.045H2532.14M2467.7 277.484V341.924M2467.7 277.484H2532.14M2467.7 341.924V406.363M2467.7 341.924H2532.14M2467.7 406.363V470.803M2467.7 406.363H2532.14M2467.7 470.803V535.242M2467.7 470.803H2532.14M2467.7 535.242V599.682M2467.7 535.242H2532.14M2467.7 599.682V664.121M2467.7 599.682H2532.14M2467.7 664.121V728.561M2467.7 664.121H2532.14M2467.7 728.561V793M2467.7 728.561H2532.14M2467.7 793V857.44M2467.7 793H2532.14M2467.7 857.44V921.879M2467.7 857.44H2532.14M2467.7 921.879V986.318M2467.7 921.879H2532.14M2467.7 986.318V1050.76M2467.7 986.318H2532.14M2467.7 1050.76V1115.2M2467.7 1050.76H2532.14M2467.7 1115.2V1179.64M2467.7 1115.2H2532.14M2467.7 1179.64V1244.08M2467.7 1179.64H2532.14M2467.7 1244.08V1308.52M2467.7 1244.08H2532.14M2467.7 1308.52H2532.14M2532.14 19.7265V84.166M2532.14 19.7265H2596.58M2532.14 84.166V148.605M2532.14 84.166H2596.58M2532.14 148.605V213.045M2532.14 148.605H2596.58M2532.14 213.045V277.484M2532.14 213.045H2596.58M2532.14 277.484V341.924M2532.14 277.484H2596.58M2532.14 341.924V406.363M2532.14 341.924H2596.58M2532.14 406.363V470.803M2532.14 406.363H2596.58M2532.14 470.803V535.242M2532.14 470.803H2596.58M2532.14 535.242V599.682M2532.14 535.242H2596.58M2532.14 599.682V664.121M2532.14 599.682H2596.58M2532.14 664.121V728.561M2532.14 664.121H2596.58M2532.14 728.561V793M2532.14 728.561H2596.58M2532.14 793V857.44M2532.14 793H2596.58M2532.14 857.44V921.879M2532.14 857.44H2596.58M2532.14 921.879V986.318M2532.14 921.879H2596.58M2532.14 986.318V1050.76M2532.14 986.318H2596.58M2532.14 1050.76V1115.2M2532.14 1050.76H2596.58M2532.14 1115.2V1179.64M2532.14 1115.2H2596.58M2532.14 1179.64V1244.08M2532.14 1179.64H2596.58M2532.14 1244.08V1308.52M2532.14 1244.08H2596.58M2532.14 1308.52H2596.58M2596.58 19.7265V84.166M2596.58 19.7265H2661.02M2596.58 84.166V148.605M2596.58 84.166H2661.02M2596.58 148.605V213.045M2596.58 148.605H2661.02M2596.58 213.045V277.484M2596.58 213.045H2661.02M2596.58 277.484V341.924M2596.58 277.484H2661.02M2596.58 341.924V406.363M2596.58 341.924H2661.02M2596.58 406.363V470.803M2596.58 406.363H2661.02M2596.58 470.803V535.242M2596.58 470.803H2661.02M2596.58 535.242V599.682M2596.58 535.242H2661.02M2596.58 599.682V664.121M2596.58 599.682H2661.02M2596.58 664.121V728.561M2596.58 664.121H2661.02M2596.58 728.561V793M2596.58 728.561H2661.02M2596.58 793V857.44M2596.58 793H2661.02M2596.58 857.44V921.879M2596.58 857.44H2661.02M2596.58 921.879V986.318M2596.58 921.879H2661.02M2596.58 986.318V1050.76M2596.58 986.318H2661.02M2596.58 1050.76V1115.2M2596.58 1050.76H2661.02M2596.58 1115.2V1179.64M2596.58 1115.2H2661.02M2596.58 1179.64V1244.08M2596.58 1179.64H2661.02M2596.58 1244.08V1308.52M2596.58 1244.08H2661.02M2596.58 1308.52H2661.02M2661.02 19.7265V84.166M2661.02 19.7265H2725.46M2661.02 84.166V148.605M2661.02 84.166H2725.46M2661.02 148.605V213.045M2661.02 148.605H2725.46M2661.02 213.045V277.484M2661.02 213.045H2725.46M2661.02 277.484V341.924M2661.02 277.484H2725.46M2661.02 341.924V406.363M2661.02 341.924H2725.46M2661.02 406.363V470.803M2661.02 406.363H2725.46M2661.02 470.803V535.242M2661.02 470.803H2725.46M2661.02 535.242V599.682M2661.02 535.242H2725.46M2661.02 599.682V664.121M2661.02 599.682H2725.46M2661.02 664.121V728.561M2661.02 664.121H2725.46M2661.02 728.561V793M2661.02 728.561H2725.46M2661.02 793V857.44M2661.02 793H2725.46M2661.02 857.44V921.879M2661.02 857.44H2725.46M2661.02 921.879V986.318M2661.02 921.879H2725.46M2661.02 986.318V1050.76M2661.02 986.318H2725.46M2661.02 1050.76V1115.2M2661.02 1050.76H2725.46M2661.02 1115.2V1179.64M2661.02 1115.2H2725.46M2661.02 1179.64V1244.08M2661.02 1179.64H2725.46M2661.02 1244.08V1308.52M2661.02 1244.08H2725.46M2661.02 1308.52H2725.46M2725.46 19.7265V84.166M2725.46 19.7265H2789.9M2725.46 84.166V148.605M2725.46 84.166H2789.9M2725.46 148.605V213.045M2725.46 148.605H2789.9M2725.46 213.045V277.484M2725.46 213.045H2789.9M2725.46 277.484V341.924M2725.46 277.484H2789.9M2725.46 341.924V406.363M2725.46 341.924H2789.9M2725.46 406.363V470.803M2725.46 406.363H2789.9M2725.46 470.803V535.242M2725.46 470.803H2789.9M2725.46 535.242V599.682M2725.46 535.242H2789.9M2725.46 599.682V664.121M2725.46 599.682H2789.9M2725.46 664.121V728.561M2725.46 664.121H2789.9M2725.46 728.561V793M2725.46 728.561H2789.9M2725.46 793V857.44M2725.46 793H2789.9M2725.46 857.44V921.879M2725.46 857.44H2789.9M2725.46 921.879V986.318M2725.46 921.879H2789.9M2725.46 986.318V1050.76M2725.46 986.318H2789.9M2725.46 1050.76V1115.2M2725.46 1050.76H2789.9M2725.46 1115.2V1179.64M2725.46 1115.2H2789.9M2725.46 1179.64V1244.08M2725.46 1179.64H2789.9M2725.46 1244.08V1308.52M2725.46 1244.08H2789.9M2725.46 1308.52H2789.9M2789.9 19.7265V84.166M2789.9 19.7265H2854.34V84.166M2789.9 84.166V148.605M2789.9 84.166H2854.34M2789.9 148.605V213.045M2789.9 148.605H2854.34M2789.9 213.045V277.484M2789.9 213.045H2854.34M2789.9 277.484V341.924M2789.9 277.484H2854.34M2789.9 341.924V406.363M2789.9 341.924H2854.34M2789.9 406.363V470.803M2789.9 406.363H2854.34M2789.9 470.803V535.242M2789.9 470.803H2854.34M2789.9 535.242V599.682M2789.9 535.242H2854.34M2789.9 599.682V664.121M2789.9 599.682H2854.34M2789.9 664.121V728.561M2789.9 664.121H2854.34M2789.9 728.561V793M2789.9 728.561H2854.34M2789.9 793V857.44M2789.9 793H2854.34M2789.9 857.44V921.879M2789.9 857.44H2854.34M2789.9 921.879V986.318M2789.9 921.879H2854.34M2789.9 986.318V1050.76M2789.9 986.318H2854.34M2789.9 1050.76V1115.2M2789.9 1050.76H2854.34M2789.9 1115.2V1179.64M2789.9 1115.2H2854.34M2789.9 1179.64V1244.08M2789.9 1179.64H2854.34M2789.9 1244.08V1308.52M2789.9 1244.08H2854.34M2789.9 1308.52H2854.34V1244.08M2854.34 84.166V148.605M2854.34 148.605V213.045M2854.34 213.045V277.484M2854.34 277.484V341.924M2854.34 341.924V406.363M2854.34 406.363V470.803M2854.34 470.803V535.242M2854.34 535.242V599.682M2854.34 599.682V664.121M2854.34 664.121V728.561M2854.34 728.561V793M2854.34 793V857.44M2854.34 857.44V921.879M2854.34 921.879V986.318M2854.34 986.318V1050.76M2854.34 1050.76V1115.2M2854.34 1115.2V1179.64M2854.34 1179.64V1244.08" stroke="url(#paint0_radial_6832_28614)" stroke-opacity="0.6" stroke-width="0.805493"/>
</g>
<g style="mix-blend-mode:soft-light" opacity="0.8">
<path d="M277.09 257.758V277.09M277.09 277.09V296.422M277.09 277.09H257.758M277.09 277.09H296.422M277.09 773.274V792.606M277.09 792.606V811.937M277.09 792.606H257.758M277.09 792.606H296.422M277.09 1288.79V1308.12M277.09 1308.12V1327.45M277.09 1308.12H257.758M277.09 1308.12H296.422M792.606 257.758V277.09M792.606 277.09V296.422M792.606 277.09H773.274M792.606 277.09H811.937M792.606 773.274V792.606M792.606 792.606V811.937M792.606 792.606H773.274M792.606 792.606H811.937M792.606 1288.79V1308.12M792.606 1308.12V1327.45M792.606 1308.12H773.274M792.606 1308.12H811.937M1308.12 257.758V277.09M1308.12 277.09V296.422M1308.12 277.09H1288.79M1308.12 277.09H1327.45M1308.12 773.274V792.606M1308.12 792.606V811.937M1308.12 792.606H1288.79M1308.12 792.606H1327.45M1308.12 1288.79V1308.12M1308.12 1308.12V1327.45M1308.12 1308.12H1288.79M1308.12 1308.12H1327.45M1823.64 257.758V277.09M1823.64 277.09V296.422M1823.64 277.09H1804.31M1823.64 277.09H1842.97M1823.64 773.274V792.606M1823.64 792.606V811.937M1823.64 792.606H1804.31M1823.64 792.606H1842.97M1823.64 1288.79V1308.12M1823.64 1308.12V1327.45M1823.64 1308.12H1804.31M1823.64 1308.12H1842.97M2339.15 257.758V277.09M2339.15 277.09V296.422M2339.15 277.09H2319.82M2339.15 277.09H2358.48M2339.15 773.274V792.606M2339.15 792.606V811.937M2339.15 792.606H2319.82M2339.15 792.606H2358.48M2339.15 1288.79V1308.12M2339.15 1308.12V1327.45M2339.15 1308.12H2319.82M2339.15 1308.12H2358.48M2854.67 257.758V277.09M2854.67 277.09V296.422M2854.67 277.09H2835.34M2854.67 277.09H2874M2854.67 773.274V792.606M2854.67 792.606V811.937M2854.67 792.606H2835.34M2854.67 792.606H2874M2854.67 1288.79V1308.12M2854.67 1308.12V1327.45M2854.67 1308.12H2835.34M2854.67 1308.12H2874M277.09 0.000211716V19.3321M277.09 19.3321V38.6639M277.09 19.3321H257.758M277.09 19.3321H296.422M277.09 515.516V534.848M277.09 534.848V554.18M277.09 534.848H257.758M277.09 534.848H296.422M277.09 1031.03V1050.36M277.09 1050.36V1069.7M277.09 1050.36H257.758M277.09 1050.36H296.422M792.606 0.000211716V19.3321M792.606 19.3321V38.6639M792.606 19.3321H773.274M792.606 19.3321H811.937M792.606 515.516V534.848M792.606 534.848V554.18M792.606 534.848H773.274M792.606 534.848H811.937M792.606 1031.03V1050.36M792.606 1050.36V1069.7M792.606 1050.36H773.274M792.606 1050.36H811.937M1308.12 0.000211716V19.3321M1308.12 19.3321V38.6639M1308.12 19.3321H1288.79M1308.12 19.3321H1327.45M1308.12 515.516V534.848M1308.12 534.848V554.18M1308.12 534.848H1288.79M1308.12 534.848H1327.45M1308.12 1031.03V1050.36M1308.12 1050.36V1069.7M1308.12 1050.36H1288.79M1308.12 1050.36H1327.45M1823.64 0.000211716V19.3321M1823.64 19.3321V38.6639M1823.64 19.3321H1804.31M1823.64 19.3321H1842.97M1823.64 515.516V534.848M1823.64 534.848V554.18M1823.64 534.848H1804.31M1823.64 534.848H1842.97M1823.64 1031.03V1050.36M1823.64 1050.36V1069.7M1823.64 1050.36H1804.31M1823.64 1050.36H1842.97M2339.15 0.000211716V19.3321M2339.15 19.3321V38.6639M2339.15 19.3321H2319.82M2339.15 19.3321H2358.48M2339.15 515.516V534.848M2339.15 534.848V554.18M2339.15 534.848H2319.82M2339.15 534.848H2358.48M2339.15 1031.03V1050.36M2339.15 1050.36V1069.7M2339.15 1050.36H2319.82M2339.15 1050.36H2358.48M2854.67 0.000211716V19.3321M2854.67 19.3321V38.6639M2854.67 19.3321H2835.34M2854.67 19.3321H2874M2854.67 515.516V534.848M2854.67 534.848V554.18M2854.67 534.848H2835.34M2854.67 534.848H2874M2854.67 1031.03V1050.36M2854.67 1050.36V1069.7M2854.67 1050.36H2835.34M2854.67 1050.36H2874M19.3318 257.758V277.09M19.3318 277.09V296.422M19.3318 277.09H0M19.3318 277.09H38.6637M19.3318 773.274V792.606M19.3318 792.606V811.937M19.3318 792.606H0M19.3318 792.606H38.6637M19.3318 1288.79V1308.12M19.3318 1308.12V1327.45M19.3318 1308.12H0M19.3318 1308.12H38.6637M534.848 257.758V277.09M534.848 277.09V296.422M534.848 277.09H515.516M534.848 277.09H554.18M534.848 773.274V792.606M534.848 792.606V811.937M534.848 792.606H515.516M534.848 792.606H554.18M534.848 1288.79V1308.12M534.848 1308.12V1327.45M534.848 1308.12H515.516M534.848 1308.12H554.18M1050.36 257.758V277.09M1050.36 277.09V296.422M1050.36 277.09H1031.03M1050.36 277.09H1069.7M1050.36 773.274V792.606M1050.36 792.606V811.937M1050.36 792.606H1031.03M1050.36 792.606H1069.7M1050.36 1288.79V1308.12M1050.36 1308.12V1327.45M1050.36 1308.12H1031.03M1050.36 1308.12H1069.7M1565.88 257.758V277.09M1565.88 277.09V296.422M1565.88 277.09H1546.55M1565.88 277.09H1585.21M1565.88 773.274V792.606M1565.88 792.606V811.937M1565.88 792.606H1546.55M1565.88 792.606H1585.21M1565.88 1288.79V1308.12M1565.88 1308.12V1327.45M1565.88 1308.12H1546.55M1565.88 1308.12H1585.21M2081.39 257.758V277.09M2081.39 277.09V296.422M2081.39 277.09H2062.06M2081.39 277.09H2100.73M2081.39 773.274V792.606M2081.39 792.606V811.937M2081.39 792.606H2062.06M2081.39 792.606H2100.73M2081.39 1288.79V1308.12M2081.39 1308.12V1327.45M2081.39 1308.12H2062.06M2081.39 1308.12H2100.73M2596.91 257.758V277.09M2596.91 277.09V296.422M2596.91 277.09H2577.58M2596.91 277.09H2616.24M2596.91 773.274V792.606M2596.91 792.606V811.937M2596.91 792.606H2577.58M2596.91 792.606H2616.24M2596.91 1288.79V1308.12M2596.91 1308.12V1327.45M2596.91 1308.12H2577.58M2596.91 1308.12H2616.24M19.3318 0.000306751V19.3321M19.3318 19.3321V38.664M19.3318 19.3321H0M19.3318 19.3321H38.6637M19.3318 515.516V534.848M19.3318 534.848V554.18M19.3318 534.848H0M19.3318 534.848H38.6637M19.3318 1031.03V1050.36M19.3318 1050.36V1069.7M19.3318 1050.36H0M19.3318 1050.36H38.6637M534.848 0.000211716V19.3321M534.848 19.3321V38.6639M534.848 19.3321H515.516M534.848 19.3321H554.18M534.848 515.516V534.848M534.848 534.848V554.18M534.848 534.848H515.516M534.848 534.848H554.18M534.848 1031.03V1050.36M534.848 1050.36V1069.7M534.848 1050.36H515.516M534.848 1050.36H554.18M1050.36 0.000211716V19.3321M1050.36 19.3321V38.6639M1050.36 19.3321H1031.03M1050.36 19.3321H1069.7M1050.36 515.516V534.848M1050.36 534.848V554.18M1050.36 534.848H1031.03M1050.36 534.848H1069.7M1050.36 1031.03V1050.36M1050.36 1050.36V1069.7M1050.36 1050.36H1031.03M1050.36 1050.36H1069.7M1565.88 0.000211716V19.3321M1565.88 19.3321V38.6639M1565.88 19.3321H1546.55M1565.88 19.3321H1585.21M1565.88 515.516V534.848M1565.88 534.848V554.18M1565.88 534.848H1546.55M1565.88 534.848H1585.21M1565.88 1031.03V1050.36M1565.88 1050.36V1069.7M1565.88 1050.36H1546.55M1565.88 1050.36H1585.21M2081.39 0.000211716V19.3321M2081.39 19.3321V38.6639M2081.39 19.3321H2062.06M2081.39 19.3321H2100.73M2081.39 515.516V534.848M2081.39 534.848V554.18M2081.39 534.848H2062.06M2081.39 534.848H2100.73M2081.39 1031.03V1050.36M2081.39 1050.36V1069.7M2081.39 1050.36H2062.06M2081.39 1050.36H2100.73M2596.91 0.000211716V19.3321M2596.91 19.3321V38.6639M2596.91 19.3321H2577.58M2596.91 19.3321H2616.24M2596.91 515.516V534.848M2596.91 534.848V554.18M2596.91 534.848H2577.58M2596.91 534.848H2616.24M2596.91 1031.03V1050.36M2596.91 1050.36V1069.7M2596.91 1050.36H2577.58M2596.91 1050.36H2616.24" stroke="url(#paint1_radial_6832_28614)" stroke-opacity="0.6" stroke-width="1.61099"/>
</g>
</g>
<defs>
<radialGradient id="paint0_radial_6832_28614" cx="0" cy="0" r="1" gradientUnits="userSpaceOnUse" gradientTransform="translate(1436.67 664.121) rotate(90) scale(644.395 1417.67)">
<stop/>
<stop offset="1" stop-opacity="0"/>
</radialGradient>
<radialGradient id="paint1_radial_6832_28614" cx="0" cy="0" r="1" gradientUnits="userSpaceOnUse" gradientTransform="translate(1437 663.727) rotate(90) scale(663.726 1437)">
<stop/>
<stop offset="1" stop-opacity="0"/>
</radialGradient>
</defs>
</svg>
