<svg width="1728" height="1117" viewBox="0 0 1728 1117" fill="none" xmlns="http://www.w3.org/2000/svg">
<g style="mix-blend-mode:soft-light" opacity="0.7">
<path d="M-489.561 -85.2735H-554V-20.834M-489.561 -85.2735V-20.834M-489.561 -85.2735H-425.121M-489.561 -20.834H-554M-489.561 -20.834V43.6054M-489.561 -20.834H-425.121M-554 -20.834V43.6054M-489.561 43.6054H-554M-489.561 43.6054V108.045M-489.561 43.6054H-425.121M-554 43.6054V108.045M-489.561 108.045H-554M-489.561 108.045V172.484M-489.561 108.045H-425.121M-554 108.045V172.484M-489.561 172.484H-554M-489.561 172.484V236.924M-489.561 172.484H-425.121M-554 172.484V236.924M-489.561 236.924H-554M-489.561 236.924V301.363M-489.561 236.924H-425.121M-554 236.924V301.363M-489.561 301.363H-554M-489.561 301.363V365.803M-489.561 301.363H-425.121M-554 301.363V365.803M-489.561 365.803H-554M-489.561 365.803V430.242M-489.561 365.803H-425.121M-554 365.803V430.242M-489.561 430.242H-554M-489.561 430.242V494.682M-489.561 430.242H-425.121M-554 430.242V494.682M-489.561 494.682H-554M-489.561 494.682V559.121M-489.561 494.682H-425.121M-554 494.682V559.121M-489.561 559.121H-554M-489.561 559.121V623.561M-489.561 559.121H-425.121M-554 559.121V623.561M-489.561 623.561H-554M-489.561 623.561V688M-489.561 623.561H-425.121M-554 623.561V688M-489.561 688H-554M-489.561 688V752.44M-489.561 688H-425.121M-554 688V752.44M-489.561 752.44H-554M-489.561 752.44V816.879M-489.561 752.44H-425.121M-554 752.44V816.879M-489.561 816.879H-554M-489.561 816.879V881.318M-489.561 816.879H-425.121M-554 816.879V881.318M-489.561 881.318H-554M-489.561 881.318V945.758M-489.561 881.318H-425.121M-554 881.318V945.758M-489.561 945.758H-554M-489.561 945.758V1010.2M-489.561 945.758H-425.121M-554 945.758V1010.2M-489.561 1010.2H-554M-489.561 1010.2V1074.64M-489.561 1010.2H-425.121M-554 1010.2V1074.64M-489.561 1074.64H-554M-489.561 1074.64V1139.08M-489.561 1074.64H-425.121M-554 1074.64V1139.08M-489.561 1139.08H-554M-489.561 1139.08V1203.52M-489.561 1139.08H-425.121M-554 1139.08V1203.52H-489.561M-489.561 1203.52H-425.121M-425.121 -85.2735V-20.834M-425.121 -85.2735H-360.682M-425.121 -20.834V43.6054M-425.121 -20.834H-360.682M-425.121 43.6054V108.045M-425.121 43.6054H-360.682M-425.121 108.045V172.484M-425.121 108.045H-360.682M-425.121 172.484V236.924M-425.121 172.484H-360.682M-425.121 236.924V301.363M-425.121 236.924H-360.682M-425.121 301.363V365.803M-425.121 301.363H-360.682M-425.121 365.803V430.242M-425.121 365.803H-360.682M-425.121 430.242V494.682M-425.121 430.242H-360.682M-425.121 494.682V559.121M-425.121 494.682H-360.682M-425.121 559.121V623.561M-425.121 559.121H-360.682M-425.121 623.561V688M-425.121 623.561H-360.682M-425.121 688V752.44M-425.121 688H-360.682M-425.121 752.44V816.879M-425.121 752.44H-360.682M-425.121 816.879V881.318M-425.121 816.879H-360.682M-425.121 881.318V945.758M-425.121 881.318H-360.682M-425.121 945.758V1010.2M-425.121 945.758H-360.682M-425.121 1010.2V1074.64M-425.121 1010.2H-360.682M-425.121 1074.64V1139.08M-425.121 1074.64H-360.682M-425.121 1139.08V1203.52M-425.121 1139.08H-360.682M-425.121 1203.52H-360.682M-360.682 -85.2735V-20.834M-360.682 -85.2735H-296.242M-360.682 -20.834V43.6054M-360.682 -20.834H-296.242M-360.682 43.6054V108.045M-360.682 43.6054H-296.242M-360.682 108.045V172.484M-360.682 108.045H-296.242M-360.682 172.484V236.924M-360.682 172.484H-296.242M-360.682 236.924V301.363M-360.682 236.924H-296.242M-360.682 301.363V365.803M-360.682 301.363H-296.242M-360.682 365.803V430.242M-360.682 365.803H-296.242M-360.682 430.242V494.682M-360.682 430.242H-296.242M-360.682 494.682V559.121M-360.682 494.682H-296.242M-360.682 559.121V623.561M-360.682 559.121H-296.242M-360.682 623.561V688M-360.682 623.561H-296.242M-360.682 688V752.44M-360.682 688H-296.242M-360.682 752.44V816.879M-360.682 752.44H-296.242M-360.682 816.879V881.318M-360.682 816.879H-296.242M-360.682 881.318V945.758M-360.682 881.318H-296.242M-360.682 945.758V1010.2M-360.682 945.758H-296.242M-360.682 1010.2V1074.64M-360.682 1010.2H-296.242M-360.682 1074.64V1139.08M-360.682 1074.64H-296.242M-360.682 1139.08V1203.52M-360.682 1139.08H-296.242M-360.682 1203.52H-296.242M-296.242 -85.2735V-20.834M-296.242 -85.2735H-231.803M-296.242 -20.834V43.6054M-296.242 -20.834H-231.803M-296.242 43.6054V108.045M-296.242 43.6054H-231.803M-296.242 108.045V172.484M-296.242 108.045H-231.803M-296.242 172.484V236.924M-296.242 172.484H-231.803M-296.242 236.924V301.363M-296.242 236.924H-231.803M-296.242 301.363V365.803M-296.242 301.363H-231.803M-296.242 365.803V430.242M-296.242 365.803H-231.803M-296.242 430.242V494.682M-296.242 430.242H-231.803M-296.242 494.682V559.121M-296.242 494.682H-231.803M-296.242 559.121V623.561M-296.242 559.121H-231.803M-296.242 623.561V688M-296.242 623.561H-231.803M-296.242 688V752.44M-296.242 688H-231.803M-296.242 752.44V816.879M-296.242 752.44H-231.803M-296.242 816.879V881.318M-296.242 816.879H-231.803M-296.242 881.318V945.758M-296.242 881.318H-231.803M-296.242 945.758V1010.2M-296.242 945.758H-231.803M-296.242 1010.2V1074.64M-296.242 1010.2H-231.803M-296.242 1074.64V1139.08M-296.242 1074.64H-231.803M-296.242 1139.08V1203.52M-296.242 1139.08H-231.803M-296.242 1203.52H-231.803M-231.803 -85.2735V-20.834M-231.803 -85.2735H-167.363M-231.803 -20.834V43.6054M-231.803 -20.834H-167.363M-231.803 43.6054V108.045M-231.803 43.6054H-167.363M-231.803 108.045V172.484M-231.803 108.045H-167.363M-231.803 172.484V236.924M-231.803 172.484H-167.363M-231.803 236.924V301.363M-231.803 236.924H-167.363M-231.803 301.363V365.803M-231.803 301.363H-167.363M-231.803 365.803V430.242M-231.803 365.803H-167.363M-231.803 430.242V494.682M-231.803 430.242H-167.363M-231.803 494.682V559.121M-231.803 494.682H-167.363M-231.803 559.121V623.561M-231.803 559.121H-167.363M-231.803 623.561V688M-231.803 623.561H-167.363M-231.803 688V752.44M-231.803 688H-167.363M-231.803 752.44V816.879M-231.803 752.44H-167.363M-231.803 816.879V881.318M-231.803 816.879H-167.363M-231.803 881.318V945.758M-231.803 881.318H-167.363M-231.803 945.758V1010.2M-231.803 945.758H-167.363M-231.803 1010.2V1074.64M-231.803 1010.2H-167.363M-231.803 1074.64V1139.08M-231.803 1074.64H-167.363M-231.803 1139.08V1203.52M-231.803 1139.08H-167.363M-231.803 1203.52H-167.363M-167.363 -85.2735V-20.834M-167.363 -85.2735H-102.924M-167.363 -20.834V43.6054M-167.363 -20.834H-102.924M-167.363 43.6054V108.045M-167.363 43.6054H-102.924M-167.363 108.045V172.484M-167.363 108.045H-102.924M-167.363 172.484V236.924M-167.363 172.484H-102.924M-167.363 236.924V301.363M-167.363 236.924H-102.924M-167.363 301.363V365.803M-167.363 301.363H-102.924M-167.363 365.803V430.242M-167.363 365.803H-102.924M-167.363 430.242V494.682M-167.363 430.242H-102.924M-167.363 494.682V559.121M-167.363 494.682H-102.924M-167.363 559.121V623.561M-167.363 559.121H-102.924M-167.363 623.561V688M-167.363 623.561H-102.924M-167.363 688V752.44M-167.363 688H-102.924M-167.363 752.44V816.879M-167.363 752.44H-102.924M-167.363 816.879V881.318M-167.363 816.879H-102.924M-167.363 881.318V945.758M-167.363 881.318H-102.924M-167.363 945.758V1010.2M-167.363 945.758H-102.924M-167.363 1010.2V1074.64M-167.363 1010.2H-102.924M-167.363 1074.64V1139.08M-167.363 1074.64H-102.924M-167.363 1139.08V1203.52M-167.363 1139.08H-102.924M-167.363 1203.52H-102.924M-102.924 -85.2735V-20.834M-102.924 -85.2735H-38.4843M-102.924 -20.834V43.6054M-102.924 -20.834H-38.4843M-102.924 43.6054V108.045M-102.924 43.6054H-38.4843M-102.924 108.045V172.484M-102.924 108.045H-38.4843M-102.924 172.484V236.924M-102.924 172.484H-38.4843M-102.924 236.924V301.363M-102.924 236.924H-38.4843M-102.924 301.363V365.803M-102.924 301.363H-38.4843M-102.924 365.803V430.242M-102.924 365.803H-38.4843M-102.924 430.242V494.682M-102.924 430.242H-38.4843M-102.924 494.682V559.121M-102.924 494.682H-38.4843M-102.924 559.121V623.561M-102.924 559.121H-38.4843M-102.924 623.561V688M-102.924 623.561H-38.4843M-102.924 688V752.44M-102.924 688H-38.4843M-102.924 752.44V816.879M-102.924 752.44H-38.4843M-102.924 816.879V881.318M-102.924 816.879H-38.4843M-102.924 881.318V945.758M-102.924 881.318H-38.4843M-102.924 945.758V1010.2M-102.924 945.758H-38.4843M-102.924 1010.2V1074.64M-102.924 1010.2H-38.4843M-102.924 1074.64V1139.08M-102.924 1074.64H-38.4843M-102.924 1139.08V1203.52M-102.924 1139.08H-38.4843M-102.924 1203.52H-38.4843M-38.4843 -85.2735V-20.834M-38.4843 -85.2735H25.9552M-38.4843 -20.834V43.6054M-38.4843 -20.834H25.9552M-38.4843 43.6054V108.045M-38.4843 43.6054H25.9552M-38.4843 108.045V172.484M-38.4843 108.045H25.9552M-38.4843 172.484V236.924M-38.4843 172.484H25.9552M-38.4843 236.924V301.363M-38.4843 236.924H25.9552M-38.4843 301.363V365.803M-38.4843 301.363H25.9552M-38.4843 365.803V430.242M-38.4843 365.803H25.9552M-38.4843 430.242V494.682M-38.4843 430.242H25.9552M-38.4843 494.682V559.121M-38.4843 494.682H25.9552M-38.4843 559.121V623.561M-38.4843 559.121H25.9552M-38.4843 623.561V688M-38.4843 623.561H25.9552M-38.4843 688V752.44M-38.4843 688H25.9552M-38.4843 752.44V816.879M-38.4843 752.44H25.9552M-38.4843 816.879V881.318M-38.4843 816.879H25.9552M-38.4843 881.318V945.758M-38.4843 881.318H25.9552M-38.4843 945.758V1010.2M-38.4843 945.758H25.9552M-38.4843 1010.2V1074.64M-38.4843 1010.2H25.9552M-38.4843 1074.64V1139.08M-38.4843 1074.64H25.9552M-38.4843 1139.08V1203.52M-38.4843 1139.08H25.9552M-38.4843 1203.52H25.9552M25.9552 -85.2735V-20.834M25.9552 -85.2735H90.3947M25.9552 -20.834V43.6054M25.9552 -20.834H90.3947M25.9552 43.6054V108.045M25.9552 43.6054H90.3947M25.9552 108.045V172.484M25.9552 108.045H90.3947M25.9552 172.484V236.924M25.9552 172.484H90.3947M25.9552 236.924V301.363M25.9552 236.924H90.3947M25.9552 301.363V365.803M25.9552 301.363H90.3947M25.9552 365.803V430.242M25.9552 365.803H90.3947M25.9552 430.242V494.682M25.9552 430.242H90.3947M25.9552 494.682V559.121M25.9552 494.682H90.3947M25.9552 559.121V623.561M25.9552 559.121H90.3947M25.9552 623.561V688M25.9552 623.561H90.3947M25.9552 688V752.44M25.9552 688H90.3947M25.9552 752.44V816.879M25.9552 752.44H90.3947M25.9552 816.879V881.318M25.9552 816.879H90.3947M25.9552 881.318V945.758M25.9552 881.318H90.3947M25.9552 945.758V1010.2M25.9552 945.758H90.3947M25.9552 1010.2V1074.64M25.9552 1010.2H90.3947M25.9552 1074.64V1139.08M25.9552 1074.64H90.3947M25.9552 1139.08V1203.52M25.9552 1139.08H90.3947M25.9552 1203.52H90.3947M90.3947 -85.2735V-20.834M90.3947 -85.2735H154.834M90.3947 -20.834V43.6054M90.3947 -20.834H154.834M90.3947 43.6054V108.045M90.3947 43.6054H154.834M90.3947 108.045V172.484M90.3947 108.045H154.834M90.3947 172.484V236.924M90.3947 172.484H154.834M90.3947 236.924V301.363M90.3947 236.924H154.834M90.3947 301.363V365.803M90.3947 301.363H154.834M90.3947 365.803V430.242M90.3947 365.803H154.834M90.3947 430.242V494.682M90.3947 430.242H154.834M90.3947 494.682V559.121M90.3947 494.682H154.834M90.3947 559.121V623.561M90.3947 559.121H154.834M90.3947 623.561V688M90.3947 623.561H154.834M90.3947 688V752.44M90.3947 688H154.834M90.3947 752.44V816.879M90.3947 752.44H154.834M90.3947 816.879V881.318M90.3947 816.879H154.834M90.3947 881.318V945.758M90.3947 881.318H154.834M90.3947 945.758V1010.2M90.3947 945.758H154.834M90.3947 1010.2V1074.64M90.3947 1010.2H154.834M90.3947 1074.64V1139.08M90.3947 1074.64H154.834M90.3947 1139.08V1203.52M90.3947 1139.08H154.834M90.3947 1203.52H154.834M154.834 -85.2735V-20.834M154.834 -85.2735H219.274M154.834 -20.834V43.6054M154.834 -20.834H219.274M154.834 43.6054V108.045M154.834 43.6054H219.274M154.834 108.045V172.484M154.834 108.045H219.274M154.834 172.484V236.924M154.834 172.484H219.274M154.834 236.924V301.363M154.834 236.924H219.274M154.834 301.363V365.803M154.834 301.363H219.274M154.834 365.803V430.242M154.834 365.803H219.274M154.834 430.242V494.682M154.834 430.242H219.274M154.834 494.682V559.121M154.834 494.682H219.274M154.834 559.121V623.561M154.834 559.121H219.274M154.834 623.561V688M154.834 623.561H219.274M154.834 688V752.44M154.834 688H219.274M154.834 752.44V816.879M154.834 752.44H219.274M154.834 816.879V881.318M154.834 816.879H219.274M154.834 881.318V945.758M154.834 881.318H219.274M154.834 945.758V1010.2M154.834 945.758H219.274M154.834 1010.2V1074.64M154.834 1010.2H219.274M154.834 1074.64V1139.08M154.834 1074.64H219.274M154.834 1139.08V1203.52M154.834 1139.08H219.274M154.834 1203.52H219.274M219.274 -85.2735V-20.834M219.274 -85.2735H283.713M219.274 -20.834V43.6054M219.274 -20.834H283.713M219.274 43.6054V108.045M219.274 43.6054H283.713M219.274 108.045V172.484M219.274 108.045H283.713M219.274 172.484V236.924M219.274 172.484H283.713M219.274 236.924V301.363M219.274 236.924H283.713M219.274 301.363V365.803M219.274 301.363H283.713M219.274 365.803V430.242M219.274 365.803H283.713M219.274 430.242V494.682M219.274 430.242H283.713M219.274 494.682V559.121M219.274 494.682H283.713M219.274 559.121V623.561M219.274 559.121H283.713M219.274 623.561V688M219.274 623.561H283.713M219.274 688V752.44M219.274 688H283.713M219.274 752.44V816.879M219.274 752.44H283.713M219.274 816.879V881.318M219.274 816.879H283.713M219.274 881.318V945.758M219.274 881.318H283.713M219.274 945.758V1010.2M219.274 945.758H283.713M219.274 1010.2V1074.64M219.274 1010.2H283.713M219.274 1074.64V1139.08M219.274 1074.64H283.713M219.274 1139.08V1203.52M219.274 1139.08H283.713M219.274 1203.52H283.713M283.713 -85.2735V-20.834M283.713 -85.2735H348.153M283.713 -20.834V43.6054M283.713 -20.834H348.153M283.713 43.6054V108.045M283.713 43.6054H348.153M283.713 108.045V172.484M283.713 108.045H348.153M283.713 172.484V236.924M283.713 172.484H348.153M283.713 236.924V301.363M283.713 236.924H348.153M283.713 301.363V365.803M283.713 301.363H348.153M283.713 365.803V430.242M283.713 365.803H348.153M283.713 430.242V494.682M283.713 430.242H348.153M283.713 494.682V559.121M283.713 494.682H348.153M283.713 559.121V623.561M283.713 559.121H348.153M283.713 623.561V688M283.713 623.561H348.153M283.713 688V752.44M283.713 688H348.153M283.713 752.44V816.879M283.713 752.44H348.153M283.713 816.879V881.318M283.713 816.879H348.153M283.713 881.318V945.758M283.713 881.318H348.153M283.713 945.758V1010.2M283.713 945.758H348.153M283.713 1010.2V1074.64M283.713 1010.2H348.153M283.713 1074.64V1139.08M283.713 1074.64H348.153M283.713 1139.08V1203.52M283.713 1139.08H348.153M283.713 1203.52H348.153M348.153 -85.2735V-20.834M348.153 -85.2735H412.592M348.153 -20.834V43.6054M348.153 -20.834H412.592M348.153 43.6054V108.045M348.153 43.6054H412.592M348.153 108.045V172.484M348.153 108.045H412.592M348.153 172.484V236.924M348.153 172.484H412.592M348.153 236.924V301.363M348.153 236.924H412.592M348.153 301.363V365.803M348.153 301.363H412.592M348.153 365.803V430.242M348.153 365.803H412.592M348.153 430.242V494.682M348.153 430.242H412.592M348.153 494.682V559.121M348.153 494.682H412.592M348.153 559.121V623.561M348.153 559.121H412.592M348.153 623.561V688M348.153 623.561H412.592M348.153 688V752.44M348.153 688H412.592M348.153 752.44V816.879M348.153 752.44H412.592M348.153 816.879V881.318M348.153 816.879H412.592M348.153 881.318V945.758M348.153 881.318H412.592M348.153 945.758V1010.2M348.153 945.758H412.592M348.153 1010.2V1074.64M348.153 1010.2H412.592M348.153 1074.64V1139.08M348.153 1074.64H412.592M348.153 1139.08V1203.52M348.153 1139.08H412.592M348.153 1203.52H412.592M412.592 -85.2735V-20.834M412.592 -85.2735H477.031M412.592 -20.834V43.6054M412.592 -20.834H477.031M412.592 43.6054V108.045M412.592 43.6054H477.031M412.592 108.045V172.484M412.592 108.045H477.031M412.592 172.484V236.924M412.592 172.484H477.031M412.592 236.924V301.363M412.592 236.924H477.031M412.592 301.363V365.803M412.592 301.363H477.031M412.592 365.803V430.242M412.592 365.803H477.031M412.592 430.242V494.682M412.592 430.242H477.031M412.592 494.682V559.121M412.592 494.682H477.031M412.592 559.121V623.561M412.592 559.121H477.031M412.592 623.561V688M412.592 623.561H477.031M412.592 688V752.44M412.592 688H477.031M412.592 752.44V816.879M412.592 752.44H477.031M412.592 816.879V881.318M412.592 816.879H477.031M412.592 881.318V945.758M412.592 881.318H477.031M412.592 945.758V1010.2M412.592 945.758H477.031M412.592 1010.2V1074.64M412.592 1010.2H477.031M412.592 1074.64V1139.08M412.592 1074.64H477.031M412.592 1139.08V1203.52M412.592 1139.08H477.031M412.592 1203.52H477.031M477.031 -85.2735V-20.834M477.031 -85.2735H541.471M477.031 -20.834V43.6054M477.031 -20.834H541.471M477.031 43.6054V108.045M477.031 43.6054H541.471M477.031 108.045V172.484M477.031 108.045H541.471M477.031 172.484V236.924M477.031 172.484H541.471M477.031 236.924V301.363M477.031 236.924H541.471M477.031 301.363V365.803M477.031 301.363H541.471M477.031 365.803V430.242M477.031 365.803H541.471M477.031 430.242V494.682M477.031 430.242H541.471M477.031 494.682V559.121M477.031 494.682H541.471M477.031 559.121V623.561M477.031 559.121H541.471M477.031 623.561V688M477.031 623.561H541.471M477.031 688V752.44M477.031 688H541.471M477.031 752.44V816.879M477.031 752.44H541.471M477.031 816.879V881.318M477.031 816.879H541.471M477.031 881.318V945.758M477.031 881.318H541.471M477.031 945.758V1010.2M477.031 945.758H541.471M477.031 1010.2V1074.64M477.031 1010.2H541.471M477.031 1074.64V1139.08M477.031 1074.64H541.471M477.031 1139.08V1203.52M477.031 1139.08H541.471M477.031 1203.52H541.471M541.471 -85.2735V-20.834M541.471 -85.2735H605.91M541.471 -20.834V43.6054M541.471 -20.834H605.91M541.471 43.6054V108.045M541.471 43.6054H605.91M541.471 108.045V172.484M541.471 108.045H605.91M541.471 172.484V236.924M541.471 172.484H605.91M541.471 236.924V301.363M541.471 236.924H605.91M541.471 301.363V365.803M541.471 301.363H605.91M541.471 365.803V430.242M541.471 365.803H605.91M541.471 430.242V494.682M541.471 430.242H605.91M541.471 494.682V559.121M541.471 494.682H605.91M541.471 559.121V623.561M541.471 559.121H605.91M541.471 623.561V688M541.471 623.561H605.91M541.471 688V752.44M541.471 688H605.91M541.471 752.44V816.879M541.471 752.44H605.91M541.471 816.879V881.318M541.471 816.879H605.91M541.471 881.318V945.758M541.471 881.318H605.91M541.471 945.758V1010.2M541.471 945.758H605.91M541.471 1010.2V1074.64M541.471 1010.2H605.91M541.471 1074.64V1139.08M541.471 1074.64H605.91M541.471 1139.08V1203.52M541.471 1139.08H605.91M541.471 1203.52H605.91M605.91 -85.2735V-20.834M605.91 -85.2735H670.35M605.91 -20.834V43.6054M605.91 -20.834H670.35M605.91 43.6054V108.045M605.91 43.6054H670.35M605.91 108.045V172.484M605.91 108.045H670.35M605.91 172.484V236.924M605.91 172.484H670.35M605.91 236.924V301.363M605.91 236.924H670.35M605.91 301.363V365.803M605.91 301.363H670.35M605.91 365.803V430.242M605.91 365.803H670.35M605.91 430.242V494.682M605.91 430.242H670.35M605.91 494.682V559.121M605.91 494.682H670.35M605.91 559.121V623.561M605.91 559.121H670.35M605.91 623.561V688M605.91 623.561H670.35M605.91 688V752.44M605.91 688H670.35M605.91 752.44V816.879M605.91 752.44H670.35M605.91 816.879V881.318M605.91 816.879H670.35M605.91 881.318V945.758M605.91 881.318H670.35M605.91 945.758V1010.2M605.91 945.758H670.35M605.91 1010.2V1074.64M605.91 1010.2H670.35M605.91 1074.64V1139.08M605.91 1074.64H670.35M605.91 1139.08V1203.52M605.91 1139.08H670.35M605.91 1203.52H670.35M670.35 -85.2735V-20.834M670.35 -85.2735H734.789M670.35 -20.834V43.6054M670.35 -20.834H734.789M670.35 43.6054V108.045M670.35 43.6054H734.789M670.35 108.045V172.484M670.35 108.045H734.789M670.35 172.484V236.924M670.35 172.484H734.789M670.35 236.924V301.363M670.35 236.924H734.789M670.35 301.363V365.803M670.35 301.363H734.789M670.35 365.803V430.242M670.35 365.803H734.789M670.35 430.242V494.682M670.35 430.242H734.789M670.35 494.682V559.121M670.35 494.682H734.789M670.35 559.121V623.561M670.35 559.121H734.789M670.35 623.561V688M670.35 623.561H734.789M670.35 688V752.44M670.35 688H734.789M670.35 752.44V816.879M670.35 752.44H734.789M670.35 816.879V881.318M670.35 816.879H734.789M670.35 881.318V945.758M670.35 881.318H734.789M670.35 945.758V1010.2M670.35 945.758H734.789M670.35 1010.2V1074.64M670.35 1010.2H734.789M670.35 1074.64V1139.08M670.35 1074.64H734.789M670.35 1139.08V1203.52M670.35 1139.08H734.789M670.35 1203.52H734.789M734.789 -85.2735V-20.834M734.789 -85.2735H799.229M734.789 -20.834V43.6054M734.789 -20.834H799.229M734.789 43.6054V108.045M734.789 43.6054H799.229M734.789 108.045V172.484M734.789 108.045H799.229M734.789 172.484V236.924M734.789 172.484H799.229M734.789 236.924V301.363M734.789 236.924H799.229M734.789 301.363V365.803M734.789 301.363H799.229M734.789 365.803V430.242M734.789 365.803H799.229M734.789 430.242V494.682M734.789 430.242H799.229M734.789 494.682V559.121M734.789 494.682H799.229M734.789 559.121V623.561M734.789 559.121H799.229M734.789 623.561V688M734.789 623.561H799.229M734.789 688V752.44M734.789 688H799.229M734.789 752.44V816.879M734.789 752.44H799.229M734.789 816.879V881.318M734.789 816.879H799.229M734.789 881.318V945.758M734.789 881.318H799.229M734.789 945.758V1010.2M734.789 945.758H799.229M734.789 1010.2V1074.64M734.789 1010.2H799.229M734.789 1074.64V1139.08M734.789 1074.64H799.229M734.789 1139.08V1203.52M734.789 1139.08H799.229M734.789 1203.52H799.229M799.229 -85.2735V-20.834M799.229 -85.2735H863.668M799.229 -20.834V43.6054M799.229 -20.834H863.668M799.229 43.6054V108.045M799.229 43.6054H863.668M799.229 108.045V172.484M799.229 108.045H863.668M799.229 172.484V236.924M799.229 172.484H863.668M799.229 236.924V301.363M799.229 236.924H863.668M799.229 301.363V365.803M799.229 301.363H863.668M799.229 365.803V430.242M799.229 365.803H863.668M799.229 430.242V494.682M799.229 430.242H863.668M799.229 494.682V559.121M799.229 494.682H863.668M799.229 559.121V623.561M799.229 559.121H863.668M799.229 623.561V688M799.229 623.561H863.668M799.229 688V752.44M799.229 688H863.668M799.229 752.44V816.879M799.229 752.44H863.668M799.229 816.879V881.318M799.229 816.879H863.668M799.229 881.318V945.758M799.229 881.318H863.668M799.229 945.758V1010.2M799.229 945.758H863.668M799.229 1010.2V1074.64M799.229 1010.2H863.668M799.229 1074.64V1139.08M799.229 1074.64H863.668M799.229 1139.08V1203.52M799.229 1139.08H863.668M799.229 1203.52H863.668M863.668 -85.2735V-20.834M863.668 -85.2735H928.108M863.668 -20.834V43.6054M863.668 -20.834H928.108M863.668 43.6054V108.045M863.668 43.6054H928.108M863.668 108.045V172.484M863.668 108.045H928.108M863.668 172.484V236.924M863.668 172.484H928.108M863.668 236.924V301.363M863.668 236.924H928.108M863.668 301.363V365.803M863.668 301.363H928.108M863.668 365.803V430.242M863.668 365.803H928.108M863.668 430.242V494.682M863.668 430.242H928.108M863.668 494.682V559.121M863.668 494.682H928.108M863.668 559.121V623.561M863.668 559.121H928.108M863.668 623.561V688M863.668 623.561H928.108M863.668 688V752.44M863.668 688H928.108M863.668 752.44V816.879M863.668 752.44H928.108M863.668 816.879V881.318M863.668 816.879H928.108M863.668 881.318V945.758M863.668 881.318H928.108M863.668 945.758V1010.2M863.668 945.758H928.108M863.668 1010.2V1074.64M863.668 1010.2H928.108M863.668 1074.64V1139.08M863.668 1074.64H928.108M863.668 1139.08V1203.52M863.668 1139.08H928.108M863.668 1203.52H928.108M928.108 -85.2735V-20.834M928.108 -85.2735H992.547M928.108 -20.834V43.6054M928.108 -20.834H992.547M928.108 43.6054V108.045M928.108 43.6054H992.547M928.108 108.045V172.484M928.108 108.045H992.547M928.108 172.484V236.924M928.108 172.484H992.547M928.108 236.924V301.363M928.108 236.924H992.547M928.108 301.363V365.803M928.108 301.363H992.547M928.108 365.803V430.242M928.108 365.803H992.547M928.108 430.242V494.682M928.108 430.242H992.547M928.108 494.682V559.121M928.108 494.682H992.547M928.108 559.121V623.561M928.108 559.121H992.547M928.108 623.561V688M928.108 623.561H992.547M928.108 688V752.44M928.108 688H992.547M928.108 752.44V816.879M928.108 752.44H992.547M928.108 816.879V881.318M928.108 816.879H992.547M928.108 881.318V945.758M928.108 881.318H992.547M928.108 945.758V1010.2M928.108 945.758H992.547M928.108 1010.2V1074.64M928.108 1010.2H992.547M928.108 1074.64V1139.08M928.108 1074.64H992.547M928.108 1139.08V1203.52M928.108 1139.08H992.547M928.108 1203.52H992.547M992.547 -85.2735V-20.834M992.547 -85.2735H1056.99M992.547 -20.834V43.6054M992.547 -20.834H1056.99M992.547 43.6054V108.045M992.547 43.6054H1056.99M992.547 108.045V172.484M992.547 108.045H1056.99M992.547 172.484V236.924M992.547 172.484H1056.99M992.547 236.924V301.363M992.547 236.924H1056.99M992.547 301.363V365.803M992.547 301.363H1056.99M992.547 365.803V430.242M992.547 365.803H1056.99M992.547 430.242V494.682M992.547 430.242H1056.99M992.547 494.682V559.121M992.547 494.682H1056.99M992.547 559.121V623.561M992.547 559.121H1056.99M992.547 623.561V688M992.547 623.561H1056.99M992.547 688V752.44M992.547 688H1056.99M992.547 752.44V816.879M992.547 752.44H1056.99M992.547 816.879V881.318M992.547 816.879H1056.99M992.547 881.318V945.758M992.547 881.318H1056.99M992.547 945.758V1010.2M992.547 945.758H1056.99M992.547 1010.2V1074.64M992.547 1010.2H1056.99M992.547 1074.64V1139.08M992.547 1074.64H1056.99M992.547 1139.08V1203.52M992.547 1139.08H1056.99M992.547 1203.52H1056.99M1056.99 -85.2735V-20.834M1056.99 -85.2735H1121.43M1056.99 -20.834V43.6054M1056.99 -20.834H1121.43M1056.99 43.6054V108.045M1056.99 43.6054H1121.43M1056.99 108.045V172.484M1056.99 108.045H1121.43M1056.99 172.484V236.924M1056.99 172.484H1121.43M1056.99 236.924V301.363M1056.99 236.924H1121.43M1056.99 301.363V365.803M1056.99 301.363H1121.43M1056.99 365.803V430.242M1056.99 365.803H1121.43M1056.99 430.242V494.682M1056.99 430.242H1121.43M1056.99 494.682V559.121M1056.99 494.682H1121.43M1056.99 559.121V623.561M1056.99 559.121H1121.43M1056.99 623.561V688M1056.99 623.561H1121.43M1056.99 688V752.44M1056.99 688H1121.43M1056.99 752.44V816.879M1056.99 752.44H1121.43M1056.99 816.879V881.318M1056.99 816.879H1121.43M1056.99 881.318V945.758M1056.99 881.318H1121.43M1056.99 945.758V1010.2M1056.99 945.758H1121.43M1056.99 1010.2V1074.64M1056.99 1010.2H1121.43M1056.99 1074.64V1139.08M1056.99 1074.64H1121.43M1056.99 1139.08V1203.52M1056.99 1139.08H1121.43M1056.99 1203.52H1121.43M1121.43 -85.2735V-20.834M1121.43 -85.2735H1185.87M1121.43 -20.834V43.6054M1121.43 -20.834H1185.87M1121.43 43.6054V108.045M1121.43 43.6054H1185.87M1121.43 108.045V172.484M1121.43 108.045H1185.87M1121.43 172.484V236.924M1121.43 172.484H1185.87M1121.43 236.924V301.363M1121.43 236.924H1185.87M1121.43 301.363V365.803M1121.43 301.363H1185.87M1121.43 365.803V430.242M1121.43 365.803H1185.87M1121.43 430.242V494.682M1121.43 430.242H1185.87M1121.43 494.682V559.121M1121.43 494.682H1185.87M1121.43 559.121V623.561M1121.43 559.121H1185.87M1121.43 623.561V688M1121.43 623.561H1185.87M1121.43 688V752.44M1121.43 688H1185.87M1121.43 752.44V816.879M1121.43 752.44H1185.87M1121.43 816.879V881.318M1121.43 816.879H1185.87M1121.43 881.318V945.758M1121.43 881.318H1185.87M1121.43 945.758V1010.2M1121.43 945.758H1185.87M1121.43 1010.2V1074.64M1121.43 1010.2H1185.87M1121.43 1074.64V1139.08M1121.43 1074.64H1185.87M1121.43 1139.08V1203.52M1121.43 1139.08H1185.87M1121.43 1203.52H1185.87M1185.87 -85.2735V-20.834M1185.87 -85.2735H1250.31M1185.87 -20.834V43.6054M1185.87 -20.834H1250.31M1185.87 43.6054V108.045M1185.87 43.6054H1250.31M1185.87 108.045V172.484M1185.87 108.045H1250.31M1185.87 172.484V236.924M1185.87 172.484H1250.31M1185.87 236.924V301.363M1185.87 236.924H1250.31M1185.87 301.363V365.803M1185.87 301.363H1250.31M1185.87 365.803V430.242M1185.87 365.803H1250.31M1185.87 430.242V494.682M1185.87 430.242H1250.31M1185.87 494.682V559.121M1185.87 494.682H1250.31M1185.87 559.121V623.561M1185.87 559.121H1250.31M1185.87 623.561V688M1185.87 623.561H1250.31M1185.87 688V752.44M1185.87 688H1250.31M1185.87 752.44V816.879M1185.87 752.44H1250.31M1185.87 816.879V881.318M1185.87 816.879H1250.31M1185.87 881.318V945.758M1185.87 881.318H1250.31M1185.87 945.758V1010.2M1185.87 945.758H1250.31M1185.87 1010.2V1074.64M1185.87 1010.2H1250.31M1185.87 1074.64V1139.08M1185.87 1074.64H1250.31M1185.87 1139.08V1203.52M1185.87 1139.08H1250.31M1185.87 1203.52H1250.31M1250.31 -85.2735V-20.834M1250.31 -85.2735H1314.74M1250.31 -20.834V43.6054M1250.31 -20.834H1314.74M1250.31 43.6054V108.045M1250.31 43.6054H1314.74M1250.31 108.045V172.484M1250.31 108.045H1314.74M1250.31 172.484V236.924M1250.31 172.484H1314.74M1250.31 236.924V301.363M1250.31 236.924H1314.74M1250.31 301.363V365.803M1250.31 301.363H1314.74M1250.31 365.803V430.242M1250.31 365.803H1314.74M1250.31 430.242V494.682M1250.31 430.242H1314.74M1250.31 494.682V559.121M1250.31 494.682H1314.74M1250.31 559.121V623.561M1250.31 559.121H1314.74M1250.31 623.561V688M1250.31 623.561H1314.74M1250.31 688V752.44M1250.31 688H1314.74M1250.31 752.44V816.879M1250.31 752.44H1314.74M1250.31 816.879V881.318M1250.31 816.879H1314.74M1250.31 881.318V945.758M1250.31 881.318H1314.74M1250.31 945.758V1010.2M1250.31 945.758H1314.74M1250.31 1010.2V1074.64M1250.31 1010.2H1314.74M1250.31 1074.64V1139.08M1250.31 1074.64H1314.74M1250.31 1139.08V1203.52M1250.31 1139.08H1314.74M1250.31 1203.52H1314.74M1314.74 -85.2735V-20.834M1314.74 -85.2735H1379.18M1314.74 -20.834V43.6054M1314.74 -20.834H1379.18M1314.74 43.6054V108.045M1314.74 43.6054H1379.18M1314.74 108.045V172.484M1314.74 108.045H1379.18M1314.74 172.484V236.924M1314.74 172.484H1379.18M1314.74 236.924V301.363M1314.74 236.924H1379.18M1314.74 301.363V365.803M1314.74 301.363H1379.18M1314.74 365.803V430.242M1314.74 365.803H1379.18M1314.74 430.242V494.682M1314.74 430.242H1379.18M1314.74 494.682V559.121M1314.74 494.682H1379.18M1314.74 559.121V623.561M1314.74 559.121H1379.18M1314.74 623.561V688M1314.74 623.561H1379.18M1314.74 688V752.44M1314.74 688H1379.18M1314.74 752.44V816.879M1314.74 752.44H1379.18M1314.74 816.879V881.318M1314.74 816.879H1379.18M1314.74 881.318V945.758M1314.74 881.318H1379.18M1314.74 945.758V1010.2M1314.74 945.758H1379.18M1314.74 1010.2V1074.64M1314.74 1010.2H1379.18M1314.74 1074.64V1139.08M1314.74 1074.64H1379.18M1314.74 1139.08V1203.52M1314.74 1139.08H1379.18M1314.74 1203.52H1379.18M1379.18 -85.2735V-20.834M1379.18 -85.2735H1443.62M1379.18 -20.834V43.6054M1379.18 -20.834H1443.62M1379.18 43.6054V108.045M1379.18 43.6054H1443.62M1379.18 108.045V172.484M1379.18 108.045H1443.62M1379.18 172.484V236.924M1379.18 172.484H1443.62M1379.18 236.924V301.363M1379.18 236.924H1443.62M1379.18 301.363V365.803M1379.18 301.363H1443.62M1379.18 365.803V430.242M1379.18 365.803H1443.62M1379.18 430.242V494.682M1379.18 430.242H1443.62M1379.18 494.682V559.121M1379.18 494.682H1443.62M1379.18 559.121V623.561M1379.18 559.121H1443.62M1379.18 623.561V688M1379.18 623.561H1443.62M1379.18 688V752.44M1379.18 688H1443.62M1379.18 752.44V816.879M1379.18 752.44H1443.62M1379.18 816.879V881.318M1379.18 816.879H1443.62M1379.18 881.318V945.758M1379.18 881.318H1443.62M1379.18 945.758V1010.2M1379.18 945.758H1443.62M1379.18 1010.2V1074.64M1379.18 1010.2H1443.62M1379.18 1074.64V1139.08M1379.18 1074.64H1443.62M1379.18 1139.08V1203.52M1379.18 1139.08H1443.62M1379.18 1203.52H1443.62M1443.62 -85.2735V-20.834M1443.62 -85.2735H1508.06M1443.62 -20.834V43.6054M1443.62 -20.834H1508.06M1443.62 43.6054V108.045M1443.62 43.6054H1508.06M1443.62 108.045V172.484M1443.62 108.045H1508.06M1443.62 172.484V236.924M1443.62 172.484H1508.06M1443.62 236.924V301.363M1443.62 236.924H1508.06M1443.62 301.363V365.803M1443.62 301.363H1508.06M1443.62 365.803V430.242M1443.62 365.803H1508.06M1443.62 430.242V494.682M1443.62 430.242H1508.06M1443.62 494.682V559.121M1443.62 494.682H1508.06M1443.62 559.121V623.561M1443.62 559.121H1508.06M1443.62 623.561V688M1443.62 623.561H1508.06M1443.62 688V752.44M1443.62 688H1508.06M1443.62 752.44V816.879M1443.62 752.44H1508.06M1443.62 816.879V881.318M1443.62 816.879H1508.06M1443.62 881.318V945.758M1443.62 881.318H1508.06M1443.62 945.758V1010.2M1443.62 945.758H1508.06M1443.62 1010.2V1074.64M1443.62 1010.2H1508.06M1443.62 1074.64V1139.08M1443.62 1074.64H1508.06M1443.62 1139.08V1203.52M1443.62 1139.08H1508.06M1443.62 1203.52H1508.06M1508.06 -85.2735V-20.834M1508.06 -85.2735H1572.5M1508.06 -20.834V43.6054M1508.06 -20.834H1572.5M1508.06 43.6054V108.045M1508.06 43.6054H1572.5M1508.06 108.045V172.484M1508.06 108.045H1572.5M1508.06 172.484V236.924M1508.06 172.484H1572.5M1508.06 236.924V301.363M1508.06 236.924H1572.5M1508.06 301.363V365.803M1508.06 301.363H1572.5M1508.06 365.803V430.242M1508.06 365.803H1572.5M1508.06 430.242V494.682M1508.06 430.242H1572.5M1508.06 494.682V559.121M1508.06 494.682H1572.5M1508.06 559.121V623.561M1508.06 559.121H1572.5M1508.06 623.561V688M1508.06 623.561H1572.5M1508.06 688V752.44M1508.06 688H1572.5M1508.06 752.44V816.879M1508.06 752.44H1572.5M1508.06 816.879V881.318M1508.06 816.879H1572.5M1508.06 881.318V945.758M1508.06 881.318H1572.5M1508.06 945.758V1010.2M1508.06 945.758H1572.5M1508.06 1010.2V1074.64M1508.06 1010.2H1572.5M1508.06 1074.64V1139.08M1508.06 1074.64H1572.5M1508.06 1139.08V1203.52M1508.06 1139.08H1572.5M1508.06 1203.52H1572.5M1572.5 -85.2735V-20.834M1572.5 -85.2735H1636.94M1572.5 -20.834V43.6054M1572.5 -20.834H1636.94M1572.5 43.6054V108.045M1572.5 43.6054H1636.94M1572.5 108.045V172.484M1572.5 108.045H1636.94M1572.5 172.484V236.924M1572.5 172.484H1636.94M1572.5 236.924V301.363M1572.5 236.924H1636.94M1572.5 301.363V365.803M1572.5 301.363H1636.94M1572.5 365.803V430.242M1572.5 365.803H1636.94M1572.5 430.242V494.682M1572.5 430.242H1636.94M1572.5 494.682V559.121M1572.5 494.682H1636.94M1572.5 559.121V623.561M1572.5 559.121H1636.94M1572.5 623.561V688M1572.5 623.561H1636.94M1572.5 688V752.44M1572.5 688H1636.94M1572.5 752.44V816.879M1572.5 752.44H1636.94M1572.5 816.879V881.318M1572.5 816.879H1636.94M1572.5 881.318V945.758M1572.5 881.318H1636.94M1572.5 945.758V1010.2M1572.5 945.758H1636.94M1572.5 1010.2V1074.64M1572.5 1010.2H1636.94M1572.5 1074.64V1139.08M1572.5 1074.64H1636.94M1572.5 1139.08V1203.52M1572.5 1139.08H1636.94M1572.5 1203.52H1636.94M1636.94 -85.2735V-20.834M1636.94 -85.2735H1701.38M1636.94 -20.834V43.6054M1636.94 -20.834H1701.38M1636.94 43.6054V108.045M1636.94 43.6054H1701.38M1636.94 108.045V172.484M1636.94 108.045H1701.38M1636.94 172.484V236.924M1636.94 172.484H1701.38M1636.94 236.924V301.363M1636.94 236.924H1701.38M1636.94 301.363V365.803M1636.94 301.363H1701.38M1636.94 365.803V430.242M1636.94 365.803H1701.38M1636.94 430.242V494.682M1636.94 430.242H1701.38M1636.94 494.682V559.121M1636.94 494.682H1701.38M1636.94 559.121V623.561M1636.94 559.121H1701.38M1636.94 623.561V688M1636.94 623.561H1701.38M1636.94 688V752.44M1636.94 688H1701.38M1636.94 752.44V816.879M1636.94 752.44H1701.38M1636.94 816.879V881.318M1636.94 816.879H1701.38M1636.94 881.318V945.758M1636.94 881.318H1701.38M1636.94 945.758V1010.2M1636.94 945.758H1701.38M1636.94 1010.2V1074.64M1636.94 1010.2H1701.38M1636.94 1074.64V1139.08M1636.94 1074.64H1701.38M1636.94 1139.08V1203.52M1636.94 1139.08H1701.38M1636.94 1203.52H1701.38M1701.38 -85.2735V-20.834M1701.38 -85.2735H1765.82M1701.38 -20.834V43.6054M1701.38 -20.834H1765.82M1701.38 43.6054V108.045M1701.38 43.6054H1765.82M1701.38 108.045V172.484M1701.38 108.045H1765.82M1701.38 172.484V236.924M1701.38 172.484H1765.82M1701.38 236.924V301.363M1701.38 236.924H1765.82M1701.38 301.363V365.803M1701.38 301.363H1765.82M1701.38 365.803V430.242M1701.38 365.803H1765.82M1701.38 430.242V494.682M1701.38 430.242H1765.82M1701.38 494.682V559.121M1701.38 494.682H1765.82M1701.38 559.121V623.561M1701.38 559.121H1765.82M1701.38 623.561V688M1701.38 623.561H1765.82M1701.38 688V752.44M1701.38 688H1765.82M1701.38 752.44V816.879M1701.38 752.44H1765.82M1701.38 816.879V881.318M1701.38 816.879H1765.82M1701.38 881.318V945.758M1701.38 881.318H1765.82M1701.38 945.758V1010.2M1701.38 945.758H1765.82M1701.38 1010.2V1074.64M1701.38 1010.2H1765.82M1701.38 1074.64V1139.08M1701.38 1074.64H1765.82M1701.38 1139.08V1203.52M1701.38 1139.08H1765.82M1701.38 1203.52H1765.82M1765.82 -85.2735V-20.834M1765.82 -85.2735H1830.26M1765.82 -20.834V43.6054M1765.82 -20.834H1830.26M1765.82 43.6054V108.045M1765.82 43.6054H1830.26M1765.82 108.045V172.484M1765.82 108.045H1830.26M1765.82 172.484V236.924M1765.82 172.484H1830.26M1765.82 236.924V301.363M1765.82 236.924H1830.26M1765.82 301.363V365.803M1765.82 301.363H1830.26M1765.82 365.803V430.242M1765.82 365.803H1830.26M1765.82 430.242V494.682M1765.82 430.242H1830.26M1765.82 494.682V559.121M1765.82 494.682H1830.26M1765.82 559.121V623.561M1765.82 559.121H1830.26M1765.82 623.561V688M1765.82 623.561H1830.26M1765.82 688V752.44M1765.82 688H1830.26M1765.82 752.44V816.879M1765.82 752.44H1830.26M1765.82 816.879V881.318M1765.82 816.879H1830.26M1765.82 881.318V945.758M1765.82 881.318H1830.26M1765.82 945.758V1010.2M1765.82 945.758H1830.26M1765.82 1010.2V1074.64M1765.82 1010.2H1830.26M1765.82 1074.64V1139.08M1765.82 1074.64H1830.26M1765.82 1139.08V1203.52M1765.82 1139.08H1830.26M1765.82 1203.52H1830.26M1830.26 -85.2735V-20.834M1830.26 -85.2735H1894.7M1830.26 -20.834V43.6054M1830.26 -20.834H1894.7M1830.26 43.6054V108.045M1830.26 43.6054H1894.7M1830.26 108.045V172.484M1830.26 108.045H1894.7M1830.26 172.484V236.924M1830.26 172.484H1894.7M1830.26 236.924V301.363M1830.26 236.924H1894.7M1830.26 301.363V365.803M1830.26 301.363H1894.7M1830.26 365.803V430.242M1830.26 365.803H1894.7M1830.26 430.242V494.682M1830.26 430.242H1894.7M1830.26 494.682V559.121M1830.26 494.682H1894.7M1830.26 559.121V623.561M1830.26 559.121H1894.7M1830.26 623.561V688M1830.26 623.561H1894.7M1830.26 688V752.44M1830.26 688H1894.7M1830.26 752.44V816.879M1830.26 752.44H1894.7M1830.26 816.879V881.318M1830.26 816.879H1894.7M1830.26 881.318V945.758M1830.26 881.318H1894.7M1830.26 945.758V1010.2M1830.26 945.758H1894.7M1830.26 1010.2V1074.64M1830.26 1010.2H1894.7M1830.26 1074.64V1139.08M1830.26 1074.64H1894.7M1830.26 1139.08V1203.52M1830.26 1139.08H1894.7M1830.26 1203.52H1894.7M1894.7 -85.2735V-20.834M1894.7 -85.2735H1959.14M1894.7 -20.834V43.6054M1894.7 -20.834H1959.14M1894.7 43.6054V108.045M1894.7 43.6054H1959.14M1894.7 108.045V172.484M1894.7 108.045H1959.14M1894.7 172.484V236.924M1894.7 172.484H1959.14M1894.7 236.924V301.363M1894.7 236.924H1959.14M1894.7 301.363V365.803M1894.7 301.363H1959.14M1894.7 365.803V430.242M1894.7 365.803H1959.14M1894.7 430.242V494.682M1894.7 430.242H1959.14M1894.7 494.682V559.121M1894.7 494.682H1959.14M1894.7 559.121V623.561M1894.7 559.121H1959.14M1894.7 623.561V688M1894.7 623.561H1959.14M1894.7 688V752.44M1894.7 688H1959.14M1894.7 752.44V816.879M1894.7 752.44H1959.14M1894.7 816.879V881.318M1894.7 816.879H1959.14M1894.7 881.318V945.758M1894.7 881.318H1959.14M1894.7 945.758V1010.2M1894.7 945.758H1959.14M1894.7 1010.2V1074.64M1894.7 1010.2H1959.14M1894.7 1074.64V1139.08M1894.7 1074.64H1959.14M1894.7 1139.08V1203.52M1894.7 1139.08H1959.14M1894.7 1203.52H1959.14M1959.14 -85.2735V-20.834M1959.14 -85.2735H2023.58M1959.14 -20.834V43.6054M1959.14 -20.834H2023.58M1959.14 43.6054V108.045M1959.14 43.6054H2023.58M1959.14 108.045V172.484M1959.14 108.045H2023.58M1959.14 172.484V236.924M1959.14 172.484H2023.58M1959.14 236.924V301.363M1959.14 236.924H2023.58M1959.14 301.363V365.803M1959.14 301.363H2023.58M1959.14 365.803V430.242M1959.14 365.803H2023.58M1959.14 430.242V494.682M1959.14 430.242H2023.58M1959.14 494.682V559.121M1959.14 494.682H2023.58M1959.14 559.121V623.561M1959.14 559.121H2023.58M1959.14 623.561V688M1959.14 623.561H2023.58M1959.14 688V752.44M1959.14 688H2023.58M1959.14 752.44V816.879M1959.14 752.44H2023.58M1959.14 816.879V881.318M1959.14 816.879H2023.58M1959.14 881.318V945.758M1959.14 881.318H2023.58M1959.14 945.758V1010.2M1959.14 945.758H2023.58M1959.14 1010.2V1074.64M1959.14 1010.2H2023.58M1959.14 1074.64V1139.08M1959.14 1074.64H2023.58M1959.14 1139.08V1203.52M1959.14 1139.08H2023.58M1959.14 1203.52H2023.58M2023.58 -85.2735V-20.834M2023.58 -85.2735H2088.02M2023.58 -20.834V43.6054M2023.58 -20.834H2088.02M2023.58 43.6054V108.045M2023.58 43.6054H2088.02M2023.58 108.045V172.484M2023.58 108.045H2088.02M2023.58 172.484V236.924M2023.58 172.484H2088.02M2023.58 236.924V301.363M2023.58 236.924H2088.02M2023.58 301.363V365.803M2023.58 301.363H2088.02M2023.58 365.803V430.242M2023.58 365.803H2088.02M2023.58 430.242V494.682M2023.58 430.242H2088.02M2023.58 494.682V559.121M2023.58 494.682H2088.02M2023.58 559.121V623.561M2023.58 559.121H2088.02M2023.58 623.561V688M2023.58 623.561H2088.02M2023.58 688V752.44M2023.58 688H2088.02M2023.58 752.44V816.879M2023.58 752.44H2088.02M2023.58 816.879V881.318M2023.58 816.879H2088.02M2023.58 881.318V945.758M2023.58 881.318H2088.02M2023.58 945.758V1010.2M2023.58 945.758H2088.02M2023.58 1010.2V1074.64M2023.58 1010.2H2088.02M2023.58 1074.64V1139.08M2023.58 1074.64H2088.02M2023.58 1139.08V1203.52M2023.58 1139.08H2088.02M2023.58 1203.52H2088.02M2088.02 -85.2735V-20.834M2088.02 -85.2735H2152.46M2088.02 -20.834V43.6054M2088.02 -20.834H2152.46M2088.02 43.6054V108.045M2088.02 43.6054H2152.46M2088.02 108.045V172.484M2088.02 108.045H2152.46M2088.02 172.484V236.924M2088.02 172.484H2152.46M2088.02 236.924V301.363M2088.02 236.924H2152.46M2088.02 301.363V365.803M2088.02 301.363H2152.46M2088.02 365.803V430.242M2088.02 365.803H2152.46M2088.02 430.242V494.682M2088.02 430.242H2152.46M2088.02 494.682V559.121M2088.02 494.682H2152.46M2088.02 559.121V623.561M2088.02 559.121H2152.46M2088.02 623.561V688M2088.02 623.561H2152.46M2088.02 688V752.44M2088.02 688H2152.46M2088.02 752.44V816.879M2088.02 752.44H2152.46M2088.02 816.879V881.318M2088.02 816.879H2152.46M2088.02 881.318V945.758M2088.02 881.318H2152.46M2088.02 945.758V1010.2M2088.02 945.758H2152.46M2088.02 1010.2V1074.64M2088.02 1010.2H2152.46M2088.02 1074.64V1139.08M2088.02 1074.64H2152.46M2088.02 1139.08V1203.52M2088.02 1139.08H2152.46M2088.02 1203.52H2152.46M2152.46 -85.2735V-20.834M2152.46 -85.2735H2216.9M2152.46 -20.834V43.6054M2152.46 -20.834H2216.9M2152.46 43.6054V108.045M2152.46 43.6054H2216.9M2152.46 108.045V172.484M2152.46 108.045H2216.9M2152.46 172.484V236.924M2152.46 172.484H2216.9M2152.46 236.924V301.363M2152.46 236.924H2216.9M2152.46 301.363V365.803M2152.46 301.363H2216.9M2152.46 365.803V430.242M2152.46 365.803H2216.9M2152.46 430.242V494.682M2152.46 430.242H2216.9M2152.46 494.682V559.121M2152.46 494.682H2216.9M2152.46 559.121V623.561M2152.46 559.121H2216.9M2152.46 623.561V688M2152.46 623.561H2216.9M2152.46 688V752.44M2152.46 688H2216.9M2152.46 752.44V816.879M2152.46 752.44H2216.9M2152.46 816.879V881.318M2152.46 816.879H2216.9M2152.46 881.318V945.758M2152.46 881.318H2216.9M2152.46 945.758V1010.2M2152.46 945.758H2216.9M2152.46 1010.2V1074.64M2152.46 1010.2H2216.9M2152.46 1074.64V1139.08M2152.46 1074.64H2216.9M2152.46 1139.08V1203.52M2152.46 1139.08H2216.9M2152.46 1203.52H2216.9M2216.9 -85.2735V-20.834M2216.9 -85.2735H2281.34V-20.834M2216.9 -20.834V43.6054M2216.9 -20.834H2281.34M2216.9 43.6054V108.045M2216.9 43.6054H2281.34M2216.9 108.045V172.484M2216.9 108.045H2281.34M2216.9 172.484V236.924M2216.9 172.484H2281.34M2216.9 236.924V301.363M2216.9 236.924H2281.34M2216.9 301.363V365.803M2216.9 301.363H2281.34M2216.9 365.803V430.242M2216.9 365.803H2281.34M2216.9 430.242V494.682M2216.9 430.242H2281.34M2216.9 494.682V559.121M2216.9 494.682H2281.34M2216.9 559.121V623.561M2216.9 559.121H2281.34M2216.9 623.561V688M2216.9 623.561H2281.34M2216.9 688V752.44M2216.9 688H2281.34M2216.9 752.44V816.879M2216.9 752.44H2281.34M2216.9 816.879V881.318M2216.9 816.879H2281.34M2216.9 881.318V945.758M2216.9 881.318H2281.34M2216.9 945.758V1010.2M2216.9 945.758H2281.34M2216.9 1010.2V1074.64M2216.9 1010.2H2281.34M2216.9 1074.64V1139.08M2216.9 1074.64H2281.34M2216.9 1139.08V1203.52M2216.9 1139.08H2281.34M2216.9 1203.52H2281.34V1139.08M2281.34 -20.834V43.6054M2281.34 43.6054V108.045M2281.34 108.045V172.484M2281.34 172.484V236.924M2281.34 236.924V301.363M2281.34 301.363V365.803M2281.34 365.803V430.242M2281.34 430.242V494.682M2281.34 494.682V559.121M2281.34 559.121V623.561M2281.34 623.561V688M2281.34 688V752.44M2281.34 752.44V816.879M2281.34 816.879V881.318M2281.34 881.318V945.758M2281.34 945.758V1010.2M2281.34 1010.2V1074.64M2281.34 1074.64V1139.08" stroke="url(#paint0_radial_6884_8309)" stroke-opacity="0.6" stroke-width="0.805493"/>
</g>
<g style="mix-blend-mode:soft-light" opacity="0.8">
<path d="M-295.91 152.758V172.09M-295.91 172.09V191.422M-295.91 172.09H-315.242M-295.91 172.09H-276.578M-295.91 668.274V687.606M-295.91 687.606V706.937M-295.91 687.606H-315.242M-295.91 687.606H-276.578M-295.91 1183.79V1203.12M-295.91 1203.12V1222.45M-295.91 1203.12H-315.242M-295.91 1203.12H-276.578M219.606 152.758V172.09M219.606 172.09V191.422M219.606 172.09H200.274M219.606 172.09H238.937M219.606 668.274V687.606M219.606 687.606V706.937M219.606 687.606H200.274M219.606 687.606H238.937M219.606 1183.79V1203.12M219.606 1203.12V1222.45M219.606 1203.12H200.274M219.606 1203.12H238.937M735.121 152.758V172.09M735.121 172.09V191.422M735.121 172.09H715.789M735.121 172.09H754.453M735.121 668.274V687.606M735.121 687.606V706.937M735.121 687.606H715.789M735.121 687.606H754.453M735.121 1183.79V1203.12M735.121 1203.12V1222.45M735.121 1203.12H715.789M735.121 1203.12H754.453M1250.64 152.758V172.09M1250.64 172.09V191.422M1250.64 172.09H1231.31M1250.64 172.09H1269.97M1250.64 668.274V687.606M1250.64 687.606V706.937M1250.64 687.606H1231.31M1250.64 687.606H1269.97M1250.64 1183.79V1203.12M1250.64 1203.12V1222.45M1250.64 1203.12H1231.31M1250.64 1203.12H1269.97M1766.15 152.758V172.09M1766.15 172.09V191.422M1766.15 172.09H1746.82M1766.15 172.09H1785.48M1766.15 668.274V687.606M1766.15 687.606V706.937M1766.15 687.606H1746.82M1766.15 687.606H1785.48M1766.15 1183.79V1203.12M1766.15 1203.12V1222.45M1766.15 1203.12H1746.82M1766.15 1203.12H1785.48M2281.67 152.758V172.09M2281.67 172.09V191.422M2281.67 172.09H2262.34M2281.67 172.09H2301M2281.67 668.274V687.606M2281.67 687.606V706.937M2281.67 687.606H2262.34M2281.67 687.606H2301M2281.67 1183.79V1203.12M2281.67 1203.12V1222.45M2281.67 1203.12H2262.34M2281.67 1203.12H2301M-295.91 -105V-85.6679M-295.91 -85.6679V-66.3361M-295.91 -85.6679H-315.242M-295.91 -85.6679H-276.578M-295.91 410.516V429.848M-295.91 429.848V449.18M-295.91 429.848H-315.242M-295.91 429.848H-276.578M-295.91 926.031V945.363M-295.91 945.363V964.695M-295.91 945.363H-315.242M-295.91 945.363H-276.578M219.606 -105V-85.6679M219.606 -85.6679V-66.3361M219.606 -85.6679H200.274M219.606 -85.6679H238.937M219.606 410.516V429.848M219.606 429.848V449.18M219.606 429.848H200.274M219.606 429.848H238.937M219.606 926.031V945.363M219.606 945.363V964.695M219.606 945.363H200.274M219.606 945.363H238.937M735.121 -105V-85.6679M735.121 -85.6679V-66.3361M735.121 -85.6679H715.789M735.121 -85.6679H754.453M735.121 410.516V429.848M735.121 429.848V449.18M735.121 429.848H715.789M735.121 429.848H754.453M735.121 926.031V945.363M735.121 945.363V964.695M735.121 945.363H715.789M735.121 945.363H754.453M1250.64 -105V-85.6679M1250.64 -85.6679V-66.3361M1250.64 -85.6679H1231.31M1250.64 -85.6679H1269.97M1250.64 410.516V429.848M1250.64 429.848V449.18M1250.64 429.848H1231.31M1250.64 429.848H1269.97M1250.64 926.031V945.363M1250.64 945.363V964.695M1250.64 945.363H1231.31M1250.64 945.363H1269.97M1766.15 -105V-85.6679M1766.15 -85.6679V-66.3361M1766.15 -85.6679H1746.82M1766.15 -85.6679H1785.48M1766.15 410.516V429.848M1766.15 429.848V449.18M1766.15 429.848H1746.82M1766.15 429.848H1785.48M1766.15 926.031V945.363M1766.15 945.363V964.695M1766.15 945.363H1746.82M1766.15 945.363H1785.48M2281.67 -105V-85.6679M2281.67 -85.6679V-66.3361M2281.67 -85.6679H2262.34M2281.67 -85.6679H2301M2281.67 410.516V429.848M2281.67 429.848V449.18M2281.67 429.848H2262.34M2281.67 429.848H2301M2281.67 926.031V945.363M2281.67 945.363V964.695M2281.67 945.363H2262.34M2281.67 945.363H2301M-553.668 152.758V172.09M-553.668 172.09V191.422M-553.668 172.09H-573M-553.668 172.09H-534.336M-553.668 668.274V687.606M-553.668 687.606V706.937M-553.668 687.606H-573M-553.668 687.606H-534.336M-553.668 1183.79V1203.12M-553.668 1203.12V1222.45M-553.668 1203.12H-573M-553.668 1203.12H-534.336M-38.1523 152.758V172.09M-38.1523 172.09V191.422M-38.1523 172.09H-57.4842M-38.1523 172.09H-18.8205M-38.1523 668.274V687.606M-38.1523 687.606V706.937M-38.1523 687.606H-57.4842M-38.1523 687.606H-18.8205M-38.1523 1183.79V1203.12M-38.1523 1203.12V1222.45M-38.1523 1203.12H-57.4842M-38.1523 1203.12H-18.8205M477.363 152.758V172.09M477.363 172.09V191.422M477.363 172.09H458.032M477.363 172.09H496.695M477.363 668.274V687.606M477.363 687.606V706.937M477.363 687.606H458.032M477.363 687.606H496.695M477.363 1183.79V1203.12M477.363 1203.12V1222.45M477.363 1203.12H458.032M477.363 1203.12H496.695M992.879 152.758V172.09M992.879 172.09V191.422M992.879 172.09H973.547M992.879 172.09H1012.21M992.879 668.274V687.606M992.879 687.606V706.937M992.879 687.606H973.547M992.879 687.606H1012.21M992.879 1183.79V1203.12M992.879 1203.12V1222.45M992.879 1203.12H973.547M992.879 1203.12H1012.21M1508.39 152.758V172.09M1508.39 172.09V191.422M1508.39 172.09H1489.06M1508.39 172.09H1527.73M1508.39 668.274V687.606M1508.39 687.606V706.937M1508.39 687.606H1489.06M1508.39 687.606H1527.73M1508.39 1183.79V1203.12M1508.39 1203.12V1222.45M1508.39 1203.12H1489.06M1508.39 1203.12H1527.73M2023.91 152.758V172.09M2023.91 172.09V191.422M2023.91 172.09H2004.58M2023.91 172.09H2043.24M2023.91 668.274V687.606M2023.91 687.606V706.937M2023.91 687.606H2004.58M2023.91 687.606H2043.24M2023.91 1183.79V1203.12M2023.91 1203.12V1222.45M2023.91 1203.12H2004.58M2023.91 1203.12H2043.24M-553.668 -105V-85.6679M-553.668 -85.6679V-66.336M-553.668 -85.6679H-573M-553.668 -85.6679H-534.336M-553.668 410.516V429.848M-553.668 429.848V449.18M-553.668 429.848H-573M-553.668 429.848H-534.336M-553.668 926.031V945.363M-553.668 945.363V964.695M-553.668 945.363H-573M-553.668 945.363H-534.336M-38.1523 -105V-85.6679M-38.1523 -85.6679V-66.3361M-38.1523 -85.6679H-57.4842M-38.1523 -85.6679H-18.8205M-38.1523 410.516V429.848M-38.1523 429.848V449.18M-38.1523 429.848H-57.4842M-38.1523 429.848H-18.8205M-38.1523 926.031V945.363M-38.1523 945.363V964.695M-38.1523 945.363H-57.4842M-38.1523 945.363H-18.8205M477.363 -105V-85.6679M477.363 -85.6679V-66.3361M477.363 -85.6679H458.032M477.363 -85.6679H496.695M477.363 410.516V429.848M477.363 429.848V449.18M477.363 429.848H458.032M477.363 429.848H496.695M477.363 926.031V945.363M477.363 945.363V964.695M477.363 945.363H458.032M477.363 945.363H496.695M992.879 -105V-85.6679M992.879 -85.6679V-66.3361M992.879 -85.6679H973.547M992.879 -85.6679H1012.21M992.879 410.516V429.848M992.879 429.848V449.18M992.879 429.848H973.547M992.879 429.848H1012.21M992.879 926.031V945.363M992.879 945.363V964.695M992.879 945.363H973.547M992.879 945.363H1012.21M1508.39 -105V-85.6679M1508.39 -85.6679V-66.3361M1508.39 -85.6679H1489.06M1508.39 -85.6679H1527.73M1508.39 410.516V429.848M1508.39 429.848V449.18M1508.39 429.848H1489.06M1508.39 429.848H1527.73M1508.39 926.031V945.363M1508.39 945.363V964.695M1508.39 945.363H1489.06M1508.39 945.363H1527.73M2023.91 -105V-85.6679M2023.91 -85.6679V-66.3361M2023.91 -85.6679H2004.58M2023.91 -85.6679H2043.24M2023.91 410.516V429.848M2023.91 429.848V449.18M2023.91 429.848H2004.58M2023.91 429.848H2043.24M2023.91 926.031V945.363M2023.91 945.363V964.695M2023.91 945.363H2004.58M2023.91 945.363H2043.24" stroke="url(#paint1_radial_6884_8309)" stroke-opacity="0.6" stroke-width="1.61099"/>
</g>
<defs>
<radialGradient id="paint0_radial_6884_8309" cx="0" cy="0" r="1" gradientUnits="userSpaceOnUse" gradientTransform="translate(863.668 559.121) rotate(90) scale(644.395 1417.67)">
<stop stop-color="white"/>
<stop offset="1" stop-color="white" stop-opacity="0"/>
</radialGradient>
<radialGradient id="paint1_radial_6884_8309" cx="0" cy="0" r="1" gradientUnits="userSpaceOnUse" gradientTransform="translate(864 558.727) rotate(90) scale(663.726 1437)">
<stop stop-color="white"/>
<stop offset="1" stop-color="white" stop-opacity="0"/>
</radialGradient>
</defs>
</svg>
