<svg width="106" height="100" viewBox="0 0 106 100" fill="none" xmlns="http://www.w3.org/2000/svg">
<g clip-path="url(#clip0_7968_4822)">
<path d="M75.1242 9.21751L11.0898 49.6625L5.58301 41.0056V33.5459C5.58301 30.8301 6.96317 28.2989 9.24987 26.8209L46.4728 2.75306C52.1438 -0.913827 59.4485 -0.914551 65.1202 2.75161L75.1242 9.21751Z" fill="url(#paint0_linear_7968_4822)"/>
<path d="M64.5466 2.39771C64.7391 2.51135 64.9301 2.63005 65.1197 2.75238L94.1692 21.529L22.1408 67.0234L11.0879 49.6481L63.9502 16.1952C68.9573 13.0263 69.1766 5.89811 64.5466 2.39771Z" fill="url(#paint1_linear_7968_4822)"/>
<path d="M64.5466 2.39771C64.7391 2.51135 64.9301 2.63005 65.1197 2.75238L94.1692 21.529L22.1408 67.0234L11.0879 49.6481L63.9502 16.1952C68.9573 13.0263 69.1766 5.89811 64.5466 2.39771Z" fill="url(#paint2_linear_7968_4822)"/>
<path d="M50.8787 75.7107L22.1416 67.0241L83.2406 28.4314C88.3864 25.1814 88.3733 17.6956 83.2159 14.4638L82.9406 14.2915L83.7331 14.7823L102.328 26.802C104.616 28.2801 105.996 30.812 105.996 33.5285V40.7479L50.8787 75.7107Z" fill="url(#paint3_linear_7968_4822)"/>
<path d="M50.8787 75.7107L22.1416 67.0241L83.2406 28.4314C88.3864 25.1814 88.3733 17.6956 83.2159 14.4638L82.9406 14.2915L83.7331 14.7823L102.328 26.802C104.616 28.2801 105.996 30.812 105.996 33.5285V40.7479L50.8787 75.7107Z" fill="url(#paint4_linear_7968_4822)"/>
<path d="M65.1202 2.75161C59.4485 -0.914551 52.1438 -0.913827 46.4721 2.75306L9.24987 26.8209C6.96317 28.2989 5.58301 30.8301 5.58301 33.5459V33.9107C5.67308 36.6373 7.11281 39.1497 9.43874 40.6111L55.7213 69.6863L102.121 40.6553C104.531 39.1476 105.993 36.5114 105.993 33.6762V40.7486L105.995 33.5285C105.995 30.812 104.614 28.2808 102.327 26.802L65.1202 2.75161Z" fill="url(#paint5_radial_7968_4822)"/>
<path d="M47.5624 99.9965H88.5568C98.1852 99.9965 105.99 92.219 105.99 82.6247V33.6763C105.99 36.5115 104.528 39.1476 102.119 40.6554L41.1417 78.8066C37.8526 80.8651 35.8564 84.4632 35.8564 88.3335C35.8572 94.7748 41.0974 99.9965 47.5624 99.9965Z" fill="url(#paint6_linear_7968_4822)"/>
<path d="M47.5624 99.9965H88.5568C98.1852 99.9965 105.99 92.219 105.99 82.6247V33.6763C105.99 36.5115 104.528 39.1476 102.119 40.6554L41.1417 78.8066C37.8526 80.8651 35.8564 84.4632 35.8564 88.3335C35.8572 94.7748 41.0974 99.9965 47.5624 99.9965Z" fill="url(#paint7_radial_7968_4822)"/>
<path d="M47.5624 99.9965H88.5568C98.1852 99.9965 105.99 92.219 105.99 82.6247V33.6763C105.99 36.5115 104.528 39.1476 102.119 40.6554L41.1417 78.8066C37.8526 80.8651 35.8564 84.4632 35.8564 88.3335C35.8572 94.7748 41.0974 99.9965 47.5624 99.9965Z" fill="url(#paint8_radial_7968_4822)"/>
<path d="M64.2305 99.9934H23.0103C13.3818 99.9934 5.57666 92.2159 5.57666 82.6217V33.6399C5.57666 36.47 7.03382 39.1019 9.43602 40.611L70.3526 78.8788C73.6876 80.9735 75.7098 84.6281 75.7098 88.5563C75.7091 94.8731 70.5698 99.9934 64.2305 99.9934Z" fill="url(#paint9_radial_7968_4822)"/>
<path d="M64.2305 99.9934H23.0103C13.3818 99.9934 5.57666 92.2159 5.57666 82.6217V33.6399C5.57666 36.47 7.03382 39.1019 9.43602 40.611L70.3526 78.8788C73.6876 80.9735 75.7098 84.6281 75.7098 88.5563C75.7091 94.8731 70.5698 99.9934 64.2305 99.9934Z" fill="url(#paint10_linear_7968_4822)"/>
<path d="M9.06547 47.177H35.5645C40.5716 47.177 44.63 51.221 44.63 56.2103V82.6153C44.63 87.6046 40.5716 91.6486 35.5645 91.6486H9.06547C4.0584 91.6486 0 87.6046 0 82.6153V56.2103C0 51.221 4.0584 47.177 9.06547 47.177Z" fill="url(#paint11_radial_7968_4822)"/>
<path d="M9.06547 47.177H35.5645C40.5716 47.177 44.63 51.221 44.63 56.2103V82.6153C44.63 87.6046 40.5716 91.6486 35.5645 91.6486H9.06547C4.0584 91.6486 0 87.6046 0 82.6153V56.2103C0 51.221 4.0584 47.177 9.06547 47.177Z" fill="url(#paint12_radial_7968_4822)"/>
<path d="M22.2009 82.1984C18.51 82.1984 15.4809 81.0475 13.1121 78.7472C10.7434 76.4469 9.55859 73.4445 9.55859 69.7407C9.55859 65.8291 10.7608 62.666 13.1652 60.2499C15.5703 57.8345 18.7185 56.6272 22.6113 56.6272C26.2898 56.6272 29.2833 57.7831 31.5925 60.095C33.9141 62.4069 35.0748 65.4557 35.0748 69.2398C35.0748 73.1282 33.8719 76.2623 31.4675 78.6437C29.0748 81.0135 25.9861 82.1984 22.2009 82.1984ZM22.3076 77.3155C24.319 77.3155 25.9382 76.6307 27.1643 75.262C28.3905 73.8932 29.0036 71.9889 29.0036 69.5503C29.0036 67.0083 28.4079 65.03 27.2181 63.615C26.0275 62.1999 24.4382 61.4927 22.4507 61.4927C20.403 61.4927 18.7541 62.2231 17.5047 63.6837C16.2545 65.1336 15.6298 67.0546 15.6298 69.4468C15.6298 71.8745 16.2545 73.7955 17.5047 75.2099C18.7541 76.6134 20.3551 77.3155 22.3076 77.3155Z" fill="white"/>
<path d="M22.191 82.5407C18.5147 82.5407 15.4965 81.3594 13.1364 78.9961C10.7771 76.6329 9.59668 73.5487 9.59668 69.7442C9.59668 65.7263 10.7945 62.4771 13.1902 59.9958C15.5858 57.5138 18.7224 56.2732 22.6 56.2732C26.2639 56.2732 29.2465 57.461 31.547 59.8358C33.8599 62.2114 35.0156 65.3427 35.0156 69.2303C35.0156 73.2237 33.8178 76.4439 31.4228 78.8897C29.0388 81.3239 25.9617 82.5407 22.191 82.5407ZM22.2971 77.5253C24.3012 77.5253 25.9145 76.8218 27.1356 75.4161C28.3574 74.0097 28.9676 72.054 28.9676 69.5488C28.9676 66.9373 28.3748 64.9055 27.1894 63.4521C26.0031 61.9986 24.4203 61.2719 22.4402 61.2719C20.3997 61.2719 18.7573 62.0218 17.5123 63.523C16.2672 65.0112 15.6447 66.985 15.6447 69.4424C15.6447 71.936 16.2672 73.9091 17.5123 75.3626C18.7573 76.8044 20.3525 77.5253 22.2971 77.5253Z" fill="white"/>
</g>
<defs>
<linearGradient id="paint0_linear_7968_4822" x1="16.7057" y1="45.4117" x2="75.0083" y2="9.12071" gradientUnits="userSpaceOnUse">
<stop stop-color="#20A7FA"/>
<stop offset="0.4" stop-color="#3BD5FF"/>
<stop offset="1" stop-color="#C4B0FF"/>
</linearGradient>
<linearGradient id="paint1_linear_7968_4822" x1="36.8121" y1="57.7237" x2="69.1673" y2="5.73096" gradientUnits="userSpaceOnUse">
<stop stop-color="#165AD9"/>
<stop offset="0.5008" stop-color="#1880E5"/>
<stop offset="1" stop-color="#8587FF"/>
</linearGradient>
<linearGradient id="paint2_linear_7968_4822" x1="60.531" y1="58.4294" x2="24.5272" y2="28.9886" gradientUnits="userSpaceOnUse">
<stop offset="0.236946" stop-color="#448AFF" stop-opacity="0"/>
<stop offset="0.792113" stop-color="#0032B1" stop-opacity="0.2"/>
</linearGradient>
<linearGradient id="paint3_linear_7968_4822" x1="55.9367" y1="69.7182" x2="112.88" y2="33.1449" gradientUnits="userSpaceOnUse">
<stop stop-color="#1A43A6"/>
<stop offset="0.492267" stop-color="#2052CB"/>
<stop offset="1" stop-color="#5F20CB"/>
</linearGradient>
<linearGradient id="paint4_linear_7968_4822" x1="72.0445" y1="67.543" x2="37.4765" y2="37.5239" gradientUnits="userSpaceOnUse">
<stop stop-color="#0045B9" stop-opacity="0"/>
<stop offset="0.669859" stop-color="#0D1F69" stop-opacity="0.2"/>
</linearGradient>
<radialGradient id="paint5_radial_7968_4822" cx="0" cy="0" r="1" gradientUnits="userSpaceOnUse" gradientTransform="translate(55.7924 2.19909) rotate(-90) scale(75.0534 81.5229)">
<stop offset="0.568182" stop-color="#275FF0" stop-opacity="0"/>
<stop offset="0.992424" stop-color="#002177"/>
</radialGradient>
<linearGradient id="paint6_linear_7968_4822" x1="105.991" y1="66.4752" x2="55.3737" y2="66.4752" gradientUnits="userSpaceOnUse">
<stop stop-color="#4DC4FF"/>
<stop offset="0.196145" stop-color="#0FAFFF"/>
</linearGradient>
<radialGradient id="paint7_radial_7968_4822" cx="0" cy="0" r="1" gradientTransform="matrix(22.8245 -22.7435 22.8245 22.7435 67.2038 88.6237)" gradientUnits="userSpaceOnUse">
<stop offset="0.259477" stop-color="#0060D1" stop-opacity="0.4"/>
<stop offset="0.908166" stop-color="#0383F1" stop-opacity="0"/>
</radialGradient>
<radialGradient id="paint8_radial_7968_4822" cx="0" cy="0" r="1" gradientTransform="matrix(66.4628 -86.8023 78.771 59.8861 18.4974 112.417)" gradientUnits="userSpaceOnUse">
<stop offset="0.732317" stop-color="#F4A7F7" stop-opacity="0"/>
<stop offset="1" stop-color="#F4A7F7" stop-opacity="0.501961"/>
</radialGradient>
<radialGradient id="paint9_radial_7968_4822" cx="0" cy="0" r="1" gradientTransform="matrix(-31.773 48.1267 -125.339 -82.1621 40.6435 59.7731)" gradientUnits="userSpaceOnUse">
<stop stop-color="#49DEFF"/>
<stop offset="0.724349" stop-color="#29C3FF"/>
</radialGradient>
<linearGradient id="paint10_linear_7968_4822" x1="-1.51298" y1="88.514" x2="47.2217" y2="88.4787" gradientUnits="userSpaceOnUse">
<stop offset="0.205882" stop-color="#6CE0FF"/>
<stop offset="0.535" stop-color="#50D5FF" stop-opacity="0"/>
</linearGradient>
<radialGradient id="paint11_radial_7968_4822" cx="0" cy="0" r="1" gradientTransform="matrix(40.1237 42.7612 -42.9135 39.9813 -0.159246 48.8875)" gradientUnits="userSpaceOnUse">
<stop offset="0.038877" stop-color="#0091FF"/>
<stop offset="0.919119" stop-color="#183DAD"/>
</radialGradient>
<radialGradient id="paint12_radial_7968_4822" cx="0" cy="0" r="1" gradientUnits="userSpaceOnUse" gradientTransform="translate(22.315 74.2599) rotate(90) scale(31.1301 36.0354)">
<stop offset="0.557796" stop-color="#0FA5F7" stop-opacity="0"/>
<stop offset="1" stop-color="#74C6FF" stop-opacity="0.501961"/>
</radialGradient>
<clipPath id="clip0_7968_4822">
<rect width="106" height="100" fill="white"/>
</clipPath>
</defs>
</svg>
