<svg width="159" height="76" viewBox="0 0 159 76" fill="none" xmlns="http://www.w3.org/2000/svg">
<path d="M36.6348 16.3818C44.0831 16.3818 49.409 18.3355 52.7305 22.1377C56.0461 25.9334 57.0886 31.2717 55.7295 38.2617C55.172 41.1303 54.2302 43.7479 52.9082 46.1143C51.5846 48.4826 49.854 50.652 47.71 52.623L47.707 52.626C45.3177 54.8622 42.6865 56.4898 39.8105 57.5156L39.2324 57.7129C36.1239 58.7252 32.1345 59.2383 27.2461 59.2383H15.6875L15.6094 59.6426L12.6006 75.1201H0.607422L12.0234 16.3818H36.6348ZM22.2998 25.2139L17.4404 50.2148L17.3252 50.8105H25.8477C31.1409 50.8105 35.18 49.8173 37.875 47.7422C40.5754 45.6632 42.3482 42.2296 43.2607 37.54C44.101 33.2085 43.799 29.9329 42.1309 27.9043L41.9648 27.7119L41.791 27.5273C39.9427 25.6588 36.5118 24.8086 31.707 24.8086H22.3789L22.2998 25.2139Z" stroke="#666666"/>
<path d="M78.0859 0.5L75.1162 15.7871L75 16.3818H87.1084C94.3219 16.3818 99.1455 17.6487 101.746 20.0371C104.306 22.3897 105.15 26.2608 104.065 31.8438L98.7422 59.2383H86.6465L91.666 33.4023C91.9635 31.8715 92.0646 30.5531 91.9502 29.4609C91.8357 28.3685 91.5011 27.4668 90.8965 26.8154C90.2986 26.1712 89.4023 25.7267 88.2725 25.4404C87.1384 25.1532 85.7277 25.0147 84.0527 25.0146H73.3213L73.2432 25.4189L66.6699 59.2383H54.7793L66.1953 0.5H78.0859Z" stroke="#666666"/>
<path d="M138.205 16.3818C145.653 16.3818 150.978 18.3356 154.3 22.1377C157.512 25.8148 158.591 30.9396 157.42 37.6113L157.3 38.2617C156.743 41.1303 155.8 43.7478 154.479 46.1143C153.155 48.4826 151.425 50.652 149.28 52.623L149.277 52.626C146.888 54.8622 144.257 56.4898 141.381 57.5156L140.803 57.7129C137.694 58.7252 133.705 59.2383 128.816 59.2383H117.258L117.179 59.6426L114.171 75.1201H102.178L113.594 16.3818H138.205ZM123.87 25.2139L119.011 50.2148L118.896 50.8105H127.417C132.711 50.8105 136.75 49.8174 139.445 47.7422C142.146 45.6632 143.919 42.2296 144.831 37.54C145.699 33.0689 145.349 29.7228 143.535 27.7119H143.534C141.732 25.7152 138.237 24.8087 133.277 24.8086H123.949L123.87 25.2139Z" stroke="#666666"/>
</svg>
