<svg width="159" height="160" viewBox="0 0 159 160" fill="none" xmlns="http://www.w3.org/2000/svg">
<path d="M78.1826 0.500977C84.6809 0.469885 91.456 0.964977 97.9824 2.05176C108.177 3.751 116.648 11.3732 116.648 21.4004V57.7471C116.648 68.1393 108.391 76.6426 98.0645 76.6426H59.9404C46.7195 76.6426 35.5957 87.9829 35.5957 100.855V117.796H22.9727C17.5612 117.796 13.2973 115.838 10.0459 112.509C6.78318 109.168 4.51719 104.422 3.17383 98.8281V98.8271C1.349 91.2605 0.480609 85.2382 0.5 79.3076C0.519433 73.3769 1.42666 67.5148 3.17383 60.2666V60.2656C6.15588 47.8136 15.6625 41.2979 26.5312 41.2979H79.5254V35.4492H41.3564V21.4004C41.3564 15.9193 42.0908 11.8278 44.7217 8.74316C47.2762 5.74817 51.6983 3.60912 59.2832 2.18652L60.0273 2.05078C65.4801 1.0855 71.6836 0.531779 78.1826 0.500977ZM57.5381 11.2012C53.2956 11.2013 49.8761 14.7068 49.876 18.9971C49.876 23.2766 53.2987 26.7499 57.5381 26.75C61.7617 26.75 65.2012 23.2773 65.2012 18.9971C65.201 14.706 61.7649 11.2012 57.5381 11.2012Z" stroke="#666666"/>
<path d="M136.252 41.2979C141.661 41.2979 145.61 43.3127 148.556 46.6631C151.519 50.0338 153.489 54.7819 154.852 60.2695V60.2705C158.652 75.5463 158.809 86.9439 154.862 98.7861V98.7871C152.935 104.592 150.961 109.345 148.128 112.65C145.324 115.922 141.658 117.796 136.252 117.796H78.5439V123.645H116.668V137.693C116.668 143.035 114.379 147.058 110.9 150.103C107.408 153.16 102.714 155.228 97.9453 156.608H97.9443C83.5859 160.777 72.099 160.138 60.1006 156.609C50.0517 153.655 41.375 147.677 41.375 137.693V101.345C41.3751 91.1523 49.8028 82.4474 59.959 82.4473H98.084C111.067 82.4473 122.428 71.1611 122.428 57.7461V41.2979H136.252ZM100.486 132.343C96.2631 132.343 92.8249 135.812 92.8252 140.093C92.8252 144.383 96.2597 147.889 100.486 147.89C104.728 147.89 108.149 144.383 108.149 140.093C108.149 135.813 104.725 132.343 100.486 132.343Z" stroke="#666666"/>
</svg>
