<svg width="100" height="100" viewBox="0 0 100 100" fill="none" xmlns="http://www.w3.org/2000/svg">
<path d="M50 100C77.6081 100 100 77.6081 100 50C100 22.3919 77.6081 0 50 0C22.3919 0 0 22.3919 0 50C0 77.6081 22.3757 100 50 100Z" fill="#2CA01C"/>
<path d="M33.3282 30.5493C22.5872 30.5493 13.8774 39.2591 13.8774 50C13.8774 60.741 22.571 69.4346 33.3282 69.4346H36.1069V62.2197H33.3282C26.5846 62.2197 21.1085 56.7436 21.1085 50C21.1085 43.2565 26.5846 37.7803 33.3282 37.7803H40.0068V75.5607C40.0068 79.5418 43.2405 82.7755 47.2216 82.7755V30.5493H33.3282ZM66.6724 69.4346C77.4134 69.4346 86.1231 60.7248 86.1231 50C86.1231 39.2753 77.4296 30.5655 66.6724 30.5655H63.8937V37.7803H66.6724C73.416 37.7803 78.8921 43.2565 78.8921 50C78.8921 56.7436 73.416 62.2197 66.6724 62.2197H59.9938V24.4394C59.9938 20.4583 56.7601 17.2246 52.779 17.2246V69.4346H66.6724Z" fill="white"/>
</svg>
