<svg width="100" height="100" viewBox="0 0 100 100" fill="none" xmlns="http://www.w3.org/2000/svg">
<g clip-path="url(#clip0_7968_4898)">
<path d="M21.4173 62.9921C21.4173 68.7401 16.7716 73.3858 11.0236 73.3858C5.27555 73.3858 0.629883 68.7401 0.629883 62.9921C0.629883 57.2441 5.27555 52.5984 11.0236 52.5984H21.4173V62.9921ZM26.6141 62.9921C26.6141 57.2441 31.2598 52.5984 37.0078 52.5984C42.7559 52.5984 47.4015 57.2441 47.4015 62.9921V88.9763C47.4015 94.7244 42.7559 99.37 37.0078 99.37C31.2598 99.37 26.6141 94.7244 26.6141 88.9763V62.9921Z" fill="#E01E5A"/>
<path d="M37.0075 21.2598C31.2594 21.2598 26.6138 16.6141 26.6138 10.8661C26.6138 5.11808 31.2594 0.472412 37.0075 0.472412C42.7555 0.472412 47.4012 5.11808 47.4012 10.8661V21.2598H37.0075ZM37.0075 26.5354C42.7555 26.5354 47.4012 31.1811 47.4012 36.9291C47.4012 42.6771 42.7555 47.3228 37.0075 47.3228H10.9445C5.19645 47.3228 0.550781 42.6771 0.550781 36.9291C0.550781 31.1811 5.19645 26.5354 10.9445 26.5354H37.0075Z" fill="#36C5F0"/>
<path d="M78.661 36.9291C78.661 31.1811 83.3067 26.5354 89.0547 26.5354C94.8027 26.5354 99.4484 31.1811 99.4484 36.9291C99.4484 42.6771 94.8027 47.3228 89.0547 47.3228H78.661V36.9291ZM73.4642 36.9291C73.4642 42.6771 68.8185 47.3228 63.0705 47.3228C57.3224 47.3228 52.6768 42.6771 52.6768 36.9291V10.8661C52.6768 5.11808 57.3224 0.472412 63.0705 0.472412C68.8185 0.472412 73.4642 5.11808 73.4642 10.8661V36.9291Z" fill="#2EB67D"/>
<path d="M63.0705 78.5826C68.8185 78.5826 73.4642 83.2283 73.4642 88.9763C73.4642 94.7244 68.8185 99.37 63.0705 99.37C57.3224 99.37 52.6768 94.7244 52.6768 88.9763V78.5826H63.0705ZM63.0705 73.3858C57.3224 73.3858 52.6768 68.7401 52.6768 62.9921C52.6768 57.2441 57.3224 52.5984 63.0705 52.5984H89.1334C94.8815 52.5984 99.5272 57.2441 99.5272 62.9921C99.5272 68.7401 94.8815 73.3858 89.1334 73.3858H63.0705Z" fill="#ECB22E"/>
</g>
<defs>
<clipPath id="clip0_7968_4898">
<rect width="100" height="100" fill="white"/>
</clipPath>
</defs>
</svg>
