<svg width="180" height="76" viewBox="0 0 180 76" fill="none" xmlns="http://www.w3.org/2000/svg">
<g clip-path="url(#clip0_8005_184)">
<path fill-rule="evenodd" clip-rule="evenodd" d="M180 39.0001C180 26.2001 173.8 16.1001 161.95 16.1001C150.05 16.1001 142.85 26.2001 142.85 38.9001C142.85 53.95 151.35 61.55 163.55 61.55C169.5 61.55 174 60.2 177.4 58.3V48.3001C174 50 170.1 51.05 165.15 51.05C160.3 51.05 156 49.3501 155.45 43.4501H179.9C179.9 42.8001 180 40.2001 180 39.0001ZM155.3 34.2501C155.3 28.6001 158.75 26.2501 161.9 26.2501C164.95 26.2501 168.2 28.6001 168.2 34.2501H155.3Z" fill="white"/>
<path fill-rule="evenodd" clip-rule="evenodd" d="M123.55 16.1001C118.65 16.1001 115.5 18.4001 113.75 20.0001L113.1 16.9001H102.1V75.2L114.6 72.55L114.65 58.4C116.45 59.7 119.1 61.55 123.5 61.55C132.45 61.55 140.6 54.35 140.6 38.5001C140.55 24.0001 132.3 16.1001 123.55 16.1001ZM120.55 50.55C117.6 50.55 115.85 49.5001 114.65 48.2001L114.6 29.6501C115.9 28.2001 117.7 27.2001 120.55 27.2001C125.1 27.2001 128.25 32.3001 128.25 38.8501C128.25 45.5501 125.15 50.55 120.55 50.55Z" fill="white"/>
<path fill-rule="evenodd" clip-rule="evenodd" d="M84.8999 13.1501L97.4499 10.4501V0.300049L84.8999 2.95005V13.1501Z" fill="white"/>
<path d="M97.4499 16.9502H84.8999V60.7001H97.4499V16.9502Z" fill="white"/>
<path fill-rule="evenodd" clip-rule="evenodd" d="M71.4501 20.6499L70.6501 16.9499H59.8501V60.6999H72.3501V31.0499C75.3001 27.1999 80.3001 27.8999 81.8501 28.4499V16.9499C80.2501 16.3499 74.4001 15.2499 71.4501 20.6499Z" fill="white"/>
<path fill-rule="evenodd" clip-rule="evenodd" d="M46.45 6.1001L34.25 8.7001L34.2 48.7501C34.2 56.15 39.7499 61.6 47.1499 61.6C51.25 61.6 54.25 60.85 55.9 59.95V49.8001C54.3 50.45 46.3999 52.75 46.3999 45.3501V27.6001H55.9V16.9501H46.3999L46.45 6.1001Z" fill="white"/>
<path fill-rule="evenodd" clip-rule="evenodd" d="M12.65 29.6501C12.65 27.7001 14.25 26.9501 16.9 26.9501C20.7 26.9501 25.5 28.1001 29.3 30.1501V18.4001C25.15 16.7501 21.05 16.1001 16.9 16.1001C6.75 16.1001 0 21.4001 0 30.2501C0 44.0501 19 41.8501 19 47.8001C19 50.1 17 50.85 14.2 50.85C10.05 50.85 4.75 49.1501 0.55 46.8501V58.75C5.2 60.75 9.9 61.6 14.2 61.6C24.6 61.6 31.75 56.45 31.75 47.5001C31.7 32.6001 12.65 35.2501 12.65 29.6501Z" fill="white"/>
</g>
<defs>
<clipPath id="clip0_8005_184">
<rect width="180" height="75.5" fill="white"/>
</clipPath>
</defs>
</svg>
