<svg width="160" height="160" viewBox="0 0 160 160" fill="none" xmlns="http://www.w3.org/2000/svg">
<g clip-path="url(#clip0_8180_35066)">
<path d="M159.5 0.5V159.5H0.5V0.5H159.5ZM31.5 75.167H52.833V139.167H64.5V75.167H85.833V63.5H31.5V75.167ZM106.667 63.5C94.6089 63.5 84.8332 73.2749 84.833 85.333C84.833 97.3912 94.6088 107.167 106.667 107.167H117.333C122.948 107.167 127.5 111.718 127.5 117.333C127.5 122.948 122.948 127.5 117.333 127.5H106.667C101.052 127.5 96.5 122.948 96.5 117.333V116.833H84.833V117.333C84.833 129.392 94.6088 139.167 106.667 139.167H117.333C129.392 139.167 139.167 129.392 139.167 117.333C139.167 105.275 129.391 95.5 117.333 95.5H106.667C101.052 95.5 96.5 90.9479 96.5 85.333C96.5002 79.7183 101.052 75.167 106.667 75.167H119.111C123.744 75.167 127.5 78.9227 127.5 83.5557V85.833H139.167V83.5557C139.167 72.4793 130.187 63.5 119.111 63.5H106.667Z" stroke="#666666"/>
</g>
<rect x="0.5" y="0.5" width="159" height="159" stroke="#666666"/>
<defs>
<clipPath id="clip0_8180_35066">
<rect width="160" height="160" fill="white"/>
</clipPath>
</defs>
</svg>
