<svg width="110" height="110" viewBox="0 0 110 110" fill="none" xmlns="http://www.w3.org/2000/svg">
<path d="M34.2348 86.7521L35.6379 87.5817C41.531 91.0724 48.288 92.919 55.1787 92.9221H55.1931C76.3543 92.9221 93.576 75.7371 93.5848 54.6153C93.5885 44.3798 89.5989 34.7547 82.3504 27.5144C78.7952 23.9437 74.5657 21.1122 69.9067 19.184C65.2477 17.2557 60.2518 16.269 55.2082 16.2808C34.0307 16.2808 16.8084 33.4639 16.8009 54.5845C16.7904 61.7966 18.8253 68.8644 22.6701 74.9708L23.5836 76.4195L19.7044 90.5542L34.2348 86.7521ZM8.61377 101.505L15.1673 77.6226C11.1256 70.6335 8.99924 62.7046 9.00175 54.5814C9.01242 29.1692 29.7322 8.49536 55.1938 8.49536C67.5494 8.50163 79.1467 13.3007 87.8687 22.0123C96.5907 30.7238 101.39 42.3033 101.385 54.6184C101.374 80.0287 80.6509 100.706 55.1931 100.706H55.173C47.443 100.703 39.8473 98.7676 33.1003 95.0958L8.61377 101.505Z" fill="#B3B3B3"/>
<path d="M8.14014 101.031L14.6937 77.1489C10.645 70.143 8.51833 62.1956 8.52811 54.1078C8.53879 28.6956 29.2586 8.02173 54.7201 8.02173C67.0758 8.02799 78.6731 12.8271 87.3951 21.5386C96.117 30.2502 100.916 41.8297 100.912 54.1448C100.9 79.5551 80.1773 100.233 54.7195 100.233H54.6994C46.9693 100.23 39.3736 98.294 32.6267 94.6222L8.14014 101.031Z" fill="white"/>
<path d="M54.734 15.807C33.5566 15.807 16.3342 32.9901 16.3267 54.1107C16.3163 61.3228 18.3511 68.3906 22.196 74.497L23.1094 75.9463L19.2303 90.0811L33.7612 86.2783L35.1644 87.1079C41.0575 90.5986 47.8145 92.4446 54.7052 92.4483H54.7196C75.8807 92.4483 93.1031 75.2633 93.1112 54.1414C93.1272 49.1071 92.1425 44.1196 90.2141 39.4677C88.2857 34.8159 85.4519 30.592 81.8768 27.0406C78.3216 23.4698 74.092 20.6383 69.4329 18.7101C64.7738 16.7818 59.7778 15.7951 54.734 15.807Z" fill="url(#paint0_linear_8068_4387)"/>
<path fill-rule="evenodd" clip-rule="evenodd" d="M43.1749 34.8405C42.3098 32.9225 41.3995 32.8836 40.5777 32.8504L38.3654 32.8235C37.5957 32.8235 36.3451 33.1117 35.2879 34.2647C34.2307 35.4176 31.248 38.2041 31.248 43.8716C31.248 49.5392 35.384 55.0156 35.9603 55.7851C36.5366 56.5545 43.9446 68.5557 55.6762 73.1731C65.4253 77.0103 67.4091 76.2471 69.5261 76.0554C71.643 75.8637 76.3546 73.2689 77.3158 70.579C78.2769 67.889 78.2775 65.5844 77.9894 65.1025C77.7012 64.6207 76.9316 64.3343 75.7764 63.7579C74.6213 63.1814 68.9479 60.3949 67.89 60.0102C66.8322 59.6255 66.0631 59.4343 65.2928 60.5873C64.5225 61.7402 62.3133 64.3337 61.6397 65.1025C60.9661 65.8714 60.2937 65.9679 59.1385 65.392C57.9834 64.8162 54.2668 63.5993 49.8572 59.675C46.4263 56.6216 44.1103 52.8507 43.4361 51.6984C42.7618 50.5461 43.3645 49.922 43.9434 49.348C44.4613 48.8317 45.0972 48.0028 45.6754 47.3304C46.2536 46.6581 46.4439 46.1775 46.8281 45.4099C47.2123 44.6423 47.0208 43.9681 46.732 43.3923C46.4432 42.8164 44.2007 37.1188 43.1749 34.8405Z" fill="white"/>
<defs>
<linearGradient id="paint0_linear_8068_4387" x1="53.9374" y1="20.4062" x2="54.3251" y2="85.901" gradientUnits="userSpaceOnUse">
<stop stop-color="#57D163"/>
<stop offset="1" stop-color="#23B33A"/>
</linearGradient>
</defs>
</svg>
