<svg width="100" height="100" viewBox="0 0 100 100" fill="none" xmlns="http://www.w3.org/2000/svg">
<g clip-path="url(#clip0_7968_4460)">
<mask id="mask0_7968_4460" style="mask-type:luminance" maskUnits="userSpaceOnUse" x="-23" y="-23" width="146" height="145">
<path d="M-22.0083 -22.1248H122.098V121.982H-22.0083V-22.1248Z" fill="white"/>
</mask>
<g mask="url(#mask0_7968_4460)">
<path d="M50.0004 99.8093C77.5094 99.8093 99.8096 77.5091 99.8096 49.9999C99.8096 22.491 77.5094 0.190605 50.0004 0.190605C22.4913 0.190605 0.190918 22.491 0.190918 49.9999C0.190918 77.5091 22.4913 99.8093 50.0004 99.8093Z" fill="#1AB4D7"/>
<path d="M24.0337 49.8559L32.5341 41.3345C32.8159 41.0473 32.9732 40.667 32.9732 40.2637C32.9732 39.4232 32.2899 38.7406 31.4494 38.7406C31.04 38.7406 30.6562 38.9011 30.3667 39.1941C30.3659 39.1958 21.874 47.6828 21.874 47.6828L13.3433 39.1814C13.055 38.8972 12.673 38.7406 12.268 38.7406C11.4285 38.7406 10.7451 39.4229 10.7451 40.2625C10.7451 40.6721 10.9086 41.0565 11.2021 41.3461L19.7013 49.8441L11.2066 58.3548C10.908 58.6488 10.7451 59.034 10.7451 59.4454C10.7451 60.2858 11.4285 60.9675 12.268 60.9675C12.6737 60.9675 13.056 60.8101 13.3433 60.5227L21.8607 52.0167L30.3459 60.4917C30.6468 60.8028 31.0351 60.9685 31.4494 60.9685C32.2891 60.9685 32.9723 60.2858 32.9723 59.4454C32.9723 59.0399 32.8152 58.659 32.5293 58.3717L24.0337 49.8559Z" fill="white"/>
<path d="M74.5674 49.8535C74.5674 51.3796 75.8083 52.6211 77.3363 52.6211C78.8608 52.6211 80.1022 51.3796 80.1022 49.8535C80.1022 48.327 78.8608 47.0857 77.3363 47.0857C75.8083 47.0857 74.5674 48.327 74.5674 49.8535Z" fill="white"/>
<path d="M69.318 49.8548C69.318 45.4353 72.9132 41.8394 77.3332 41.8394C81.751 41.8394 85.3471 45.4353 85.3471 49.8548C85.3471 54.2732 81.751 57.8676 77.3332 57.8676C72.9132 57.8676 69.318 54.2732 69.318 49.8548ZM66.165 49.8548C66.165 56.0119 71.1751 61.0212 77.3332 61.0212C83.4912 61.0212 88.5037 56.0119 88.5037 49.8548C88.5037 43.6968 83.4912 38.6861 77.3332 38.6861C71.1751 38.6861 66.165 43.6968 66.165 49.8548Z" fill="white"/>
<path d="M65.3726 38.8772L64.904 38.8758C63.4973 38.8758 62.1407 39.3195 61.0075 40.1927C60.8582 39.5094 60.2475 38.9953 59.52 38.9953C58.6827 38.9953 58.0118 39.6662 58.0098 40.5052C58.0098 40.5082 58.0148 59.3151 58.0148 59.3151C58.0171 60.1525 58.7001 60.8333 59.5379 60.8333C60.3756 60.8333 61.0585 60.1525 61.0607 59.3132C61.0607 59.3095 61.0614 47.7475 61.0614 47.7475C61.0614 43.8927 61.4138 42.3358 64.7159 41.9232C65.0211 41.8853 65.3531 41.8912 65.3544 41.8912C66.258 41.8602 66.9001 41.2393 66.9001 40.4001C66.9001 39.5604 66.2146 38.8772 65.3726 38.8772Z" fill="white"/>
<path d="M36.1282 48.0163C36.1282 47.9746 36.1314 47.9312 36.1334 47.8883C37.0177 44.3929 40.1833 41.8063 43.9534 41.8063C47.7691 41.8063 50.9638 44.4565 51.8028 48.0163H36.1282ZM54.9216 47.7287C54.2653 44.6213 52.5641 42.069 49.9736 40.4298C46.1869 38.0257 41.1865 38.1587 37.5289 40.7597C34.5455 42.8822 32.8232 46.3542 32.8232 49.9308C32.8232 50.8276 32.9314 51.7328 33.1564 52.6239C34.283 57.0555 38.0927 60.4103 42.6349 60.9663C43.9828 61.1295 45.2947 61.0514 46.6533 60.6996C47.8207 60.4156 48.9503 59.9421 49.9911 59.2751C51.0714 58.5807 51.9739 57.6649 52.848 56.5687C52.8656 56.5485 52.8834 56.5307 52.901 56.5095C53.5077 55.7571 53.3952 54.6872 52.7285 54.1764C52.1663 53.7455 51.2224 53.5708 50.4796 54.522C50.32 54.7494 50.1419 54.9834 49.9458 55.2174C49.3553 55.87 48.6225 56.5023 47.7446 56.9927C46.6273 57.5895 45.3542 57.9306 44.0007 57.9382C39.5707 57.8889 37.2002 54.7966 36.357 52.5895C36.2097 52.1773 36.0962 51.7498 36.017 51.3095C36.0067 51.2272 35.9991 51.1477 35.996 51.0745C36.9119 51.0745 51.8933 51.0719 51.8933 51.0719C54.0727 51.0262 55.2457 49.4879 54.9216 47.7287Z" fill="white"/>
</g>
</g>
<defs>
<clipPath id="clip0_7968_4460">
<rect width="100" height="100" fill="white"/>
</clipPath>
</defs>
</svg>
