<?xml version="1.0" standalone="no"?>
<!DOCTYPE svg PUBLIC "-//W3C//DTD SVG 20010904//EN"
 "http://www.w3.org/TR/2001/REC-SVG-20010904/DTD/svg10.dtd">
<svg version="1.0" xmlns="http://www.w3.org/2000/svg"
 width="1024.000000pt" height="1024.000000pt" viewBox="0 0 1024.000000 1024.000000"
 preserveAspectRatio="xMidYMid meet">

<style>
    path {
        fill: black;
    }
    @media (prefers-color-scheme: dark) {
        path { fill: white; }
    }
</style>

<g transform="translate(0.000000,1024.000000) scale(0.100000,-0.100000)"
 stroke="none">
<path d="M5310 9126 c-58 -12 -137 -49 -205 -96 -37 -26 -151 -141 -220 -222
-28 -32 -36 -35 -100 -41 -102 -10 -293 -61 -424 -114 -63 -25 -116 -42 -118
-37 -7 21 -76 119 -120 170 -57 68 -182 163 -265 203 -114 54 -209 75 -343 74
-182 -1 -321 -47 -466 -154 -155 -114 -264 -282 -310 -478 -53 -221 -11 -466
113 -659 43 -67 168 -194 231 -235 26 -17 47 -32 47 -34 0 -2 -20 -39 -44 -81
-140 -241 -291 -627 -340 -864 -40 -194 -45 -440 -11 -603 32 -153 113 -352
200 -486 l36 -56 -31 -46 c-144 -214 -306 -584 -371 -850 -63 -252 -72 -332
-73 -592 0 -148 4 -263 12 -299 l12 -59 -67 -61 c-237 -216 -395 -448 -482
-711 -66 -200 -83 -474 -42 -674 54 -256 196 -515 391 -711 265 -266 608 -421
1115 -504 492 -80 765 -44 1028 135 l59 40 141 -25 c224 -41 352 -49 656 -43
262 5 432 20 630 57 l55 10 72 -50 c91 -63 176 -103 279 -132 73 -20 102 -22
325 -22 225 -1 258 2 405 28 491 86 840 237 1095 473 136 126 298 368 363 543
158 424 79 913 -210 1305 -37 50 -124 147 -195 217 l-128 127 12 78 c16 102
15 424 0 538 -23 162 -60 328 -108 475 -82 257 -152 411 -296 654 l-58 98 44
72 c104 165 182 386 206 580 15 115 8 321 -14 441 -48 264 -195 649 -355 931
l-41 72 28 18 c179 116 307 291 357 487 32 126 38 207 25 309 -49 394 -327
687 -700 738 -216 30 -467 -48 -626 -193 -67 -62 -178 -201 -195 -245 l-9 -22
-49 25 c-74 37 -190 82 -262 100 -35 9 -67 20 -71 24 -5 4 17 22 47 40 30 18
55 39 55 46 0 21 -79 84 -146 116 -102 48 -176 63 -311 64 -68 0 -123 0 -123
1 0 1 7 18 15 37 22 53 13 67 -55 82 -8 2 -40 -2 -70 -9z m-1617 -320 c90 -34
199 -108 256 -174 71 -83 71 -93 -1 -26 -167 155 -428 184 -641 72 -34 -19
-86 -61 -131 -108 -115 -120 -186 -284 -189 -436 -2 -75 -14 -70 -27 12 -23
142 -5 258 62 388 73 140 213 252 364 291 88 22 222 14 307 -19z m3501 5 c80
-28 139 -68 212 -143 77 -78 107 -127 139 -222 32 -96 41 -193 25 -286 -17
-102 -25 -111 -27 -30 -2 90 -25 177 -73 279 -103 215 -343 357 -570 336 -135
-13 -239 -58 -338 -149 -50 -45 -48 -35 6 32 70 86 222 179 327 201 76 15 230
6 299 -18z m-1551 -12 c20 -7 37 -15 37 -19 0 -3 -23 -14 -50 -24 -28 -10 -77
-36 -111 -57 -63 -41 -159 -126 -159 -140 0 -5 48 -9 108 -9 355 0 761 -152
1092 -408 106 -83 262 -238 361 -362 269 -335 523 -840 608 -1210 91 -394 24
-742 -203 -1049 -60 -82 -260 -285 -351 -356 -484 -378 -1209 -582 -1901 -537
-712 47 -1321 300 -1721 715 -204 212 -321 424 -373 678 -19 90 -21 124 -16
259 6 174 23 265 84 448 114 339 318 732 519 994 95 125 280 318 388 405 296
238 630 383 967 418 62 7 69 10 88 39 58 94 198 191 325 223 61 15 253 11 308
-8z m-1919 -493 l39 -16 -106 -101 c-113 -107 -200 -207 -290 -332 -55 -77
-56 -77 -71 -55 -22 35 -46 127 -46 178 0 57 25 144 53 185 81 120 173 168
307 161 41 -1 93 -10 114 -20z m3361 -9 c162 -82 235 -294 161 -469 -18 -41
-32 -54 -39 -35 -9 24 -157 217 -211 276 -30 33 -92 94 -138 137 -46 42 -84
81 -86 85 -2 4 18 15 45 23 74 24 204 16 268 -17z m-3897 -3136 l42 -49 -50
-94 c-242 -460 -332 -1005 -230 -1401 10 -40 17 -73 15 -75 -7 -8 -86 152
-114 231 -117 334 -94 645 76 1047 60 142 195 388 214 390 3 0 24 -22 47 -49z
m4248 -21 c73 -113 181 -345 228 -490 109 -333 114 -577 16 -850 -31 -87 -125
-288 -105 -225 39 122 51 535 21 710 -40 237 -120 476 -229 686 l-71 136 40
51 c21 28 42 51 47 52 4 0 28 -31 53 -70z m-3520 -1083 c219 -255 358 -517
388 -732 l7 -50 -51 89 c-29 49 -82 135 -119 190 -131 195 -381 629 -381 661
0 14 56 -43 156 -158z m1729 139 c204 -38 384 -93 587 -180 l38 -16 -54 -83
c-254 -390 -322 -749 -191 -1007 24 -47 110 -161 127 -168 13 -6 9 -22 -6 -22
-26 0 -166 -99 -229 -162 -116 -117 -197 -266 -249 -458 -15 -54 -22 -116 -25
-225 -4 -135 -2 -159 20 -245 26 -100 55 -171 106 -257 17 -29 27 -54 23 -57
-5 -3 -64 -13 -133 -22 -180 -26 -648 -26 -809 -1 -63 10 -117 20 -119 23 -3
2 5 21 18 42 44 72 92 184 113 260 17 61 21 107 22 227 1 209 -26 321 -118
499 -62 122 -176 247 -301 332 l-83 56 46 58 c61 75 97 149 122 245 58 225
-21 527 -224 862 -31 51 -56 96 -56 101 0 10 129 66 238 103 113 38 330 87
465 104 152 19 547 14 672 -9z m1096 -38 c-16 -29 -73 -132 -126 -228 -53 -96
-145 -249 -204 -340 -105 -161 -172 -270 -185 -300 -21 -51 11 103 40 189 69
209 193 407 393 629 51 56 97 102 102 102 5 0 -4 -24 -20 -52z m-4108 -928
l38 -71 -69 -74 c-142 -152 -249 -338 -297 -516 -59 -220 -55 -420 11 -621 47
-140 114 -249 229 -367 109 -114 83 -106 -35 11 -260 258 -382 571 -350 905 5
61 21 148 35 194 33 113 121 285 198 389 63 85 183 220 196 220 3 0 23 -32 44
-70z m5402 -30 c197 -217 304 -439 335 -695 28 -237 -36 -496 -175 -705 -49
-74 -217 -256 -269 -292 -17 -12 11 22 61 74 150 157 213 273 253 468 77 375
-35 741 -318 1035 l-73 76 36 57 c19 32 35 63 35 70 0 28 32 3 115 -88z
m-3862 -625 c111 -29 228 -103 300 -191 l31 -37 -54 37 c-79 53 -165 77 -291
83 -165 8 -303 -24 -484 -112 -195 -94 -363 -234 -433 -360 -38 -68 -33 -40 8
52 84 187 270 388 437 472 23 11 79 32 125 45 101 30 269 35 361 11z m2547 -8
c229 -76 428 -257 547 -498 60 -122 68 -160 13 -62 -39 68 -160 188 -254 250
-97 65 -265 148 -360 179 -64 22 -107 28 -207 32 -173 6 -282 -20 -390 -95
l-52 -35 27 35 c66 86 202 174 314 202 73 19 297 13 362 -8z m-2389 -464 c128
-57 209 -195 209 -355 0 -155 -61 -288 -189 -418 -99 -100 -189 -151 -305
-171 -124 -21 -260 17 -333 93 -108 113 -117 294 -25 491 50 106 78 147 149
220 115 117 235 170 368 164 52 -2 96 -11 126 -24z m2147 9 c177 -56 350 -263
408 -492 23 -89 16 -229 -14 -287 -70 -135 -221 -201 -398 -173 -170 26 -332
155 -418 331 -53 110 -65 158 -66 255 -1 226 145 381 362 383 38 1 91 -7 126
-17z"/>
<path d="M4330 7688 c-80 -9 -139 -31 -207 -75 -71 -47 -121 -104 -210 -241
-41 -64 -131 -200 -199 -302 -156 -233 -178 -284 -178 -405 0 -80 3 -97 31
-157 43 -92 100 -151 191 -196 l76 -37 135 0 c125 0 142 2 214 29 145 53 288
164 393 302 167 223 255 504 225 724 -34 255 -210 389 -471 358z m180 -507
c34 -24 53 -82 39 -119 -26 -68 -90 -97 -152 -67 -41 19 -61 53 -60 101 3 91
97 138 173 85z m-197 -287 c31 -25 57 -54 57 -64 0 -25 -26 -43 -53 -37 -31 8
-106 67 -113 90 -6 19 20 57 40 57 6 0 37 -21 69 -46z"/>
<path d="M6015 7680 c-122 -30 -218 -124 -266 -261 -31 -88 -31 -277 -1 -391
39 -144 137 -336 236 -460 102 -128 278 -246 422 -282 182 -46 386 1 487 113
63 69 90 135 95 229 7 135 -31 232 -168 427 -43 60 -113 166 -155 235 -157
253 -248 341 -394 384 -57 17 -201 20 -256 6z m108 -484 c71 -30 98 -107 56
-160 -62 -79 -169 -63 -200 31 -15 45 12 101 61 125 42 22 42 22 83 4z m187
-276 c27 -27 25 -37 -12 -72 -49 -46 -86 -62 -114 -49 -39 17 -29 46 34 95 31
25 60 45 65 46 4 0 16 -9 27 -20z"/>
<path d="M4934 6731 c-48 -29 -64 -59 -64 -117 0 -55 24 -98 91 -160 40 -37
136 -100 185 -120 l34 -14 0 -73 c0 -89 -25 -133 -97 -168 -65 -33 -180 -33
-238 -2 -60 32 -102 82 -114 132 -12 57 -41 85 -85 85 -63 0 -112 -69 -97
-135 43 -189 270 -325 482 -290 77 13 149 41 198 78 33 25 35 26 60 10 205
-130 421 -124 579 18 58 53 112 148 112 199 0 52 -25 95 -65 112 -58 24 -108
-9 -120 -81 -10 -51 -82 -125 -141 -143 -91 -27 -196 -6 -254 51 -41 41 -50
64 -50 140 l0 62 73 37 c236 122 313 285 178 375 -33 23 -39 23 -335 23 -279
0 -303 -1 -332 -19z"/>
</g>
</svg>
