<svg width="368" height="103" viewBox="0 0 368 103" fill="none" xmlns="http://www.w3.org/2000/svg">
<path fill-rule="evenodd" clip-rule="evenodd" d="M57.0415 6.00005C50.2641 6.29006 43.8749 8.07766 38.196 11.0403L57.0415 43.6816V6.00005ZM57.0415 58.3243L38.1985 90.961C43.8767 93.9231 50.2652 95.7099 57.0415 96V58.3243ZM60.9582 96V58.2987L79.8125 90.9555C74.1314 93.921 67.739 95.7099 60.9582 96ZM60.9582 43.7069V6C67.74 6.29003 74.1332 8.07967 79.8149 11.0457L60.9582 43.7069ZM21.0073 75.2034L53.6568 56.3533L34.8081 89.0001C29.264 85.4631 24.5458 80.7464 21.0073 75.2034ZM96.9997 26.8066L64.3574 45.6526L83.2048 13.0077C88.7471 16.5459 93.4631 21.2634 96.9997 26.8066ZM21.0037 26.8023C24.5421 21.2577 29.2608 16.5394 34.8057 13.0014L53.6585 45.6554L21.0037 26.8023ZM19.0423 30.1925C16.0774 35.8744 14.289 42.2679 14 49.0494H51.7034L19.0423 30.1925ZM19.0454 71.8135C16.0809 66.1342 14.2918 59.7442 14.0007 52.9662H51.6903L19.0454 71.8135ZM66.3073 49.0494H104.001C103.712 42.2697 101.924 35.8779 98.9607 30.197L66.3073 49.0494ZM98.9576 71.809L66.3208 52.9662H104C103.709 59.7425 101.921 66.1311 98.9576 71.809ZM64.3592 56.356L83.2024 88.9938C88.7436 85.4568 93.4593 80.7405 96.9963 75.1989L64.3592 56.356Z" fill="#121212"/>
<path d="M315.28 36.52H320.912L331.216 64.808L341.136 36.52H346.704L332.944 74.728C331.664 78.376 329.232 80.04 325.392 80.04H321.36V75.368H324.88C326.608 75.368 327.632 74.728 328.272 72.936L329.488 69.8H327.696L315.28 36.52Z" fill="#121212"/>
<path d="M282.269 46.504C283.613 39.912 288.861 35.752 296.093 35.752C304.861 35.752 309.725 40.872 309.725 49.96V63.592C309.725 65.128 310.365 65.768 311.837 65.768H313.181V70.44H310.941C307.485 70.44 304.477 69.288 304.541 65.128C303.069 68.328 299.229 71.208 293.853 71.208C287.133 71.208 281.693 67.624 281.693 61.608C281.693 54.632 287.005 52.84 294.429 51.368L304.477 49.448C304.413 43.56 301.661 40.744 296.093 40.744C291.741 40.744 288.861 42.984 287.837 46.952L282.269 46.504ZM287.197 61.608C287.197 64.36 289.565 66.6 294.557 66.536C300.189 66.536 304.605 62.568 304.605 54.696V54.12L296.477 55.528C291.421 56.424 287.197 56.808 287.197 61.608Z" fill="#121212"/>
<path d="M273.273 25V70.44H268.537L268.345 65.448C266.425 69.032 262.777 71.208 257.529 71.208C247.737 71.208 243.193 62.888 243.193 53.48C243.193 44.072 247.737 35.752 257.529 35.752C262.521 35.752 266.105 37.672 268.025 41.128V25H273.273ZM248.697 53.48C248.697 60.072 251.513 66.216 258.617 66.216C265.593 66.216 268.473 59.944 268.473 53.48C268.473 46.76 265.593 40.552 258.617 40.552C251.513 40.552 248.697 46.696 248.697 53.48Z" fill="#121212"/>
<path d="M234.773 25V70.44H230.037L229.845 65.448C227.925 69.032 224.277 71.208 219.029 71.208C209.237 71.208 204.693 62.888 204.693 53.48C204.693 44.072 209.237 35.752 219.029 35.752C224.021 35.752 227.605 37.672 229.525 41.128V25H234.773ZM210.197 53.48C210.197 60.072 213.013 66.216 220.117 66.216C227.093 66.216 229.973 59.944 229.973 53.48C229.973 46.76 227.093 40.552 220.117 40.552C213.013 40.552 210.197 46.696 210.197 53.48Z" fill="#121212"/>
<path d="M191 36.52H196.248V70.44H191V36.52ZM190.872 31.208V25.128H196.376V31.208H190.872Z" fill="#121212"/>
<path d="M136 36.52H140.8L140.992 42.28C142.528 38.12 146.048 35.752 150.784 35.752C155.648 35.752 159.168 38.376 160.64 42.92C162.112 38.312 165.696 35.752 171.008 35.752C177.792 35.752 181.76 40.488 181.76 48.616V70.44H176.512V50.152C176.512 43.944 174.08 40.424 169.92 40.424C164.608 40.424 161.536 44.008 161.536 50.216V70.44H156.288V50.152C156.288 44.072 153.792 40.424 149.696 40.424C144.448 40.424 141.248 44.136 141.248 50.152V70.44H136V36.52Z" fill="#121212"/>
</svg>
