<svg width="79" height="17" viewBox="0 0 79 17" fill="none" xmlns="http://www.w3.org/2000/svg">
<g clip-path="url(#clip0_1893_3733)">
<path d="M8.27225 16.0859C3.83907 16.0859 0.5 12.5771 0.5 8.2453C0.5 3.89909 3.66857 0.36145 8.27225 0.36145C10.7162 0.36145 12.407 1.11229 13.7284 2.83057L11.5971 4.60661C10.7019 3.65361 9.62205 3.17712 8.27225 3.17712C5.27416 3.17712 3.62594 5.47297 3.62594 8.2453C3.62594 11.0177 5.43046 13.2702 8.27225 13.2702C9.60783 13.2702 10.7446 12.7937 11.6397 11.8407L13.7426 13.6889C12.478 15.335 10.7446 16.0859 8.27225 16.0859Z" fill="#F5F5F3"/>
<path d="M22.9215 4.54829H25.7917V15.8109H22.9215V14.1649C22.3248 15.3345 21.3301 16.1142 19.4262 16.1142C16.3855 16.1142 13.9557 13.4718 13.9557 10.223C13.9557 6.97409 16.3855 4.3317 19.4262 4.3317C21.316 4.3317 22.3248 5.11142 22.9215 6.28101V4.54829ZM23.0068 10.223C23.0068 8.46137 21.799 7.00298 19.8951 7.00298C18.0621 7.00298 16.8685 8.47575 16.8685 10.223C16.8685 11.9267 18.0621 13.4429 19.8951 13.4429C21.7849 13.4429 23.0068 11.9701 23.0068 10.223Z" fill="#F5F5F3"/>
<path d="M27.8235 0H30.6937V15.7966H27.8235V0Z" fill="#F5F5F3"/>
<path d="M31.9725 14.3095C31.9725 13.3854 32.7114 12.6057 33.7202 12.6057C34.729 12.6057 35.4395 13.3854 35.4395 14.3095C35.4395 15.2625 34.7148 16.0422 33.7202 16.0422C32.7256 16.0422 31.9725 15.2625 31.9725 14.3095Z" fill="#F5F5F3"/>
<path d="M46.4229 13.9916C45.3572 15.2911 43.7374 16.1142 41.8192 16.1142C38.3949 16.1142 35.8799 13.4718 35.8799 10.223C35.8799 6.97409 38.3949 4.3317 41.8192 4.3317C43.6663 4.3317 45.272 5.11142 46.3376 6.33876L44.1211 8.20143C43.5669 7.50835 42.8422 6.98853 41.8192 6.98853C39.9863 6.98853 38.7927 8.46137 38.7927 10.2085C38.7927 11.9556 39.9863 13.4285 41.8192 13.4285C42.9275 13.4285 43.6948 12.8509 44.2631 12.0712L46.4229 13.9916Z" fill="#F5F5F3"/>
<path d="M46.6644 10.223C46.6644 6.97409 49.1793 4.3317 52.6037 4.3317C56.028 4.3317 58.5429 6.97409 58.5429 10.223C58.5429 13.4718 56.028 16.1142 52.6037 16.1142C49.1793 16.0997 46.6644 13.4718 46.6644 10.223ZM55.6302 10.223C55.6302 8.46137 54.4366 7.00298 52.6037 7.00298C50.7708 6.98853 49.5772 8.46137 49.5772 10.223C49.5772 11.9701 50.7708 13.4429 52.6037 13.4429C54.4366 13.4429 55.6302 11.9701 55.6302 10.223Z" fill="#F5F5F3"/>
<path d="M77.952 8.9236V15.7967H75.0821V9.63111C75.0821 7.68182 74.1727 6.84434 72.8087 6.84434C71.5298 6.84434 70.6205 7.47967 70.6205 9.63111V15.7967H67.7504V9.63111C67.7504 7.68182 66.8267 6.84434 65.4769 6.84434C64.1981 6.84434 63.0756 7.47967 63.0756 9.63111V15.7967H60.2054V4.53405H63.0756V6.09349C63.6724 4.88059 64.7522 4.27414 66.4147 4.27414C67.9919 4.27414 69.3133 5.05386 70.0379 6.36784C70.7626 5.02498 71.8283 4.27414 73.7606 4.27414C76.1193 4.28858 77.952 6.07905 77.952 8.9236Z" fill="#F5F5F3"/>
</g>
<defs>
<clipPath id="clip0_1893_3733">
<rect width="78.0455" height="17" fill="white" transform="translate(0.5)"/>
</clipPath>
</defs>
</svg>
