<svg width="40" height="40" viewBox="0 0 40 40" fill="none" xmlns="http://www.w3.org/2000/svg">
<path d="M9.85313 24.6172C9.85251 25.3442 9.63636 26.0547 9.23199 26.6589C8.82763 27.2631 8.25322 27.7339 7.58136 28.0117C6.9095 28.2895 6.17036 28.3618 5.45739 28.2196C4.74441 28.0774 4.0896 27.727 3.57574 27.2127C3.06187 26.6984 2.71203 26.0433 2.57042 25.3302C2.42881 24.6171 2.5018 23.878 2.78016 23.2064C3.05852 22.5348 3.52976 21.9607 4.1343 21.5569C4.73884 21.153 5.44954 20.9375 6.17656 20.9375H9.85313V24.6172Z" fill="white"/>
<path d="M11.7063 24.6172C11.7063 23.6421 12.0936 22.7069 12.7831 22.0175C13.4726 21.328 14.4078 20.9406 15.3829 20.9406C16.3579 20.9406 17.2931 21.328 17.9826 22.0175C18.6721 22.7069 19.0594 23.6421 19.0594 24.6172V33.8234C19.0594 34.7985 18.6721 35.7337 17.9826 36.4231C17.2931 37.1126 16.3579 37.5 15.3829 37.5C14.4078 37.5 13.4726 37.1126 12.7831 36.4231C12.0936 35.7337 11.7063 34.7985 11.7063 33.8234V24.6172Z" fill="white"/>
<path d="M15.3829 9.85313C14.6559 9.85251 13.9454 9.63636 13.3412 9.23199C12.737 8.82763 12.2662 8.25322 11.9884 7.58136C11.7106 6.9095 11.6383 6.17036 11.7805 5.45739C11.9227 4.74441 12.2731 4.0896 12.7874 3.57574C13.3017 3.06187 13.9568 2.71203 14.6699 2.57042C15.383 2.42881 16.1221 2.5018 16.7937 2.78016C17.4653 3.05852 18.0394 3.52976 18.4432 4.1343C18.8471 4.73884 19.0626 5.44954 19.0626 6.17656V9.85313H15.3829Z" fill="white"/>
<path d="M15.3828 11.7062C16.3579 11.7062 17.293 12.0936 17.9825 12.7831C18.672 13.4726 19.0594 14.4077 19.0594 15.3828C19.0594 16.3579 18.672 17.293 17.9825 17.9825C17.293 18.672 16.3579 19.0594 15.3828 19.0594H6.17656C5.20148 19.0594 4.26633 18.672 3.57684 17.9825C2.88735 17.293 2.5 16.3579 2.5 15.3828C2.5 14.4077 2.88735 13.4726 3.57684 12.7831C4.26633 12.0936 5.20148 11.7062 6.17656 11.7062H15.3828Z" fill="white"/>
<path d="M30.147 15.3828C30.1476 14.6558 30.3637 13.9453 30.7681 13.3411C31.1725 12.7369 31.7469 12.2661 32.4187 11.9883C33.0906 11.7106 33.8297 11.6382 34.5427 11.7804C35.2557 11.9226 35.9105 12.273 36.4244 12.7873C36.9382 13.3016 37.2881 13.9567 37.4297 14.6698C37.5713 15.3829 37.4983 16.122 37.2199 16.7936C36.9416 17.4652 36.4703 18.0393 35.8658 18.4431C35.2613 18.847 34.5506 19.0625 33.8235 19.0625H30.147V15.3828Z" fill="white"/>
<path d="M28.2938 15.3828C28.2938 16.3579 27.9064 17.293 27.217 17.9825C26.5275 18.672 25.5923 19.0594 24.6172 19.0594C23.6422 19.0594 22.707 18.672 22.0175 17.9825C21.328 17.293 20.9407 16.3579 20.9407 15.3828V6.17656C20.9407 5.20148 21.328 4.26633 22.0175 3.57684C22.707 2.88735 23.6422 2.5 24.6172 2.5C25.5923 2.5 26.5275 2.88735 27.217 3.57684C27.9064 4.26633 28.2938 5.20148 28.2938 6.17656V15.3828Z" fill="white"/>
<path d="M24.6172 30.1469C25.3442 30.1475 26.0547 30.3637 26.6589 30.768C27.2631 31.1724 27.7339 31.7468 28.0117 32.4186C28.2895 33.0905 28.3618 33.8296 28.2196 34.5426C28.0774 35.2556 27.727 35.9104 27.2127 36.4243C26.6984 36.9381 26.0433 37.288 25.3302 37.4296C24.6171 37.5712 23.878 37.4982 23.2064 37.2198C22.5348 36.9415 21.9607 36.4702 21.5569 35.8657C21.153 35.2612 20.9375 34.5505 20.9375 33.8234V30.1469H24.6172Z" fill="white"/>
<path d="M24.6172 28.2937C23.6422 28.2937 22.707 27.9064 22.0175 27.2169C21.328 26.5274 20.9407 25.5923 20.9407 24.6172C20.9407 23.6421 21.328 22.7069 22.0175 22.0175C22.707 21.328 23.6422 20.9406 24.6172 20.9406H33.8235C34.7986 20.9406 35.7337 21.328 36.4232 22.0175C37.1127 22.7069 37.5 23.6421 37.5 24.6172C37.5 25.5923 37.1127 26.5274 36.4232 27.2169C35.7337 27.9064 34.7986 28.2937 33.8235 28.2937H24.6172Z" fill="white"/>
</svg>
