<svg width="402" height="342" viewBox="0 0 402 342" fill="none" xmlns="http://www.w3.org/2000/svg">
<path d="M0 43.2C0 28.0786 0 20.5179 2.94282 14.7423C5.53141 9.66188 9.66188 5.53141 14.7423 2.94282C20.5179 0 28.0786 0 43.2 0H358.8C373.921 0 381.482 0 387.258 2.94282C392.338 5.53141 396.469 9.66188 399.057 14.7423C402 20.5179 402 28.0786 402 43.2V242.8C402 277.523 402 294.885 395.242 308.147C389.298 319.813 379.813 329.298 368.147 335.242C354.885 342 337.523 342 302.8 342H99.2C64.4767 342 47.1151 342 33.8526 335.242C22.1865 329.298 12.7017 319.813 6.7576 308.147C0 294.885 0 277.523 0 242.8V43.2Z" fill="black" fill-opacity="0.25"/>
<path d="M0 43.2C0 28.0786 0 20.5179 2.94282 14.7423C5.53141 9.66188 9.66188 5.53141 14.7423 2.94282C20.5179 0 28.0786 0 43.2 0H358.8C373.921 0 381.482 0 387.258 2.94282C392.338 5.53141 396.469 9.66188 399.057 14.7423C402 20.5179 402 28.0786 402 43.2V242.8C402 277.523 402 294.885 395.242 308.147C389.298 319.813 379.813 329.298 368.147 335.242C354.885 342 337.523 342 302.8 342H99.2C64.4767 342 47.1151 342 33.8526 335.242C22.1865 329.298 12.7017 319.813 6.7576 308.147C0 294.885 0 277.523 0 242.8V43.2Z" fill="#CCCCCC" style="mix-blend-mode:plus-darker"/>
<path d="M0 43.2C0 28.0786 0 20.5179 2.94282 14.7423C5.53141 9.66188 9.66188 5.53141 14.7423 2.94282C20.5179 0 28.0786 0 43.2 0H358.8C373.921 0 381.482 0 387.258 2.94282C392.338 5.53141 396.469 9.66188 399.057 14.7423C402 20.5179 402 28.0786 402 43.2V242.8C402 277.523 402 294.885 395.242 308.147C389.298 319.813 379.813 329.298 368.147 335.242C354.885 342 337.523 342 302.8 342H99.2C64.4767 342 47.1151 342 33.8526 335.242C22.1865 329.298 12.7017 319.813 6.7576 308.147C0 294.885 0 277.523 0 242.8V43.2Z" fill="#0D0D0D" style="mix-blend-mode:plus-lighter"/>
<path d="M0 43.2C0 28.0786 0 20.5179 2.94282 14.7423C5.53141 9.66188 9.66188 5.53141 14.7423 2.94282C20.5179 0 28.0786 0 43.2 0H358.8C373.921 0 381.482 0 387.258 2.94282C392.338 5.53141 396.469 9.66188 399.057 14.7423C402 20.5179 402 28.0786 402 43.2V242.8C402 277.523 402 294.885 395.242 308.147C389.298 319.813 379.813 329.298 368.147 335.242C354.885 342 337.523 342 302.8 342H99.2C64.4767 342 47.1151 342 33.8526 335.242C22.1865 329.298 12.7017 319.813 6.7576 308.147C0 294.885 0 277.523 0 242.8V43.2Z" fill="#262626" fill-opacity="0.9" style="mix-blend-mode:luminosity"/>
<path d="M48.1858 19.022L47.4637 23.7451H45.8118L47.115 19.022H48.1858ZM50.9417 19.022L50.2195 23.7451H48.5677L49.8709 19.022H50.9417ZM56.4883 31V20.3667H52.6284V19.022H61.8423V20.3667H57.9824V31H56.4883ZM63.6203 31V18.499H65.0646V23.3965H65.1974C65.4243 22.9206 65.7508 22.5526 66.1769 22.2925C66.603 22.0269 67.1453 21.894 67.8039 21.894C68.4735 21.894 69.0407 22.0241 69.5055 22.2842C69.9704 22.5387 70.3245 22.9123 70.568 23.4048C70.8115 23.8973 70.9333 24.4977 70.9333 25.2061V31H69.4889V25.5547C69.4889 24.7467 69.3174 24.1491 68.9743 23.7617C68.6367 23.3688 68.111 23.1724 67.3971 23.1724C66.9212 23.1724 66.509 23.2747 66.1603 23.4795C65.8117 23.6842 65.5405 23.9748 65.3468 24.3511C65.1587 24.7274 65.0646 25.1784 65.0646 25.7041V31H63.6203ZM76.7704 31.1577C75.9181 31.1577 75.1849 30.9696 74.5707 30.5933C73.9619 30.217 73.4916 29.6857 73.1595 28.9995C72.833 28.3078 72.6698 27.4943 72.6698 26.5591V26.5508C72.6698 25.6266 72.833 24.8159 73.1595 24.1187C73.4916 23.4214 73.9592 22.8763 74.5624 22.4834C75.1655 22.0905 75.8711 21.894 76.6791 21.894C77.4925 21.894 78.1898 22.0822 78.7708 22.4585C79.3574 22.8348 79.8057 23.3605 80.1156 24.0356C80.431 24.7052 80.5887 25.4855 80.5887 26.3765V26.9409H73.4168V25.7871H79.8499L79.1361 26.8413V26.2686C79.1361 25.5658 79.0309 24.9875 78.8207 24.5337C78.6104 24.0799 78.3198 23.7424 77.9491 23.521C77.5783 23.2941 77.1522 23.1807 76.6707 23.1807C76.1893 23.1807 75.7577 23.2996 75.3758 23.5376C74.9995 23.77 74.7007 24.1159 74.4793 24.5752C74.258 25.0345 74.1473 25.599 74.1473 26.2686V26.8413C74.1473 27.4777 74.2552 28.0228 74.471 28.4766C74.6869 28.9248 74.994 29.2707 75.3924 29.5142C75.7909 29.7521 76.2612 29.8711 76.8036 29.8711C77.2075 29.8711 77.5589 29.8158 77.8578 29.7051C78.1566 29.5944 78.4028 29.4533 78.5965 29.2817C78.7902 29.1102 78.9258 28.9359 79.0033 28.7588L79.0365 28.6841H80.4808L80.4642 28.7505C80.3867 29.0549 80.2484 29.3509 80.0492 29.6387C79.8555 29.9209 79.6037 30.1782 79.2938 30.4106C78.9839 30.6375 78.6159 30.8201 78.1898 30.9585C77.7692 31.0913 77.2961 31.1577 76.7704 31.1577ZM82.3916 23.7451L83.1138 19.022H84.7657L83.4624 23.7451H82.3916ZM85.1475 23.7451L85.8697 19.022H87.5215L86.2183 23.7451H85.1475Z" fill="#F5F5F5"/>
<g opacity="0.1" style="mix-blend-mode:plus-lighter">
<rect x="133.333" y="12" width="1" height="25" fill="#333333"/>
</g>
<path d="M193.005 31.0664C192.086 31.0664 191.419 30.881 191.004 30.5103C190.595 30.1395 190.39 29.528 190.39 28.6758V23.2471H188.979V22.0518H190.39V19.7358H191.884V22.0518H193.843V23.2471H191.884V28.3105C191.884 28.8363 191.984 29.2153 192.183 29.4478C192.382 29.6746 192.714 29.7881 193.179 29.7881C193.306 29.7881 193.414 29.7853 193.503 29.7798C193.597 29.7743 193.71 29.766 193.843 29.7549V30.9834C193.705 31.0055 193.566 31.0249 193.428 31.0415C193.29 31.0581 193.149 31.0664 193.005 31.0664ZM195.654 31V18.499H197.099V23.3965H197.231C197.458 22.9206 197.785 22.5526 198.211 22.2925C198.637 22.0269 199.179 21.894 199.838 21.894C200.507 21.894 201.075 22.0241 201.54 22.2842C202.004 22.5387 202.359 22.9123 202.602 23.4048C202.846 23.8973 202.967 24.4977 202.967 25.2061V31H201.523V25.5547C201.523 24.7467 201.351 24.1491 201.008 23.7617C200.671 23.3688 200.145 23.1724 199.431 23.1724C198.955 23.1724 198.543 23.2747 198.194 23.4795C197.846 23.6842 197.575 23.9748 197.381 24.3511C197.193 24.7274 197.099 25.1784 197.099 25.7041V31H195.654ZM208.804 31.1577C207.952 31.1577 207.219 30.9696 206.605 30.5933C205.996 30.217 205.526 29.6857 205.194 28.9995C204.867 28.3078 204.704 27.4943 204.704 26.5591V26.5508C204.704 25.6266 204.867 24.8159 205.194 24.1187C205.526 23.4214 205.993 22.8763 206.596 22.4834C207.2 22.0905 207.905 21.894 208.713 21.894C209.527 21.894 210.224 22.0822 210.805 22.4585C211.391 22.8348 211.84 23.3605 212.15 24.0356C212.465 24.7052 212.623 25.4855 212.623 26.3765V26.9409H205.451V25.7871H211.884L211.17 26.8413V26.2686C211.17 25.5658 211.065 24.9875 210.855 24.5337C210.644 24.0799 210.354 23.7424 209.983 23.521C209.612 23.2941 209.186 23.1807 208.705 23.1807C208.223 23.1807 207.792 23.2996 207.41 23.5376C207.034 23.77 206.735 24.1159 206.513 24.5752C206.292 25.0345 206.181 25.599 206.181 26.2686V26.8413C206.181 27.4777 206.289 28.0228 206.505 28.4766C206.721 28.9248 207.028 29.2707 207.426 29.5142C207.825 29.7521 208.295 29.8711 208.838 29.8711C209.242 29.8711 209.593 29.8158 209.892 29.7051C210.191 29.5944 210.437 29.4533 210.631 29.2817C210.824 29.1102 210.96 28.9359 211.037 28.7588L211.07 28.6841H212.515L212.498 28.7505C212.421 29.0549 212.282 29.3509 212.083 29.6387C211.89 29.9209 211.638 30.1782 211.328 30.4106C211.018 30.6375 210.65 30.8201 210.224 30.9585C209.803 31.0913 209.33 31.1577 208.804 31.1577Z" fill="#F5F5F5"/>
<g opacity="0.1" style="mix-blend-mode:plus-lighter">
<rect x="267.667" y="12" width="1" height="25" fill="#333333"/>
</g>
<path d="M332.021 31.0664C331.102 31.0664 330.435 30.881 330.02 30.5103C329.611 30.1395 329.406 29.528 329.406 28.6758V23.2471H327.995V22.0518H329.406V19.7358H330.9V22.0518H332.859V23.2471H330.9V28.3105C330.9 28.8363 331 29.2153 331.199 29.4478C331.398 29.6746 331.73 29.7881 332.195 29.7881C332.322 29.7881 332.43 29.7853 332.519 29.7798C332.613 29.7743 332.726 29.766 332.859 29.7549V30.9834C332.721 31.0055 332.582 31.0249 332.444 31.0415C332.306 31.0581 332.164 31.0664 332.021 31.0664ZM338.148 31.1577C337.301 31.1577 336.568 30.9723 335.948 30.6016C335.334 30.2253 334.858 29.6912 334.521 28.9995C334.189 28.3078 334.023 27.486 334.023 26.5342V26.5176C334.023 25.5602 334.189 24.7357 334.521 24.0439C334.858 23.3522 335.334 22.821 335.948 22.4502C336.568 22.0794 337.301 21.894 338.148 21.894C339 21.894 339.734 22.0794 340.348 22.4502C340.962 22.821 341.435 23.3522 341.767 24.0439C342.105 24.7357 342.274 25.5602 342.274 26.5176V26.5342C342.274 27.486 342.105 28.3078 341.767 28.9995C341.435 29.6912 340.962 30.2253 340.348 30.6016C339.734 30.9723 339 31.1577 338.148 31.1577ZM338.148 29.8794C338.713 29.8794 339.191 29.7466 339.584 29.481C339.977 29.2153 340.276 28.8335 340.481 28.3354C340.691 27.8374 340.796 27.237 340.796 26.5342V26.5176C340.796 25.8092 340.691 25.2061 340.481 24.708C340.276 24.21 339.977 23.8309 339.584 23.5708C339.191 23.3052 338.713 23.1724 338.148 23.1724C337.584 23.1724 337.105 23.3052 336.712 23.5708C336.319 23.8309 336.018 24.21 335.807 24.708C335.603 25.2061 335.5 25.8092 335.5 26.5176V26.5342C335.5 27.237 335.603 27.8374 335.807 28.3354C336.018 28.8335 336.319 29.2153 336.712 29.481C337.105 29.7466 337.584 29.8794 338.148 29.8794Z" fill="#F5F5F5"/>
<rect x="8.5" y="49" width="33.1" height="45" rx="8.5" fill="#999999" fill-opacity="0.15"/>
<rect x="8.5" y="49" width="33.1" height="45" rx="8.5" fill="#121212" style="mix-blend-mode:plus-lighter"/>
<path d="M24.1821 64.9629C24.8088 64.9629 25.3703 65.0443 25.8667 65.207C26.3631 65.3698 26.7944 65.6017 27.1606 65.9028C27.5269 66.2039 27.832 66.562 28.0762 66.9771H28.1494V65.1582H30.2734V82.2603H28.064V76.1689H27.9907C27.8605 76.4375 27.6733 76.6979 27.4292 76.9502C27.1932 77.1943 26.9084 77.41 26.5747 77.5972C26.2492 77.7843 25.883 77.9308 25.4761 78.0366C25.0773 78.1424 24.6379 78.1953 24.1577 78.1953C23.1486 78.1953 22.2697 77.9471 21.521 77.4507C20.7804 76.9543 20.2026 76.2463 19.7876 75.3267C19.3807 74.3989 19.1772 73.3003 19.1772 72.0308V71.0054C19.1772 69.7765 19.3807 68.7104 19.7876 67.8071C20.2026 66.9038 20.7845 66.2039 21.5332 65.7075C22.29 65.2111 23.173 64.9629 24.1821 64.9629ZM24.6704 66.8672C24.0031 66.8672 23.4253 67.034 22.937 67.3677C22.4487 67.7013 22.0703 68.1855 21.8018 68.8203C21.5413 69.4551 21.4111 70.2241 21.4111 71.1274V71.9575C21.4111 72.8527 21.5413 73.6258 21.8018 74.2769C22.0622 74.9279 22.4365 75.4325 22.9248 75.7905C23.4131 76.1405 24.0031 76.3154 24.6948 76.3154C25.4028 76.3154 26.0091 76.1364 26.5137 75.7783C27.0264 75.4202 27.417 74.9157 27.6855 74.2646C27.9541 73.6136 28.0884 72.8446 28.0884 71.9575V71.1274C28.0884 70.2648 27.9541 69.5161 27.6855 68.8813C27.417 68.2466 27.0264 67.7542 26.5137 67.4043C26.001 67.0462 25.3866 66.8672 24.6704 66.8672Z" fill="#A6A6A6"/>
<rect x="47.6" y="49" width="33.1" height="45" rx="8.5" fill="#999999" fill-opacity="0.15"/>
<rect x="47.6" y="49" width="33.1" height="45" rx="8.5" fill="#121212" style="mix-blend-mode:plus-lighter"/>
<path d="M72.6571 65.1582L69.3002 78H67.0053L64.1366 68.1733H64.0756L61.1947 78H58.8876L55.5429 65.1582H57.789L60.0961 75.2534H60.1938L63.0502 65.1582H65.1498L68.0185 75.2534H68.1161L70.4232 65.1582H72.6571Z" fill="#A6A6A6"/>
<rect x="86.7" y="49" width="33.1" height="45" rx="8.5" fill="#999999" fill-opacity="0.15"/>
<rect x="86.7" y="49" width="33.1" height="45" rx="8.5" fill="#121212" style="mix-blend-mode:plus-lighter"/>
<path d="M103.322 78.2075C102.207 78.2075 101.243 77.9634 100.429 77.4751C99.6152 76.9787 98.9886 76.2788 98.5491 75.3755C98.1178 74.4722 97.9021 73.4102 97.9021 72.1895V70.7734C97.9021 69.626 98.1097 68.6169 98.5247 67.7461C98.9479 66.8753 99.5542 66.1917 100.344 65.6953C101.141 65.1989 102.105 64.9507 103.237 64.9507C104.36 64.9507 105.316 65.203 106.105 65.7075C106.903 66.2039 107.509 66.8997 107.924 67.7949C108.347 68.6901 108.559 69.7318 108.559 70.9199V72.1162H100.099V72.3604C100.099 73.5485 100.388 74.5169 100.966 75.2656C101.552 76.0143 102.358 76.3887 103.383 76.3887C103.871 76.3887 104.303 76.3114 104.677 76.1567C105.051 76.0021 105.365 75.7824 105.617 75.4976C105.877 75.2046 106.077 74.8628 106.215 74.4722H108.388C108.274 75.0011 108.083 75.4935 107.814 75.9492C107.546 76.3968 107.2 76.7915 106.777 77.1333C106.353 77.467 105.853 77.7314 105.275 77.9268C104.706 78.1139 104.054 78.2075 103.322 78.2075ZM100.099 70.3828H106.362C106.362 70.3747 106.362 70.3706 106.362 70.3706C106.362 70.3625 106.362 70.3543 106.362 70.3462C106.362 69.6789 106.231 69.0767 105.971 68.5396C105.711 67.9943 105.344 67.563 104.872 67.2456C104.408 66.9282 103.863 66.7695 103.237 66.7695C102.602 66.7695 102.048 66.9282 101.576 67.2456C101.113 67.563 100.75 67.9943 100.49 68.5396C100.23 69.0767 100.099 69.6789 100.099 70.3462C100.099 70.3543 100.099 70.3625 100.099 70.3706C100.099 70.3706 100.099 70.3747 100.099 70.3828Z" fill="#A6A6A6"/>
<rect x="125.8" y="49" width="33.1" height="45" rx="8.5" fill="#999999" fill-opacity="0.15"/>
<rect x="125.8" y="49" width="33.1" height="45" rx="8.5" fill="#121212" style="mix-blend-mode:plus-lighter"/>
<path d="M139.871 78V65.1582H142.08V66.7573H142.154C142.276 66.4969 142.467 66.2284 142.727 65.9517C142.988 65.675 143.329 65.443 143.753 65.2559C144.176 65.0605 144.693 64.9629 145.303 64.9629C145.441 64.9629 145.576 64.971 145.706 64.9873C145.844 64.9954 145.978 65.0076 146.109 65.0239V67.0381C145.995 67.0137 145.84 66.9974 145.645 66.9893C145.458 66.973 145.262 66.9648 145.059 66.9648C144.31 66.9648 143.72 67.1073 143.289 67.3921C142.857 67.6769 142.548 68.0594 142.361 68.5396C142.182 69.0116 142.092 69.5365 142.092 70.1143V78H139.871Z" fill="#A6A6A6"/>
<rect x="164.9" y="49" width="33.1" height="45" rx="8.5" fill="#999999" fill-opacity="0.15"/>
<rect x="164.9" y="49" width="33.1" height="45" rx="8.5" fill="#121212" style="mix-blend-mode:plus-lighter"/>
<path d="M179.813 65.1582V61.9722H181.998V65.1582H184.525V66.9893H181.998V74.3867C181.998 75.1436 182.149 75.6522 182.45 75.9126C182.751 76.1649 183.292 76.291 184.073 76.291C184.179 76.291 184.277 76.291 184.366 76.291C184.456 76.2829 184.541 76.2747 184.623 76.2666V78.0244C184.533 78.0407 184.383 78.057 184.171 78.0732C183.959 78.0977 183.74 78.1099 183.512 78.1099C182.495 78.1099 181.717 77.9797 181.18 77.7192C180.651 77.4507 180.285 77.0438 180.082 76.4985C179.886 75.9451 179.789 75.2453 179.789 74.3989V66.9893H178.055V65.1582H179.813Z" fill="#A6A6A6"/>
<rect x="204" y="49" width="33.1" height="45" rx="8.5" fill="#999999" fill-opacity="0.15"/>
<rect x="204" y="49" width="33.1" height="45" rx="8.5" fill="#121212" style="mix-blend-mode:plus-lighter"/>
<path d="M226.335 65.1582C225.944 66.2975 225.55 67.4246 225.151 68.5396C224.76 69.6545 224.374 70.7531 223.991 71.8354C223.609 72.9097 223.234 73.9635 222.868 74.9971C222.502 76.0306 222.144 77.0397 221.794 78.0244L221.464 78.9155C220.96 80.2827 220.358 81.2227 219.658 81.7354C218.958 82.248 218.05 82.5044 216.936 82.5044C216.74 82.5044 216.533 82.4922 216.313 82.4678C216.093 82.4515 215.894 82.4271 215.715 82.3945V80.6245C215.821 80.6326 215.963 80.6449 216.142 80.6611C216.321 80.6774 216.492 80.6855 216.655 80.6855C217.387 80.6855 217.945 80.5431 218.327 80.2583C218.71 79.9816 218.99 79.5096 219.169 78.8423L219.353 78.1709L214.641 65.1582H217.106L220.5 75.6196H220.573L223.991 65.1582H226.335Z" fill="#A6A6A6"/>
<rect x="243.1" y="49" width="33.1" height="45" rx="8.5" fill="#999999" fill-opacity="0.15"/>
<rect x="243.1" y="49" width="33.1" height="45" rx="8.5" fill="#121212" style="mix-blend-mode:plus-lighter"/>
<path d="M264.764 65.1582V78H262.578V76.3032H262.481C262.334 76.6369 262.098 76.9502 261.773 77.2432C261.455 77.5361 261.049 77.7721 260.552 77.9512C260.056 78.1221 259.466 78.2075 258.782 78.2075C257.895 78.2075 257.11 78.0407 256.426 77.707C255.743 77.3652 255.205 76.8647 254.815 76.2056C254.432 75.5464 254.241 74.7244 254.241 73.7397V65.1582H256.463V73.1172C256.463 73.9066 256.597 74.5291 256.866 74.9849C257.142 75.4325 257.509 75.7539 257.964 75.9492C258.42 76.1364 258.92 76.23 259.466 76.23C260.076 76.23 260.609 76.1079 261.065 75.8638C261.529 75.6196 261.891 75.2616 262.151 74.7896C262.42 74.3175 262.554 73.7479 262.554 73.0806V65.1582H264.764Z" fill="#A6A6A6"/>
<rect x="282.2" y="49" width="33.1" height="45" rx="8.5" fill="#999999" fill-opacity="0.15"/>
<rect x="282.2" y="49" width="33.1" height="45" rx="8.5" fill="#121212" style="mix-blend-mode:plus-lighter"/>
<path d="M297.589 78V65.1582H299.799V78H297.589ZM297.296 62.0576C297.296 61.667 297.43 61.3415 297.699 61.0811C297.976 60.8125 298.305 60.6782 298.688 60.6782C299.078 60.6782 299.408 60.8125 299.677 61.0811C299.953 61.3415 300.092 61.667 300.092 62.0576C300.092 62.4401 299.953 62.7656 299.677 63.0342C299.408 63.2946 299.078 63.4248 298.688 63.4248C298.305 63.4248 297.976 63.2946 297.699 63.0342C297.43 62.7656 297.296 62.4401 297.296 62.0576Z" fill="#A6A6A6"/>
<rect x="321.3" y="49" width="33.1" height="45" rx="8.5" fill="#999999" fill-opacity="0.15"/>
<rect x="321.3" y="49" width="33.1" height="45" rx="8.5" fill="#121212" style="mix-blend-mode:plus-lighter"/>
<path d="M337.8 64.9507C339.004 64.9507 340.018 65.2152 340.84 65.7441C341.661 66.2731 342.284 66.9933 342.707 67.9048C343.13 68.8162 343.342 69.8457 343.342 70.9932V72.1162C343.342 73.2799 343.13 74.3257 342.707 75.2534C342.284 76.173 341.661 76.8973 340.84 77.4263C340.018 77.9471 339.004 78.2075 337.8 78.2075C336.596 78.2075 335.578 77.9471 334.748 77.4263C333.918 76.8973 333.292 76.173 332.868 75.2534C332.453 74.3257 332.246 73.2799 332.246 72.1162V70.9932C332.246 69.8457 332.457 68.8162 332.881 67.9048C333.304 66.9933 333.926 66.2731 334.748 65.7441C335.578 65.2152 336.596 64.9507 337.8 64.9507ZM337.8 66.8184C337.084 66.8184 336.473 66.9933 335.969 67.3433C335.473 67.6932 335.094 68.1855 334.834 68.8203C334.581 69.4551 334.455 70.2038 334.455 71.0664V72.0674C334.455 72.9137 334.581 73.6584 334.834 74.3013C335.094 74.936 335.473 75.4325 335.969 75.7905C336.465 76.1486 337.076 76.3276 337.8 76.3276C338.524 76.3276 339.131 76.1486 339.619 75.7905C340.115 75.4325 340.49 74.936 340.742 74.3013C340.994 73.6665 341.12 72.9219 341.12 72.0674V71.0664C341.12 70.2038 340.994 69.4551 340.742 68.8203C340.49 68.1855 340.115 67.6932 339.619 67.3433C339.131 66.9933 338.524 66.8184 337.8 66.8184Z" fill="#A6A6A6"/>
<rect x="360.4" y="49" width="33.1" height="45" rx="8.5" fill="#999999" fill-opacity="0.15"/>
<rect x="360.4" y="49" width="33.1" height="45" rx="8.5" fill="#121212" style="mix-blend-mode:plus-lighter"/>
<path d="M377.571 78.1953C377.026 78.1953 376.522 78.118 376.058 77.9634C375.602 77.8006 375.195 77.5728 374.837 77.2798C374.487 76.9868 374.19 76.6532 373.946 76.2788H373.885V82.2603H371.675V65.1582H373.799V67.0015H373.86C374.048 66.7004 374.267 66.4237 374.52 66.1714C374.78 65.9191 375.069 65.7035 375.386 65.5244C375.704 65.3454 376.054 65.207 376.436 65.1094C376.819 65.0117 377.221 64.9629 377.645 64.9629C378.613 64.9629 379.472 65.203 380.22 65.6831C380.977 66.1551 381.571 66.8387 382.003 67.7339C382.442 68.6291 382.662 69.7114 382.662 70.981V72.1772C382.662 73.4224 382.442 74.4966 382.003 75.3999C381.571 76.3032 380.973 76.995 380.208 77.4751C379.451 77.9552 378.572 78.1953 377.571 78.1953ZM377.278 76.291C377.905 76.291 378.454 76.1283 378.926 75.8027C379.407 75.4772 379.777 74.9971 380.037 74.3623C380.306 73.7194 380.44 72.9341 380.44 72.0063V71.0664C380.44 70.1794 380.31 69.4225 380.049 68.7959C379.797 68.1611 379.431 67.6769 378.951 67.3433C378.479 67.0096 377.905 66.8428 377.23 66.8428C376.53 66.8428 375.928 67.0218 375.423 67.3799C374.918 67.7298 374.528 68.2181 374.251 68.8447C373.983 69.4714 373.848 70.2078 373.848 71.0542V72.0063C373.848 72.869 373.987 73.6258 374.263 74.2769C374.54 74.9198 374.935 75.4162 375.447 75.7661C375.96 76.116 376.57 76.291 377.278 76.291Z" fill="#A6A6A6"/>
<rect x="28.5" y="105" width="33" height="45" rx="8.5" fill="#999999" fill-opacity="0.15"/>
<rect x="28.5" y="105" width="33" height="45" rx="8.5" fill="#121212" style="mix-blend-mode:plus-lighter"/>
<path d="M43.8525 134.208C42.6074 134.208 41.5942 133.854 40.813 133.146C40.0399 132.438 39.6533 131.493 39.6533 130.313C39.6533 129.19 40.0358 128.295 40.8008 127.628C41.5739 126.961 42.6969 126.623 44.1699 126.615H47.5269V125.333C47.5269 124.511 47.2949 123.88 46.8311 123.441C46.3753 123.001 45.7243 122.782 44.8779 122.782C44.3408 122.782 43.881 122.867 43.4985 123.038C43.116 123.209 42.819 123.453 42.6074 123.771C42.3958 124.08 42.2656 124.442 42.2168 124.857H40.1416C40.1742 124.304 40.2922 123.791 40.4956 123.319C40.7072 122.839 41.0083 122.424 41.3989 122.074C41.7977 121.724 42.29 121.451 42.876 121.256C43.4701 121.052 44.1618 120.951 44.9512 120.951C45.8708 120.951 46.6886 121.113 47.4048 121.439C48.1291 121.764 48.6947 122.241 49.1016 122.867C49.5166 123.486 49.7241 124.251 49.7241 125.162V134H47.6123V132.401H47.5391C47.3275 132.751 47.0549 133.06 46.7212 133.329C46.3875 133.597 45.9847 133.813 45.5127 133.976C45.0407 134.13 44.4873 134.208 43.8525 134.208ZM44.4629 132.401C45.0488 132.401 45.5737 132.287 46.0376 132.059C46.5015 131.831 46.8636 131.518 47.124 131.119C47.3926 130.72 47.5269 130.261 47.5269 129.74V128.263H44.3896C43.5189 128.263 42.8882 128.446 42.4976 128.812C42.1069 129.178 41.9116 129.65 41.9116 130.228C41.9116 130.969 42.172 131.518 42.6929 131.876C43.2137 132.226 43.8037 132.401 44.4629 132.401Z" fill="#A6A6A6"/>
<rect x="67.5" y="105" width="33" height="45" rx="8.5" fill="#999999" fill-opacity="0.15"/>
<rect x="67.5" y="105" width="33" height="45" rx="8.5" fill="#121212" style="mix-blend-mode:plus-lighter"/>
<path d="M79.2515 124.845C79.2515 123.933 79.4753 123.193 79.9229 122.623C80.3786 122.045 80.9727 121.622 81.7051 121.354C82.4375 121.085 83.2147 120.951 84.0366 120.951C85.0457 120.951 85.888 121.122 86.5635 121.463C87.2471 121.805 87.7638 122.269 88.1138 122.855C88.4637 123.433 88.6387 124.084 88.6387 124.808H86.6001C86.5757 124.483 86.478 124.161 86.3071 123.844C86.1444 123.518 85.8758 123.25 85.5015 123.038C85.1271 122.826 84.6144 122.721 83.9634 122.721C83.2147 122.721 82.6003 122.883 82.1201 123.209C81.64 123.526 81.3999 123.994 81.3999 124.613C81.3999 124.971 81.4935 125.264 81.6807 125.492C81.876 125.72 82.1283 125.907 82.4375 126.053C82.7467 126.192 83.0885 126.306 83.4629 126.395C83.8454 126.476 84.2197 126.55 84.5859 126.615C85.3835 126.753 86.1118 126.944 86.771 127.188C87.4383 127.424 87.9714 127.778 88.3701 128.25C88.7689 128.714 88.9683 129.361 88.9683 130.191C88.9683 131.046 88.7526 131.774 88.3213 132.376C87.8981 132.979 87.3 133.434 86.5269 133.744C85.7619 134.053 84.8708 134.208 83.8535 134.208C82.8932 134.208 82.0509 134.061 81.3267 133.768C80.6024 133.475 80.0368 133.056 79.6299 132.511C79.223 131.957 79.0195 131.298 79.0195 130.533H81.1802C81.2453 130.916 81.3918 131.249 81.6196 131.534C81.8556 131.819 82.173 132.043 82.5718 132.206C82.9787 132.36 83.4588 132.438 84.0122 132.438C84.6551 132.438 85.18 132.348 85.5869 132.169C86.002 131.99 86.3071 131.75 86.5024 131.449C86.7059 131.148 86.8076 130.822 86.8076 130.472C86.8076 129.992 86.6611 129.626 86.3682 129.374C86.0833 129.121 85.6968 128.926 85.2085 128.788C84.7202 128.649 84.179 128.523 83.585 128.409C82.7956 128.246 82.0713 128.039 81.4121 127.787C80.7529 127.526 80.228 127.164 79.8374 126.7C79.4468 126.236 79.2515 125.618 79.2515 124.845Z" fill="#A6A6A6"/>
<rect x="106.5" y="105" width="33" height="45" rx="8.5" fill="#999999" fill-opacity="0.15"/>
<rect x="106.5" y="105" width="33" height="45" rx="8.5" fill="#121212" style="mix-blend-mode:plus-lighter"/>
<path d="M122.304 120.963C122.866 120.963 123.387 121.048 123.867 121.219C124.347 121.39 124.766 121.626 125.124 121.927C125.482 122.228 125.767 122.57 125.979 122.953H126.052V116.458H128.261V134H126.137V132.059H126.076C125.897 132.393 125.677 132.694 125.417 132.962C125.165 133.223 124.88 133.443 124.562 133.622C124.245 133.801 123.895 133.939 123.513 134.037C123.138 134.134 122.736 134.183 122.304 134.183C121.197 134.183 120.262 133.931 119.497 133.426C118.74 132.922 118.166 132.218 117.775 131.314C117.385 130.403 117.189 129.349 117.189 128.153V126.993C117.189 125.821 117.393 124.784 117.8 123.88C118.207 122.977 118.789 122.265 119.545 121.744C120.31 121.223 121.23 120.963 122.304 120.963ZM122.658 122.867C122.04 122.867 121.482 123.022 120.986 123.331C120.498 123.64 120.115 124.108 119.838 124.735C119.562 125.361 119.423 126.143 119.423 127.079V128.08C119.423 129.015 119.562 129.797 119.838 130.423C120.123 131.05 120.51 131.518 120.998 131.827C121.494 132.136 122.06 132.291 122.695 132.291C123.395 132.291 123.997 132.128 124.501 131.803C125.014 131.469 125.405 130.993 125.673 130.375C125.95 129.748 126.088 128.987 126.088 128.092V127.079C126.088 126.224 125.95 125.484 125.673 124.857C125.397 124.222 125.002 123.734 124.489 123.392C123.977 123.042 123.366 122.867 122.658 122.867Z" fill="#A6A6A6"/>
<rect x="145.5" y="105" width="33" height="45" rx="8.5" fill="#999999" fill-opacity="0.15"/>
<rect x="145.5" y="105" width="33" height="45" rx="8.5" fill="#121212" style="mix-blend-mode:plus-lighter"/>
<path d="M160.486 134V122.989H158.753V121.158H160.486V119.876C160.486 118.648 160.804 117.74 161.438 117.154C162.081 116.568 163.07 116.275 164.405 116.275C164.633 116.275 164.828 116.288 164.991 116.312C165.153 116.328 165.288 116.345 165.394 116.361V118.131C165.304 118.115 165.21 118.102 165.113 118.094C165.015 118.086 164.885 118.082 164.722 118.082C164.039 118.082 163.526 118.22 163.184 118.497C162.85 118.774 162.684 119.291 162.684 120.047V121.158H165.21V122.989H162.696V134H160.486Z" fill="#A6A6A6"/>
<rect x="184.5" y="105" width="33" height="45" rx="8.5" fill="#999999" fill-opacity="0.15"/>
<rect x="184.5" y="105" width="33" height="45" rx="8.5" fill="#121212" style="mix-blend-mode:plus-lighter"/>
<path d="M200.756 136.893C201.765 136.893 202.567 136.612 203.161 136.051C203.755 135.497 204.052 134.724 204.052 133.731V131.852H203.979C203.856 132.128 203.677 132.389 203.441 132.633C203.214 132.877 202.937 133.093 202.611 133.28C202.294 133.467 201.94 133.613 201.549 133.719C201.167 133.825 200.756 133.878 200.316 133.878C199.324 133.878 198.441 133.65 197.667 133.194C196.903 132.73 196.3 132.055 195.861 131.168C195.43 130.281 195.214 129.199 195.214 127.921V126.871C195.214 125.61 195.43 124.54 195.861 123.661C196.292 122.782 196.89 122.114 197.655 121.659C198.428 121.195 199.315 120.963 200.316 120.963C200.902 120.963 201.439 121.056 201.928 121.244C202.424 121.423 202.851 121.667 203.209 121.976C203.576 122.277 203.856 122.611 204.052 122.977H204.113V121.158H206.261V133.78C206.261 134.61 206.111 135.331 205.81 135.941C205.508 136.559 205.102 137.072 204.589 137.479C204.076 137.894 203.49 138.199 202.831 138.395C202.172 138.598 201.48 138.7 200.756 138.7C199.657 138.7 198.734 138.533 197.985 138.199C197.236 137.874 196.654 137.426 196.239 136.856C195.832 136.287 195.584 135.648 195.495 134.94H197.741C197.822 135.274 197.989 135.591 198.241 135.892C198.502 136.193 198.843 136.433 199.267 136.612C199.69 136.799 200.186 136.893 200.756 136.893ZM200.792 122.843C200.084 122.843 199.478 123.01 198.974 123.343C198.477 123.669 198.095 124.141 197.826 124.759C197.566 125.378 197.436 126.135 197.436 127.03V127.823C197.436 128.694 197.566 129.443 197.826 130.069C198.095 130.696 198.477 131.18 198.974 131.522C199.478 131.856 200.084 132.022 200.792 132.022C201.484 132.022 202.07 131.852 202.55 131.51C203.039 131.168 203.409 130.688 203.661 130.069C203.922 129.443 204.052 128.694 204.052 127.823V127.03C204.052 126.175 203.917 125.435 203.649 124.808C203.38 124.181 203.002 123.697 202.514 123.355C202.034 123.014 201.46 122.843 200.792 122.843Z" fill="#A6A6A6"/>
<rect x="223.5" y="105" width="33" height="45" rx="8.5" fill="#999999" fill-opacity="0.15"/>
<rect x="223.5" y="105" width="33" height="45" rx="8.5" fill="#121212" style="mix-blend-mode:plus-lighter"/>
<path d="M234.812 134V116.458H237.021V122.879H237.095C237.249 122.603 237.485 122.318 237.803 122.025C238.12 121.724 238.527 121.472 239.023 121.268C239.528 121.056 240.126 120.951 240.818 120.951C242.144 120.951 243.239 121.362 244.102 122.184C244.972 123.006 245.408 124.198 245.408 125.76V134H243.198V126.151C243.198 125.435 243.068 124.841 242.808 124.369C242.555 123.889 242.197 123.53 241.733 123.294C241.27 123.05 240.732 122.928 240.122 122.928C239.406 122.928 238.82 123.083 238.364 123.392C237.909 123.693 237.571 124.092 237.351 124.588C237.131 125.085 237.021 125.626 237.021 126.212V134H234.812Z" fill="#A6A6A6"/>
<rect x="262.5" y="105" width="33" height="45" rx="8.5" fill="#999999" fill-opacity="0.15"/>
<rect x="262.5" y="105" width="33" height="45" rx="8.5" fill="#121212" style="mix-blend-mode:plus-lighter"/>
<path d="M277.596 118.058C277.596 117.667 277.73 117.341 277.999 117.081C278.276 116.812 278.605 116.678 278.988 116.678C279.378 116.678 279.708 116.812 279.977 117.081C280.253 117.341 280.392 117.667 280.392 118.058C280.392 118.44 280.253 118.766 279.977 119.034C279.708 119.295 279.378 119.425 278.988 119.425C278.605 119.425 278.276 119.295 277.999 119.034C277.73 118.766 277.596 118.44 277.596 118.058ZM280.099 121.158V134.305C280.099 135.298 279.952 136.104 279.659 136.722C279.374 137.341 278.967 137.792 278.438 138.077C277.91 138.362 277.279 138.504 276.546 138.504C276.335 138.504 276.103 138.492 275.851 138.468C275.59 138.443 275.411 138.419 275.313 138.395V136.661C275.411 136.677 275.533 136.69 275.68 136.698C275.826 136.714 275.969 136.722 276.107 136.722C276.758 136.722 277.218 136.527 277.486 136.136C277.755 135.746 277.889 135.127 277.889 134.281V121.158H280.099Z" fill="#A6A6A6"/>
<rect x="301.5" y="105" width="33" height="45" rx="8.5" fill="#999999" fill-opacity="0.15"/>
<rect x="301.5" y="105" width="33" height="45" rx="8.5" fill="#121212" style="mix-blend-mode:plus-lighter"/>
<path d="M316.083 129.386V134H313.874V116.458H316.083V126.798H316.169L321.198 121.158H323.908L318.879 126.737L324.226 134H321.528L317.231 128.116L316.083 129.386Z" fill="#A6A6A6"/>
<rect x="340.5" y="105" width="33" height="45" rx="8.5" fill="#999999" fill-opacity="0.15"/>
<rect x="340.5" y="105" width="33" height="45" rx="8.5" fill="#121212" style="mix-blend-mode:plus-lighter"/>
<path d="M355.889 134V116.458H358.099V134H355.889Z" fill="#A6A6A6"/>
<rect x="8.5" y="161" width="44.6667" height="45" rx="8.5" fill="#999999" fill-opacity="0.15"/>
<rect x="8.5" y="161" width="44.6667" height="45" rx="8.5" fill="#121212" style="mix-blend-mode:plus-lighter"/>
<path d="M27.687 193.201C26.9233 193.201 26.3394 192.992 25.9351 192.572C25.5308 192.153 25.3286 191.584 25.3286 190.865V186.16H21.0947C20.638 186.16 20.2562 186.036 19.9492 185.789C19.6423 185.535 19.4888 185.198 19.4888 184.778C19.4888 184.509 19.5449 184.277 19.6572 184.082C19.7695 183.887 19.938 183.681 20.1626 183.464L29.6523 173.975C29.862 173.757 30.0754 173.593 30.2925 173.48C30.5171 173.368 30.7529 173.312 31 173.312C31.2471 173.312 31.4829 173.368 31.7075 173.48C31.9321 173.593 32.1455 173.757 32.3477 173.975L41.8486 183.464C42.0583 183.674 42.223 183.88 42.3428 184.082C42.4626 184.284 42.5225 184.516 42.5225 184.778C42.5225 185.198 42.369 185.535 42.062 185.789C41.755 186.036 41.3732 186.16 40.9165 186.16H36.6714V190.865C36.6714 191.584 36.4692 192.153 36.0649 192.572C35.6681 192.992 35.0841 193.201 34.313 193.201H27.687ZM27.979 191.337H34.021C34.2082 191.337 34.3617 191.273 34.4814 191.146C34.6087 191.026 34.6724 190.873 34.6724 190.686V184.756C34.6724 184.516 34.7922 184.396 35.0317 184.396H39.7935C39.8683 184.396 39.9058 184.37 39.9058 184.318C39.9058 184.28 39.887 184.239 39.8496 184.194L31.2134 175.614C31.1759 175.577 31.1385 175.551 31.1011 175.536C31.0711 175.513 31.0374 175.502 31 175.502C30.9626 175.502 30.9289 175.513 30.8989 175.536C30.869 175.551 30.8315 175.577 30.7866 175.614L22.1616 184.194C22.1167 184.239 22.0942 184.28 22.0942 184.318C22.0942 184.37 22.1317 184.396 22.2065 184.396H26.9795C27.2116 184.396 27.3276 184.516 27.3276 184.756V190.686C27.3276 190.873 27.3875 191.026 27.5073 191.146C27.6271 191.273 27.7843 191.337 27.979 191.337Z" fill="#A6A6A6"/>
<rect x="67.4167" y="161" width="32.9762" height="45" rx="8.5" fill="#999999" fill-opacity="0.15"/>
<rect x="67.4167" y="161" width="32.9762" height="45" rx="8.5" fill="#121212" style="mix-blend-mode:plus-lighter"/>
<path d="M79.2048 190V188.413L86.0285 179.124V179.05H79.2536V177.158H88.7629V178.77L81.9758 188.035V188.108H88.8483V190H79.2048Z" fill="#A6A6A6"/>
<rect x="106.393" y="161" width="32.9762" height="45" rx="8.5" fill="#999999" fill-opacity="0.15"/>
<rect x="106.393" y="161" width="32.9762" height="45" rx="8.5" fill="#121212" style="mix-blend-mode:plus-lighter"/>
<path d="M126.042 190L122.832 185.19H122.807L119.621 190H117.143L121.513 183.579C121.277 183.213 121.041 182.855 120.805 182.505C120.569 182.147 120.329 181.793 120.085 181.443C119.849 181.085 119.613 180.727 119.377 180.369C119.141 180.011 118.901 179.657 118.657 179.307C118.421 178.949 118.185 178.59 117.949 178.232C117.713 177.874 117.473 177.516 117.229 177.158H119.866L122.954 181.98H122.966L126.054 177.158H128.569L124.26 183.579C124.496 183.937 124.736 184.295 124.98 184.653C125.233 185.003 125.481 185.357 125.725 185.715C125.969 186.073 126.213 186.431 126.457 186.79C126.701 187.139 126.946 187.498 127.19 187.864C127.434 188.222 127.678 188.58 127.922 188.938C128.166 189.288 128.41 189.642 128.655 190H126.042Z" fill="#A6A6A6"/>
<rect x="145.369" y="161" width="32.9762" height="45" rx="8.5" fill="#999999" fill-opacity="0.15"/>
<rect x="145.369" y="161" width="32.9762" height="45" rx="8.5" fill="#121212" style="mix-blend-mode:plus-lighter"/>
<path d="M156.815 184.141V182.896C156.815 181.74 157.027 180.715 157.45 179.819C157.873 178.916 158.484 178.212 159.281 177.708C160.087 177.203 161.051 176.951 162.174 176.951C163.183 176.951 164.046 177.146 164.762 177.537C165.478 177.919 166.04 178.416 166.447 179.026C166.854 179.636 167.073 180.275 167.106 180.942H164.957C164.868 180.584 164.701 180.247 164.457 179.929C164.213 179.612 163.908 179.355 163.541 179.16C163.183 178.965 162.776 178.867 162.321 178.867C161.279 178.867 160.469 179.233 159.892 179.966C159.314 180.698 159.025 181.703 159.025 182.981V184.165C159.025 185.41 159.322 186.407 159.916 187.156C160.518 187.904 161.324 188.279 162.333 188.279C162.862 188.279 163.314 188.193 163.688 188.022C164.062 187.852 164.363 187.624 164.591 187.339C164.819 187.054 164.97 186.745 165.043 186.411H167.191C167.061 187.16 166.784 187.823 166.361 188.401C165.946 188.971 165.393 189.414 164.701 189.731C164.009 190.049 163.167 190.208 162.174 190.208C161.035 190.208 160.066 189.943 159.269 189.414C158.471 188.885 157.861 188.165 157.438 187.253C157.023 186.334 156.815 185.296 156.815 184.141Z" fill="#A6A6A6"/>
<rect x="184.345" y="161" width="32.9762" height="45" rx="8.5" fill="#999999" fill-opacity="0.15"/>
<rect x="184.345" y="161" width="32.9762" height="45" rx="8.5" fill="#121212" style="mix-blend-mode:plus-lighter"/>
<path d="M199.588 190L195.12 177.158H197.452L200.735 187.412H200.809L204.336 177.158H206.57L201.98 190H199.588Z" fill="#A6A6A6"/>
<rect x="223.321" y="161" width="32.9762" height="45" rx="8.5" fill="#999999" fill-opacity="0.15"/>
<rect x="223.321" y="161" width="32.9762" height="45" rx="8.5" fill="#121212" style="mix-blend-mode:plus-lighter"/>
<path d="M240.554 190.195C239.943 190.195 239.398 190.11 238.918 189.939C238.438 189.768 238.015 189.524 237.649 189.207C237.282 188.889 236.977 188.507 236.733 188.059H236.66V190H234.536V172.458H236.745V178.928H236.818C236.981 178.643 237.189 178.383 237.441 178.147C237.701 177.903 237.994 177.695 238.32 177.524C238.654 177.345 239.012 177.207 239.394 177.109C239.777 177.012 240.171 176.963 240.578 176.963C241.579 176.963 242.458 177.195 243.215 177.659C243.98 178.123 244.578 178.802 245.009 179.697C245.441 180.584 245.656 181.671 245.656 182.957V184.189C245.656 185.435 245.445 186.509 245.022 187.412C244.598 188.307 244.004 188.995 243.239 189.475C242.474 189.955 241.579 190.195 240.554 190.195ZM240.224 188.291C240.859 188.291 241.412 188.128 241.884 187.803C242.365 187.477 242.739 187.001 243.007 186.375C243.284 185.748 243.423 184.983 243.423 184.08V183.079C243.423 182.167 243.284 181.402 243.007 180.784C242.739 180.157 242.365 179.681 241.884 179.355C241.404 179.03 240.851 178.867 240.224 178.867C239.5 178.867 238.873 179.03 238.344 179.355C237.824 179.673 237.421 180.145 237.136 180.771C236.859 181.39 236.721 182.159 236.721 183.079V184.055C236.721 184.967 236.859 185.74 237.136 186.375C237.413 187.001 237.811 187.477 238.332 187.803C238.861 188.128 239.492 188.291 240.224 188.291Z" fill="#A6A6A6"/>
<rect x="262.298" y="161" width="32.9762" height="45" rx="8.5" fill="#999999" fill-opacity="0.15"/>
<rect x="262.298" y="161" width="32.9762" height="45" rx="8.5" fill="#121212" style="mix-blend-mode:plus-lighter"/>
<path d="M273.597 190V177.158H275.795V178.879H275.856C276.01 178.603 276.246 178.318 276.564 178.025C276.889 177.724 277.304 177.472 277.809 177.268C278.313 177.056 278.912 176.951 279.603 176.951C280.922 176.951 282.016 177.362 282.887 178.184C283.758 179.006 284.193 180.198 284.193 181.76V190H281.984V182.151C281.984 181.435 281.853 180.841 281.593 180.369C281.333 179.889 280.97 179.53 280.507 179.294C280.051 179.05 279.518 178.928 278.907 178.928C278.191 178.928 277.601 179.083 277.137 179.392C276.682 179.693 276.344 180.092 276.124 180.588C275.913 181.085 275.807 181.626 275.807 182.212V190H273.597Z" fill="#A6A6A6"/>
<rect x="301.274" y="161" width="32.9762" height="45" rx="8.5" fill="#999999" fill-opacity="0.15"/>
<rect x="301.274" y="161" width="32.9762" height="45" rx="8.5" fill="#121212" style="mix-blend-mode:plus-lighter"/>
<path d="M309.009 190V177.158H311.206V178.757H311.316C311.455 178.464 311.67 178.18 311.963 177.903C312.256 177.626 312.618 177.398 313.05 177.219C313.489 177.04 313.998 176.951 314.576 176.951C315.243 176.951 315.821 177.036 316.309 177.207C316.805 177.378 317.212 177.618 317.53 177.927C317.855 178.236 318.099 178.607 318.262 179.038H318.36C318.531 178.664 318.787 178.322 319.129 178.013C319.479 177.695 319.918 177.439 320.447 177.244C320.984 177.048 321.603 176.951 322.303 176.951C323.654 176.951 324.707 177.341 325.464 178.123C326.221 178.896 326.6 179.941 326.6 181.26V190H324.402V181.736C324.402 181.191 324.296 180.706 324.085 180.283C323.881 179.86 323.58 179.526 323.182 179.282C322.783 179.038 322.282 178.916 321.68 178.916C321.094 178.916 320.59 179.046 320.166 179.307C319.751 179.559 319.434 179.909 319.214 180.356C319.003 180.804 318.897 181.325 318.897 181.919V190H316.712V181.931C316.712 181.272 316.602 180.723 316.382 180.283C316.162 179.836 315.849 179.498 315.442 179.27C315.035 179.034 314.547 178.916 313.977 178.916C313.465 178.916 312.997 179.03 312.574 179.258C312.159 179.486 311.829 179.823 311.585 180.271C311.341 180.71 311.219 181.252 311.219 181.895V190H309.009Z" fill="#A6A6A6"/>
<rect x="348.5" y="161" width="45" height="45" rx="8.5" fill="#999999" fill-opacity="0.15"/>
<rect x="348.5" y="161" width="45" height="45" rx="8.5" fill="#121212" style="mix-blend-mode:plus-lighter"/>
<path d="M378.861 193.19H369.664C369.214 193.19 368.795 193.141 368.406 193.044C368.024 192.954 367.661 192.808 367.316 192.606C366.979 192.404 366.658 192.142 366.351 191.82L360.219 185.407C359.844 185.018 359.575 184.659 359.41 184.329C359.253 183.992 359.174 183.659 359.174 183.33C359.174 183.105 359.208 182.884 359.275 182.667C359.35 182.45 359.463 182.225 359.612 181.993C359.77 181.761 359.972 181.514 360.219 181.252L366.339 174.817C366.646 174.487 366.968 174.229 367.305 174.042C367.65 173.847 368.013 173.709 368.395 173.626C368.784 173.537 369.203 173.492 369.652 173.492H378.861C379.992 173.492 380.845 173.776 381.422 174.345C381.998 174.907 382.287 175.749 382.287 176.872V189.866C382.287 190.989 381.998 191.824 381.422 192.37C380.845 192.917 379.992 193.19 378.861 193.19ZM378.794 191.292C379.303 191.292 379.692 191.157 379.962 190.888C380.239 190.618 380.377 190.218 380.377 189.686V177.007C380.377 176.475 380.239 176.075 379.962 175.805C379.692 175.536 379.303 175.401 378.794 175.401H369.596C369.214 175.401 368.885 175.45 368.608 175.547C368.331 175.637 368.058 175.82 367.788 176.097L361.701 182.487C361.409 182.802 361.263 183.083 361.263 183.33C361.263 183.457 361.293 183.588 361.353 183.723C361.42 183.85 361.536 184.003 361.701 184.183L367.799 190.54C368.069 190.817 368.338 191.011 368.608 191.124C368.885 191.236 369.218 191.292 369.607 191.292H378.794ZM369.787 187.541C369.607 187.728 369.39 187.822 369.136 187.822C368.881 187.822 368.664 187.732 368.484 187.552C368.312 187.373 368.226 187.159 368.226 186.912C368.226 186.665 368.32 186.448 368.507 186.261L375.616 179.174C375.78 178.995 375.994 178.905 376.256 178.905C376.503 178.905 376.716 178.991 376.896 179.163C377.076 179.335 377.166 179.549 377.166 179.803C377.166 180.05 377.072 180.26 376.885 180.432L369.787 187.541ZM375.604 187.541L368.507 180.432C368.32 180.26 368.226 180.05 368.226 179.803C368.226 179.549 368.312 179.335 368.484 179.163C368.664 178.991 368.881 178.905 369.136 178.905C369.39 178.905 369.6 178.995 369.765 179.174L376.885 186.261C377.072 186.448 377.166 186.665 377.166 186.912C377.166 187.159 377.076 187.373 376.896 187.552C376.716 187.732 376.503 187.822 376.256 187.822C376.001 187.822 375.784 187.728 375.604 187.541Z" fill="#A6A6A6"/>
<rect x="8.5" y="217" width="91.67" height="45" rx="8.5" fill="#999999" fill-opacity="0.15"/>
<rect x="8.5" y="217" width="91.67" height="45" rx="8.5" fill="#121212" style="mix-blend-mode:plus-lighter"/>
<path d="M39.5586 246.114C39.1191 246.114 38.8291 245.859 38.8291 245.455C38.8291 245.279 38.873 245.112 38.9434 244.901L42.5557 234.803C42.7754 234.188 43.083 233.906 43.6455 233.906C44.208 233.906 44.5156 234.188 44.7354 234.803L48.3477 244.901C48.418 245.095 48.4619 245.279 48.4619 245.446C48.4619 245.859 48.1719 246.114 47.7236 246.114C47.3018 246.114 47.0645 245.912 46.8975 245.394L45.8867 242.396H41.3955L40.3848 245.394C40.2178 245.921 39.9805 246.114 39.5586 246.114ZM41.8086 241.157H45.4736L43.6719 235.813H43.6104L41.8086 241.157ZM50.3604 244.699V235.304C50.3604 234.372 50.7646 234.003 51.7754 234.003H54.8604C56.9082 234.003 58.1914 235.146 58.1914 236.956C58.1914 238.292 57.5146 239.224 56.2754 239.61V239.672C57.9014 239.892 58.877 240.99 58.877 242.643C58.877 244.726 57.2861 246 54.6846 246H51.7754C50.7646 246 50.3604 245.631 50.3604 244.699ZM51.8896 239.171H53.7266C55.7393 239.171 56.6445 238.556 56.6445 237.22C56.6445 236.033 55.8975 235.348 54.6143 235.348H51.8896V239.171ZM51.8896 244.655H53.9727C56.3457 244.655 57.3037 244.066 57.3037 242.651C57.3037 241.28 56.3809 240.489 54.7812 240.489H51.8896V244.655ZM60.626 240.955V239.048C60.626 235.717 62.3486 233.748 65.3193 233.748C66.7783 233.748 67.9209 234.214 68.7646 235.075C69.3535 235.69 69.7314 236.464 69.7314 236.974C69.7314 237.404 69.4678 237.659 69.0635 237.659C68.7207 237.659 68.501 237.519 68.2549 237.053C67.5518 235.743 66.6465 235.137 65.3809 235.137C63.3154 235.137 62.1641 236.561 62.1641 239.057V240.946C62.1641 243.469 63.3154 244.875 65.3809 244.875C66.6641 244.875 67.6309 244.277 68.29 242.994C68.5361 242.555 68.7207 242.388 69.0459 242.388C69.4854 242.388 69.7314 242.66 69.7314 243.073C69.7314 243.609 69.3359 244.392 68.7383 244.989C67.9121 245.815 66.7607 246.255 65.3193 246.255C62.3398 246.255 60.626 244.321 60.626 240.955Z" fill="#A6A6A6"/>
<rect x="106.17" y="217" width="189.33" height="45" rx="8.5" fill="#999999" fill-opacity="0.15"/>
<rect x="106.17" y="217" width="189.33" height="45" rx="8.5" fill="#121212" style="mix-blend-mode:plus-lighter"/>
<path d="M301.5 230.6C301.5 225.84 301.5 223.459 302.426 221.641C303.241 220.042 304.542 218.741 306.141 217.926C307.959 217 310.34 217 315.1 217H379.9C384.66 217 387.041 217 388.859 217.926C390.458 218.741 391.759 220.042 392.574 221.641C393.5 223.459 393.5 225.84 393.5 230.6V248.4C393.5 253.16 393.5 255.541 392.574 257.359C391.759 258.958 390.458 260.259 388.859 261.074C387.041 262 384.66 262 379.9 262H315.1C310.34 262 307.959 262 306.141 261.074C304.542 260.259 303.241 258.958 302.426 257.359C301.5 255.541 301.5 253.16 301.5 248.4V230.6Z" fill="#0091FF"/>
<path d="M344.04 247.373C343.811 247.373 343.613 247.29 343.446 247.123L337.991 241.77C337.898 241.677 337.827 241.578 337.777 241.473C337.734 241.368 337.712 241.259 337.712 241.148C337.712 241.03 337.734 240.919 337.777 240.814C337.827 240.709 337.898 240.613 337.991 240.526L343.446 235.173C343.613 235 343.811 234.914 344.04 234.914C344.287 234.914 344.485 234.991 344.633 235.146C344.788 235.3 344.865 235.495 344.865 235.73C344.865 235.854 344.844 235.962 344.8 236.055C344.763 236.147 344.711 236.231 344.643 236.305L341.961 238.912L339.67 240.87L339.503 240.443L342.379 240.322H354.226C354.715 240.322 355.07 240.211 355.293 239.988C355.516 239.759 355.627 239.391 355.627 238.884V233.401C355.627 232.907 355.516 232.548 355.293 232.325C355.07 232.103 354.715 231.991 354.226 231.991H349.031C348.771 231.991 348.564 231.911 348.409 231.75C348.261 231.589 348.187 231.394 348.187 231.166C348.187 230.937 348.264 230.742 348.418 230.581C348.573 230.42 348.777 230.34 349.031 230.34H354.226C355.308 230.34 356.088 230.581 356.564 231.063C357.046 231.54 357.288 232.319 357.288 233.401V238.884C357.288 239.936 357.046 240.715 356.564 241.222C356.088 241.723 355.308 241.974 354.226 241.974H342.379L339.503 241.844L339.67 241.417L341.961 243.384L344.643 245.991C344.711 246.065 344.763 246.148 344.8 246.241C344.844 246.334 344.865 246.439 344.865 246.557C344.865 246.798 344.788 246.993 344.633 247.141C344.485 247.296 344.287 247.373 344.04 247.373Z" fill="white"/>
<path d="M49.45 307.39C47.34 307.39 45.1 307.09 43.06 306.57C42.68 305.99 42.4 305.37 42.27 304.74C44.42 305.35 46.92 305.77 49.46 305.77C52 305.77 54.5 305.35 56.66 304.74C56.51 305.37 56.24 305.99 55.87 306.57C53.83 307.08 51.59 307.39 49.46 307.39H49.45ZM49.45 311.46C53.97 311.46 57.6 308.14 58.1 304.2C58.21 303.41 57.69 303.05 56.99 303.25C54.45 304 52.07 304.42 49.45 304.42C46.83 304.42 44.47 304 41.92 303.25C41.22 303.05 40.71 303.41 40.81 304.2C41.3 308.14 44.92 311.46 49.45 311.46ZM53.35 301.28C54.18 301.28 54.92 300.53 54.92 299.47C54.92 298.41 54.18 297.65 53.35 297.65C52.52 297.65 51.79 298.41 51.79 299.47C51.79 300.53 52.52 301.28 53.35 301.28ZM45.53 301.28C46.37 301.28 47.11 300.53 47.11 299.47C47.11 298.41 46.37 297.65 45.53 297.65C44.69 297.65 43.99 298.41 43.99 299.47C43.99 300.53 44.7 301.28 45.53 301.28ZM49.46 313.63C43.26 313.63 38.29 308.66 38.29 302.45C38.29 296.24 43.25 291.28 49.45 291.28C55.65 291.28 60.64 296.25 60.64 302.46C60.64 308.67 55.67 313.64 49.46 313.64V313.63ZM49.46 315.91C56.82 315.91 62.92 309.81 62.92 302.45C62.92 295.09 56.82 289 49.45 289C42.08 289 36 295.1 36 302.46C36 309.82 42.1 315.92 49.46 315.92V315.91Z" fill="white" fill-opacity="0.73"/>
<path d="M344.134 302.935V300.259C344.134 299.986 344.231 299.753 344.424 299.56C344.618 299.367 344.851 299.27 345.123 299.27C345.404 299.27 345.642 299.367 345.835 299.56C346.028 299.753 346.125 299.986 346.125 300.259V302.856C346.125 304.35 346.433 305.66 347.048 306.785C347.663 307.91 348.529 308.784 349.645 309.408C350.761 310.023 352.071 310.331 353.574 310.331C355.077 310.331 356.382 310.023 357.489 309.408C358.605 308.784 359.471 307.91 360.086 306.785C360.702 305.66 361.009 304.35 361.009 302.856V300.259C361.009 299.986 361.106 299.753 361.299 299.56C361.493 299.367 361.73 299.27 362.011 299.27C362.284 299.27 362.517 299.367 362.71 299.56C362.903 299.753 363 299.986 363 300.259V302.935C363 304.658 362.644 306.187 361.932 307.523C361.229 308.859 360.245 309.931 358.979 310.74C357.713 311.54 356.241 312.01 354.562 312.15V315.222H359.454C359.735 315.222 359.972 315.319 360.166 315.512C360.359 315.706 360.456 315.943 360.456 316.224C360.456 316.497 360.359 316.729 360.166 316.923C359.972 317.116 359.735 317.213 359.454 317.213H347.681C347.399 317.213 347.162 317.116 346.969 316.923C346.775 316.729 346.679 316.497 346.679 316.224C346.679 315.943 346.775 315.706 346.969 315.512C347.162 315.319 347.399 315.222 347.681 315.222H352.572V312.15C350.893 312.01 349.421 311.54 348.155 310.74C346.89 309.931 345.901 308.859 345.189 307.523C344.486 306.187 344.134 304.658 344.134 302.935ZM348.775 302.46V294.168C348.775 293.157 348.977 292.265 349.381 291.492C349.786 290.709 350.348 290.099 351.069 289.659C351.79 289.22 352.625 289 353.574 289C354.514 289 355.345 289.22 356.065 289.659C356.786 290.099 357.349 290.709 357.753 291.492C358.157 292.265 358.359 293.157 358.359 294.168V302.46C358.359 303.471 358.157 304.368 357.753 305.15C357.349 305.923 356.786 306.53 356.065 306.969C355.345 307.409 354.514 307.628 353.574 307.628C352.625 307.628 351.79 307.409 351.069 306.969C350.348 306.53 349.786 305.923 349.381 305.15C348.977 304.368 348.775 303.471 348.775 302.46ZM350.766 302.46C350.766 303.436 351.021 304.214 351.53 304.794C352.049 305.374 352.73 305.664 353.574 305.664C354.417 305.664 355.094 305.374 355.604 304.794C356.114 304.214 356.369 303.436 356.369 302.46V294.168C356.369 293.192 356.114 292.415 355.604 291.834C355.094 291.254 354.417 290.964 353.574 290.964C352.73 290.964 352.049 291.254 351.53 291.834C351.021 292.415 350.766 293.192 350.766 294.168V302.46Z" fill="white" fill-opacity="0.73"/>
</svg>
